<svg viewBox="0 0 20 20" xmlns="http://www.w3.org/2000/svg">
<g clip-path="url(#clip0)">
<path d="M19.75 0.125C19.5 0 19.25 0 19.125 0L11.125 3.75H4.375C2 3.75 0 5.75 0 8.125C0 10.375 1.75 12.25 4 12.5L7.125 18.625C7.75 19.875 9.25 20.375 10.5 19.75C11.75 19.125 12.25 17.625 11.625 16.375L10.5 14.125C10.375 13.875 10 13.75 9.625 13.875C9.375 14 9.25 14.375 9.375 14.75L10.5 17C10.875 17.5 10.625 18.25 10 18.625C9.375 19 8.625 18.75 8.375 18.125L5.375 12.5H11.125L19.125 16.25C19.375 16.375 19.5 16.375 19.75 16.25C19.875 16.125 20 15.875 20 15.75V0.75C20 0.375 19.875 0.25 19.75 0.125ZM18.75 14.625L11.5 11.25C11.375 11.25 11.375 11.25 11.25 11.25H4.375C2.625 11.25 1.25 9.875 1.25 8.125C1.25 6.375 2.625 5 4.375 5H11.25C11.375 5 11.375 5 11.5 5L18.75 1.625V14.625Z"/>
</g>
<defs>
<clipPath id="clip0">
<rect width="20" height="20" fill="white"/>
</clipPath>
</defs>
</svg>
