<svg viewBox="0 0 20 20" xmlns="http://www.w3.org/2000/svg">
<path d="M0 10C0 4.5 4.5 0 10 0C15.5 0 20 4.5 20 10C20 15.5 15.5 20 10 20C4.5 20 0 15.5 0 10ZM1.25 10C1.25 14.875 5.125 18.75 10 18.75C14.875 18.75 18.75 14.875 18.75 10C18.75 5.125 14.875 1.25 10 1.25C5.125 1.25 1.25 5.125 1.25 10ZM10 5C9.25 5 8.75 5.5 8.75 6.25C8.75 7 9.25 7.5 10 7.5C10.75 7.5 11.25 7 11.25 6.25C11.25 5.5 10.75 5 10 5ZM10 9.375C9.625 9.375 9.375 9.625 9.375 10V14.375C9.375 14.75 9.625 15 10 15C10.375 15 10.625 14.75 10.625 14.375V10C10.625 9.625 10.375 9.375 10 9.375Z"/>
</svg>
