<svg viewBox="0 0 20 20" xmlns="http://www.w3.org/2000/svg">
<path d="M11.1006 1.49038C10.8826 1.0855 10.4598 0.833008 10 0.833008C9.54015 0.833008 9.11743 1.0855 8.89941 1.49038L0.149411 17.7404C-0.0591764 18.1278 -0.0487535 18.5963 0.176855 18.974C0.402464 19.3518 0.810034 19.583 1.25 19.583H18.75C19.19 19.583 19.5975 19.3518 19.8231 18.974C20.0487 18.5963 20.0591 18.1278 19.8506 17.7404L11.1006 1.49038ZM9.29015 3.4013L10 2.08301L10.7098 3.4013L18.0769 17.083L18.75 18.333H17.3302H2.6697H1.25L1.92308 17.083L9.29015 3.4013ZM10 7.08313C9.65482 7.08313 9.375 7.36296 9.375 7.70813V11.4581C9.375 11.8033 9.65482 12.0831 10 12.0831C10.3452 12.0831 10.625 11.8033 10.625 11.4581V7.70813C10.625 7.36296 10.3452 7.08313 10 7.08313ZM11.25 15.2081C11.25 14.4581 10.75 13.9581 10 13.9581C9.25 13.9581 8.75 14.4581 8.75 15.2081C8.75 15.9581 9.25 16.458 10 16.458C10.75 16.458 11.25 15.9581 11.25 15.2081Z"/>
</svg>