<svg viewBox="0 0 230 200" xmlns="http://www.w3.org/2000/svg">
<rect opacity="0.15" x="65" y="50" width="100" height="100" rx="8"/>
<path d="M94.875 95.6875C94.875 87.0625 102.062 79.875 110.687 79.875C119.312 79.875 126.5 87.0625 126.5 95.6875C126.5 104.312 119.312 111.5 110.687 111.5C102.062 111.5 94.875 104.312 94.875 95.6875ZM110.687 77C100.338 77 92 85.3375 92 95.6875C92 106.037 100.338 114.375 110.687 114.375C113.85 114.375 116.725 113.512 119.312 112.075L129.663 122.425C130.238 123 131.1 123 131.675 122.425L137.425 116.675C138 116.1 138 115.238 137.425 114.663L127.075 104.312C128.512 101.725 129.375 98.85 129.375 95.6875C129.375 85.3375 121.037 77 110.687 77Z"/>
</svg>
