<svg viewBox="0 0 230 200" xmlns="http://www.w3.org/2000/svg">
<rect opacity="0.15" x="65" y="50" width="100" height="100" rx="8"/>
<path d="M97.75 78.4375C97.75 77.6436 98.3936 77 99.1875 77H130.812C131.606 77 132.25 77.6436 132.25 78.4375C132.25 79.2314 131.606 79.875 130.812 79.875H99.1875C98.3936 79.875 97.75 79.2314 97.75 78.4375ZM104.938 94.25C105.731 94.25 106.375 94.8936 106.375 95.6875V100H123.625V95.6875C123.625 94.8936 124.269 94.25 125.062 94.25C125.856 94.25 126.5 94.8936 126.5 95.6875V101.438C126.5 102.231 125.856 102.875 125.062 102.875H104.938C104.144 102.875 103.5 102.231 103.5 101.438V95.6875C103.5 94.8936 104.144 94.25 104.938 94.25ZM93.4375 85.625C92.6436 85.625 92 86.2686 92 87.0625V118.688C92 119.481 92.6436 120.125 93.4375 120.125H136.562C137.356 120.125 138 119.481 138 118.688V87.0625C138 86.2686 137.356 85.625 136.562 85.625H93.4375ZM94.875 117.25V88.5H135.125V117.25H94.875Z"/>
</svg>
