<svg width="293" height="53" viewBox="0 0 293 53" fill="none" xmlns="http://www.w3.org/2000/svg">
<path d="M14.49 15.16L7.83999 0.410004H0.899994L10.85 22.81C10.89 22.91 11.03 22.91 11.07 22.81L14.49 15.16Z" fill="#131415"/>
<path d="M28.98 0.410004C28.98 0.410004 19.98 20.71 18.85 23.2C16.16 29.14 14.16 30.62 12.13 30.94C12.11 30.94 12.1 30.96 12.1 30.98C12.1 31 12.12 31.02 12.14 31.02H18.5C21.3 31.02 23.21 29.14 25.91 23.2C26.85 21.12 36.05 0.410004 36.05 0.410004H28.98V0.410004Z" fill="#131415"/>
<path d="M72.68 8.06C68.19 8.06 65.3 10.97 65.3 15.71C65.3 20.45 68.19 23.36 72.68 23.36C77.16 23.36 80.06 20.45 80.06 15.71C80.06 10.97 77.16 8.06 72.68 8.06ZM72.68 20.95C69.81 20.95 67.94 19.08 67.94 15.72C67.94 12.35 69.82 10.49 72.68 10.49C75.54 10.49 77.42 12.36 77.42 15.72C77.42 19.08 75.54 20.95 72.68 20.95Z" fill="#131415"/>
<path d="M95.29 8.39999V23.03H92.25L85.01 12.31V23.03H82.42V8.39999H85.47L92.71 19.19V8.39999H95.29Z" fill="#131415"/>
<path d="M140.1 10.85V8.39999H129.58V23.03H140.1V20.58H132.17V16.74H139.48V14.29H132.17V10.85H140.1Z" fill="#131415"/>
<path d="M62.05 8.39999L56.81 19.91C56.78 19.97 56.7 19.97 56.67 19.91L51.42 8.39999H48.46C48.46 8.39999 53.59 19.71 53.99 20.59C54.8 22.37 55.47 23.2 56.74 23.2C58.01 23.2 58.68 22.38 59.49 20.59C59.89 19.71 65.02 8.39999 65.02 8.39999H62.05Z" fill="#131415"/>
<path d="M107.35 10.85C106.57 9.04999 105.98 8.23999 104.76 8.23999C103.54 8.23999 102.95 9.04999 102.17 10.85C101.79 11.72 96.87 23.04 96.87 23.04H99.6L101.11 19.5H108.39L109.9 23.04H112.63C112.65 23.04 107.73 11.73 107.35 10.85ZM102.17 17.05L104.69 11.13C104.72 11.07 104.8 11.07 104.83 11.13L107.35 17.05H102.17V17.05Z" fill="#131415"/>
<path d="M119.81 15.09V17.31H124.2C124.01 19.28 122.12 20.92 119.9 20.92C117.27 20.92 115.36 19 115.36 15.82C115.36 12.51 117.13 10.48 120.14 10.48C121.94 10.48 123.42 11.34 123.91 12.83H126.59C126.01 9.84 123.35 8.06 120.14 8.06C115.56 8.06 112.73 11.06 112.73 15.88C112.73 20.55 115.83 23.37 119.68 23.37C122.99 23.37 124.25 21.44 124.6 20.82V23.03H126.9V15.09H119.81V15.09Z" fill="#131415"/>
<path d="M172.21 11H174.31L179.35 22.99H177.5L176.17 19.78H170.35L169.02 22.99H167.16L172.21 11ZM175.5 18.14L173.27 12.74L171.04 18.14H175.5Z" fill="#131415"/>
<path d="M187.07 11C189.5 11 190.98 12.48 190.98 14.65C190.98 16.85 189.48 18.58 186.79 18.58H183.05V22.99H181.34V11H187.07ZM183.05 16.95H186.69C188.21 16.95 189.23 16.11 189.23 14.73C189.23 13.41 188.29 12.63 186.84 12.63H183.05V16.95Z" fill="#131415"/>
<path d="M194.93 11V22.99H193.22V11H194.93Z" fill="#131415"/>
<path d="M206.87 11C210.43 11 212.75 13.22 212.75 16.95C212.75 20.64 210.5 22.99 206.83 22.99H202.17V11H206.87ZM203.88 21.36H206.59C209.79 21.36 211 19.45 211 16.99C211 14.52 209.79 12.63 206.59 12.63H203.88V21.36Z" fill="#131415"/>
<path d="M222.6 16.82V22.99H220.97V21.58C220.27 22.62 219.1 23.13 217.64 23.13C215.62 23.13 214.48 22.14 214.48 20.47C214.48 18.15 216.69 18 218.53 17.83C219.94 17.7 220.95 17.59 220.95 16.68C220.95 15.92 220.24 15.43 218.93 15.43C217.53 15.43 216.6 15.99 216.17 17.01L214.65 16.49C215.24 14.93 216.74 13.96 218.94 13.96C221.28 13.94 222.6 15.05 222.6 16.82ZM220.95 19.41V18.66C220.25 18.91 219.41 19.01 218.63 19.09C217.24 19.23 216.12 19.3 216.12 20.42C216.12 21.33 216.84 21.65 217.91 21.65C219.62 21.65 220.95 20.84 220.95 19.41Z" fill="#131415"/>
<path d="M231.12 16.84C230.75 15.89 229.86 15.34 228.5 15.34C227.22 15.34 226.49 15.82 226.49 16.55C226.49 17.49 227.69 17.64 229.04 17.8C230.76 18 232.77 18.21 232.77 20.21C232.77 22 231.16 23.13 228.93 23.13C226.97 23.13 225.29 22.27 224.67 20.62L226.18 20.05C226.61 21.24 227.76 21.74 228.99 21.74C230.24 21.74 231.11 21.22 231.11 20.42C231.11 19.48 229.91 19.32 228.55 19.16C226.82 18.94 224.85 18.69 224.85 16.69C224.85 14.96 226.31 13.95 228.56 13.95C230.74 13.95 232.08 14.91 232.57 16.29L231.12 16.84Z" fill="#131415"/>
<path d="M236.57 10.72V15.6C237.06 14.73 237.92 13.94 239.66 13.94C241.84 13.94 243.09 15.19 243.09 17.16V22.99H241.44V17.81C241.44 16.32 240.7 15.48 239.27 15.48C237.52 15.48 236.57 16.72 236.57 18.19V23H234.91V10.72H236.57Z" fill="#131415"/>
<path d="M245.74 10.72H247.4V15.63C248.01 14.48 249.05 13.94 250.5 13.94C253.37 13.94 254.68 16.04 254.68 18.52C254.68 20.99 253.38 23.12 250.48 23.12C249.03 23.12 248 22.59 247.39 21.39V22.99H245.75V10.72H245.74ZM253.02 18.52C253.02 16.61 251.95 15.42 250.2 15.42C248.46 15.42 247.39 16.61 247.39 18.52C247.39 20.42 248.45 21.65 250.2 21.65C251.96 21.65 253.02 20.42 253.02 18.52Z" fill="#131415"/>
<path d="M265.17 18.54C265.17 21.31 263.43 23.12 260.71 23.12C257.99 23.12 256.25 21.31 256.25 18.54C256.25 15.76 258 13.94 260.71 13.94C263.43 13.94 265.17 15.77 265.17 18.54ZM257.89 18.54C257.89 20.5 258.99 21.65 260.7 21.65C262.42 21.65 263.52 20.5 263.52 18.54C263.52 16.57 262.43 15.42 260.7 15.42C258.99 15.42 257.89 16.57 257.89 18.54Z" fill="#131415"/>
<path d="M274.85 16.82V22.99H273.22V21.58C272.52 22.62 271.35 23.13 269.89 23.13C267.87 23.13 266.73 22.14 266.73 20.47C266.73 18.15 268.94 18 270.78 17.83C272.19 17.7 273.2 17.59 273.2 16.68C273.2 15.92 272.49 15.43 271.18 15.43C269.78 15.43 268.85 15.99 268.42 17.01L266.9 16.49C267.49 14.93 268.99 13.96 271.19 13.96C273.54 13.94 274.85 15.05 274.85 16.82ZM273.21 19.41V18.66C272.51 18.91 271.67 19.01 270.89 19.09C269.5 19.23 268.38 19.3 268.38 20.42C268.38 21.33 269.1 21.65 270.17 21.65C271.88 21.65 273.21 20.84 273.21 19.41Z" fill="#131415"/>
<path d="M279.17 14.11V15.82C279.74 14.46 280.85 14.03 282.08 14.03C282.39 14.03 282.71 14.06 282.99 14.11L282.91 15.69C282.58 15.65 282.28 15.62 281.98 15.62C280.04 15.62 279.17 16.68 279.17 18.64V22.99H277.51V14.11H279.17V14.11Z" fill="#131415"/>
<path d="M291.11 22.99V21.39C290.5 22.59 289.47 23.12 288.02 23.12C285.12 23.12 283.82 20.99 283.82 18.52C283.82 16.04 285.13 13.94 288 13.94C289.45 13.94 290.49 14.48 291.1 15.63V10.72H292.76V22.98H291.11V22.99ZM291.09 18.52C291.09 16.61 290.02 15.42 288.28 15.42C286.53 15.42 285.46 16.61 285.46 18.52C285.46 20.42 286.52 21.65 288.28 21.65C290.03 21.65 291.09 20.42 291.09 18.52Z" fill="#131415"/>
<path d="M60.27 37.93V49.18H58.43L52.4 40.35V49.18H50.79V37.93H52.63L58.67 46.8V37.93H60.27Z" fill="#131415"/>
<path d="M70.49 45.54H63.98C64.07 46.9 65 47.92 66.67 47.92C67.95 47.92 68.69 47.33 69.13 46.64L70.35 47.36C69.58 48.48 68.41 49.3 66.59 49.3C63.94 49.3 62.43 47.59 62.43 45.05C62.43 42.37 64.11 40.69 66.64 40.69C68.96 40.69 70.48 42.1 70.48 44.44V45.54H70.49ZM63.99 44.25H68.94C68.89 42.78 68.04 42.07 66.63 42.07C65.08 42.07 64.19 42.94 63.99 44.25Z" fill="#131415"/>
<path d="M77.97 49.17L75.63 45.99L73.29 49.17H71.34L74.66 44.91L71.5 40.84H73.44L75.64 43.83L77.84 40.84H79.78L76.61 44.91L79.93 49.17H77.97Z" fill="#131415"/>
<path d="M82.87 40.85V42.22C83.29 41.43 84.09 40.69 85.59 40.69C87.02 40.69 87.79 41.38 88.19 42.57C88.63 41.58 89.53 40.69 91.26 40.69C93.22 40.69 94.3 41.84 94.3 43.59V49.17H92.75V44.24C92.75 42.88 92.1 42.12 90.86 42.12C89.4 42.12 88.58 43.2 88.58 44.54V49.17H87.03V44.24C87.03 42.89 86.39 42.12 85.16 42.12C83.69 42.12 82.86 43.21 82.86 44.54V49.17H81.31V40.84H82.87V40.85Z" fill="#131415"/>
<path d="M104.62 45C104.62 47.6 102.99 49.3 100.43 49.3C97.88 49.3 96.24 47.6 96.24 45C96.24 42.4 97.88 40.69 100.43 40.69C102.99 40.69 104.62 42.4 104.62 45ZM97.79 45C97.79 46.84 98.82 47.92 100.42 47.92C102.04 47.92 103.06 46.85 103.06 45C103.06 43.15 102.03 42.07 100.42 42.07C98.82 42.08 97.79 43.15 97.79 45Z" fill="#131415"/>
<path d="M112.1 39.47H110.33V37.67H112.1V39.47ZM111.99 49.17H110.44V40.84H111.99V49.17Z" fill="#131415"/>
<path d="M120.05 43.4C119.7 42.51 118.87 42 117.59 42C116.39 42 115.71 42.45 115.71 43.14C115.71 44.03 116.83 44.16 118.1 44.31C119.72 44.5 121.6 44.69 121.6 46.57C121.6 48.25 120.09 49.31 118 49.31C116.16 49.31 114.59 48.5 114.01 46.96L115.43 46.43C115.83 47.54 116.91 48.01 118.06 48.01C119.23 48.01 120.05 47.52 120.05 46.77C120.05 45.88 118.92 45.74 117.65 45.59C116.03 45.39 114.18 45.15 114.18 43.28C114.18 41.66 115.55 40.71 117.66 40.71C119.71 40.71 120.96 41.61 121.42 42.91L120.05 43.4Z" fill="#131415"/>
<path d="M128.95 40.85V42.25C129.4 41.43 130.22 40.69 131.85 40.69C133.9 40.69 135.07 41.86 135.07 43.71V49.18H133.53V44.32C133.53 42.92 132.84 42.13 131.49 42.13C129.85 42.13 128.96 43.29 128.96 44.67V49.18H127.41V40.85H128.95Z" fill="#131415"/>
<path d="M145.38 45C145.38 47.6 143.75 49.3 141.19 49.3C138.64 49.3 137 47.6 137 45C137 42.4 138.64 40.69 141.19 40.69C143.75 40.69 145.38 42.4 145.38 45ZM138.56 45C138.56 46.84 139.59 47.92 141.19 47.92C142.81 47.92 143.83 46.85 143.83 45C143.83 43.15 142.8 42.07 141.19 42.07C139.58 42.08 138.56 43.15 138.56 45Z" fill="#131415"/>
<path d="M159.39 40.85L156.51 49.18H154.94L152.82 43.06L150.7 49.18H149.13L146.25 40.85H147.89L149.91 47.44L152.01 40.85H153.61L155.71 47.44L157.73 40.85H159.39V40.85Z" fill="#131415"/>
<path d="M174.31 37.93L169.82 49.18H168.03L163.54 37.93H165.27L168.92 47.26L172.57 37.93H174.31Z" fill="#131415"/>
<path d="M183.29 45C183.29 47.6 181.66 49.3 179.1 49.3C176.55 49.3 174.91 47.6 174.91 45C174.91 42.4 176.55 40.69 179.1 40.69C181.66 40.69 183.29 42.4 183.29 45ZM176.47 45C176.47 46.84 177.5 47.92 179.1 47.92C180.72 47.92 181.74 46.85 181.74 45C181.74 43.15 180.71 42.07 179.1 42.07C177.49 42.08 176.47 43.15 176.47 45Z" fill="#131415"/>
<path d="M186.86 40.85V42.25C187.31 41.43 188.13 40.69 189.76 40.69C191.81 40.69 192.98 41.86 192.98 43.71V49.18H191.44V44.32C191.44 42.92 190.75 42.13 189.4 42.13C187.76 42.13 186.87 43.29 186.87 44.67V49.18H185.32V40.85H186.86Z" fill="#131415"/>
<path d="M202.53 43.39V49.18H201V47.85C200.34 48.82 199.24 49.3 197.88 49.3C195.98 49.3 194.92 48.37 194.92 46.81C194.92 44.63 196.99 44.49 198.72 44.33C200.05 44.21 200.99 44.1 200.99 43.25C200.99 42.54 200.32 42.07 199.09 42.07C197.78 42.07 196.9 42.6 196.5 43.55L195.07 43.06C195.63 41.59 197.03 40.68 199.09 40.68C201.3 40.69 202.53 41.72 202.53 43.39ZM200.98 45.82V45.11C200.32 45.35 199.54 45.44 198.81 45.52C197.51 45.65 196.46 45.72 196.46 46.77C196.46 47.62 197.13 47.92 198.14 47.92C199.74 47.92 200.98 47.16 200.98 45.82Z" fill="#131415"/>
<path d="M212.85 48.67C212.85 50.7 211.28 52.21 208.7 52.21C206.54 52.21 205.06 51.17 204.58 49.64L206.05 49.18C206.42 50.25 207.35 50.83 208.71 50.83C210.36 50.83 211.31 49.98 211.31 48.72V47.13C210.75 48.19 209.78 48.7 208.41 48.7C205.7 48.7 204.47 46.75 204.47 44.68C204.47 42.63 205.69 40.69 208.42 40.69C209.78 40.69 210.75 41.17 211.31 42.21V40.85H212.85V48.67V48.67ZM206.02 44.68C206.02 46.22 207.05 47.31 208.67 47.31C210.29 47.31 211.31 46.21 211.31 44.68C211.31 43.15 210.3 42.08 208.67 42.08C207.05 42.08 206.02 43.15 206.02 44.68Z" fill="#131415"/>
<path d="M222.84 45.54H216.33C216.42 46.9 217.35 47.92 219.02 47.92C220.3 47.92 221.04 47.33 221.48 46.64L222.7 47.36C221.93 48.48 220.76 49.3 218.94 49.3C216.29 49.3 214.78 47.59 214.78 45.05C214.78 42.37 216.46 40.69 218.99 40.69C221.31 40.69 222.83 42.1 222.83 44.44V45.54H222.84ZM216.34 44.25H221.29C221.24 42.78 220.39 42.07 218.98 42.07C217.43 42.07 216.54 42.94 216.34 44.25Z" fill="#131415"/>
<path d="M155.88 4.01001H155.5V27.73H155.88V4.01001Z" fill="#131415"/>
</svg>
