<svg width="597" height="40" viewBox="0 0 597 40" fill="none" xmlns="http://www.w3.org/2000/svg">
<path d="M18.05 19.5L9.56 0.669998H0.690002L13.4 29.28C13.45 29.4 13.63 29.4 13.69 29.28L18.05 19.5Z" fill="#131415"/>
<path d="M36.55 0.669998C36.55 0.669998 25.05 26.6 23.62 29.78C20.18 37.37 17.63 39.26 15.04 39.67C15.02 39.67 15 39.69 15 39.72C15 39.75 15.02 39.77 15.05 39.77H23.17C26.74 39.77 29.19 37.37 32.63 29.78C33.83 27.13 45.58 0.669998 45.58 0.669998H36.55V0.669998Z" fill="#131415"/>
<path d="M92.37 10.45C86.64 10.45 82.95 14.16 82.95 20.22C82.95 26.28 86.64 29.99 92.37 29.99C98.09 29.99 101.79 26.28 101.79 20.22C101.79 14.16 98.09 10.45 92.37 10.45ZM92.37 26.91C88.71 26.91 86.31 24.53 86.31 20.22C86.31 15.91 88.71 13.53 92.37 13.53C96.02 13.53 98.43 15.91 98.43 20.22C98.43 24.53 96.02 26.91 92.37 26.91Z" fill="#131415"/>
<path d="M121.24 10.88V29.57H117.36L108.12 15.88V29.57H104.81V10.88H108.7L117.94 24.67V10.88H121.24Z" fill="#131415"/>
<path d="M178.47 14V10.88H165.04V29.56H178.47V26.44H168.35V21.52H177.68V18.4H168.35V14H178.47Z" fill="#131415"/>
<path d="M78.79 10.88L72.09 25.58C72.06 25.66 71.95 25.66 71.91 25.58L65.21 10.88H61.42C61.42 10.88 67.97 25.33 68.48 26.45C69.51 28.73 70.37 29.78 71.99 29.78C73.61 29.78 74.47 28.73 75.5 26.45C76.01 25.33 82.56 10.88 82.56 10.88H78.79V10.88Z" fill="#131415"/>
<path d="M136.65 14.01C135.65 11.72 134.9 10.68 133.34 10.68C131.78 10.68 131.03 11.72 130.03 14.01C129.54 15.12 123.27 29.58 123.27 29.58H126.76L128.69 25.06H137.99L139.92 29.58H143.41C143.41 29.58 137.14 15.12 136.65 14.01ZM130.03 21.92L133.25 14.36C133.28 14.28 133.4 14.28 133.43 14.36L136.65 21.92H130.03Z" fill="#131415"/>
<path d="M152.57 19.43V22.26H158.18C157.93 24.77 155.53 26.87 152.69 26.87C149.33 26.87 146.89 24.41 146.89 20.35C146.89 16.13 149.15 13.53 153 13.53C155.3 13.53 157.19 14.63 157.82 16.53H161.25C160.51 12.71 157.11 10.44 153.01 10.44C147.16 10.44 143.54 14.27 143.54 20.42C143.54 26.39 147.49 29.99 152.42 29.99C156.65 29.99 158.26 27.53 158.71 26.74V29.56H161.64V19.43H152.57Z" fill="#131415"/>
<path d="M196.48 4.58H195.99V34.76H196.48V4.58Z" fill="#131415"/>
<path d="M216.22 13.87H218.72L224.74 28.18H222.53L220.94 24.35H214L212.41 28.18H210.2L216.22 13.87ZM220.14 22.39L217.48 15.94L214.82 22.39H220.14Z" fill="#131415"/>
<path d="M233.95 13.87C236.85 13.87 238.62 15.64 238.62 18.23C238.62 20.85 236.82 22.92 233.62 22.92H229.16V28.18H227.11V13.87H233.95ZM229.16 20.97H233.5C235.32 20.97 236.53 19.96 236.53 18.32C236.53 16.74 235.4 15.82 233.68 15.82H229.16V20.97Z" fill="#131415"/>
<path d="M243.32 13.87V28.18H241.27V13.87H243.32Z" fill="#131415"/>
<path d="M257.58 13.87C261.83 13.87 264.59 16.52 264.59 20.97C264.59 25.37 261.91 28.17 257.53 28.17H251.96V13.87H257.58ZM254.01 26.23H257.24C261.06 26.23 262.51 23.95 262.51 21.01C262.51 18.07 261.06 15.81 257.24 15.81H254.01V26.23V26.23Z" fill="#131415"/>
<path d="M276.9 23.55H268.62C268.73 25.28 269.92 26.57 272.04 26.57C273.67 26.57 274.6 25.82 275.17 24.94L276.73 25.86C275.75 27.29 274.26 28.32 271.94 28.32C268.57 28.32 266.65 26.15 266.65 22.91C266.65 19.5 268.79 17.36 272.01 17.36C274.96 17.36 276.9 19.16 276.9 22.13V23.55ZM268.63 21.91H274.93C274.87 20.04 273.78 19.14 272 19.14C270.02 19.13 268.88 20.24 268.63 21.91Z" fill="#131415"/>
<path d="M288.97 17.58L284.45 28.18H282.53L278.01 17.58H280.16L283.49 25.85L286.82 17.58H288.97Z" fill="#131415"/>
<path d="M300.35 23.55H292.07C292.18 25.28 293.37 26.57 295.49 26.57C297.12 26.57 298.05 25.82 298.62 24.94L300.18 25.86C299.2 27.29 297.71 28.32 295.39 28.32C292.02 28.32 290.1 26.15 290.1 22.91C290.1 19.5 292.24 17.36 295.46 17.36C298.41 17.36 300.35 19.16 300.35 22.13V23.55ZM292.07 21.91H298.37C298.31 20.04 297.22 19.14 295.44 19.14C293.46 19.13 292.32 20.24 292.07 21.91Z" fill="#131415"/>
<path d="M304.88 13.54V28.18H302.9V13.54H304.88Z" fill="#131415"/>
<path d="M318.1 22.87C318.1 26.17 316.02 28.34 312.77 28.34C309.53 28.34 307.44 26.17 307.44 22.87C307.44 19.56 309.53 17.38 312.77 17.38C316.03 17.38 318.1 19.55 318.1 22.87ZM309.42 22.87C309.42 25.21 310.73 26.58 312.77 26.58C314.83 26.58 316.13 25.21 316.13 22.87C316.13 20.52 314.82 19.15 312.77 19.15C310.73 19.14 309.42 20.51 309.42 22.87Z" fill="#131415"/>
<path d="M322.65 17.58V19.4C323.38 18.12 324.52 17.38 326.36 17.38C329.76 17.38 331.34 19.87 331.34 22.77C331.34 25.64 329.78 28.18 326.34 28.18C324.49 28.18 323.38 27.45 322.65 26.15V32.04H320.67V17.58H322.65ZM329.37 22.77C329.37 20.57 328.09 19.15 326.01 19.15C323.92 19.15 322.66 20.58 322.66 22.77C322.66 24.96 323.95 26.42 326.01 26.42C328.08 26.42 329.37 24.96 329.37 22.77Z" fill="#131415"/>
<path d="M343.45 23.55H335.17C335.28 25.28 336.47 26.57 338.59 26.57C340.22 26.57 341.15 25.82 341.72 24.94L343.28 25.86C342.3 27.29 340.81 28.32 338.49 28.32C335.12 28.32 333.2 26.15 333.2 22.91C333.2 19.5 335.34 17.36 338.56 17.36C341.51 17.36 343.45 19.16 343.45 22.13V23.55ZM335.18 21.91H341.48C341.42 20.04 340.33 19.14 338.55 19.14C336.57 19.13 335.43 20.24 335.18 21.91Z" fill="#131415"/>
<path d="M347.99 17.58V19.62C348.67 17.99 350 17.48 351.46 17.48C351.83 17.48 352.21 17.52 352.55 17.58L352.45 19.47C352.06 19.42 351.7 19.39 351.34 19.39C349.02 19.39 347.99 20.66 347.99 22.99V28.18H346.01V17.58H347.99Z" fill="#131415"/>
<path d="M365.34 3.7H364.85V33.88H365.34V3.7Z" fill="#131415"/>
<path d="M389.64 13.78V28.09H387.3L379.63 16.86V28.09H377.58V13.78H379.92L387.6 25.06V13.78H389.64Z" fill="#131415"/>
<path d="M402.65 23.47H394.37C394.48 25.2 395.67 26.49 397.79 26.49C399.42 26.49 400.35 25.74 400.92 24.86L402.48 25.78C401.5 27.21 400.01 28.24 397.69 28.24C394.32 28.24 392.4 26.07 392.4 22.83C392.4 19.42 394.54 17.28 397.76 17.28C400.71 17.28 402.65 19.08 402.65 22.05V23.47ZM394.38 21.82H400.68C400.62 19.95 399.53 19.05 397.75 19.05C395.77 19.05 394.63 20.15 394.38 21.82Z" fill="#131415"/>
<path d="M412.17 28.09L409.19 24.04L406.22 28.09H403.74L407.96 22.67L403.94 17.49H406.4L409.19 21.29L411.99 17.49H414.45L410.42 22.67L414.65 28.09H412.17Z" fill="#131415"/>
<path d="M418.4 17.49V19.24C418.94 18.23 419.95 17.29 421.86 17.29C423.68 17.29 424.66 18.17 425.16 19.68C425.72 18.42 426.87 17.29 429.07 17.29C431.56 17.29 432.94 18.75 432.94 20.98V28.08H430.97V21.8C430.97 20.07 430.14 19.11 428.57 19.11C426.71 19.11 425.67 20.49 425.67 22.19V28.08H423.69V21.8C423.69 20.08 422.88 19.11 421.32 19.11C419.45 19.11 418.4 20.5 418.4 22.19V28.08H416.42V17.48H418.4V17.49Z" fill="#131415"/>
<path d="M446.07 22.78C446.07 26.08 443.99 28.25 440.74 28.25C437.5 28.25 435.41 26.08 435.41 22.78C435.41 19.47 437.5 17.29 440.74 17.29C443.99 17.29 446.07 19.47 446.07 22.78ZM437.39 22.78C437.39 25.12 438.7 26.49 440.74 26.49C442.8 26.49 444.1 25.12 444.1 22.78C444.1 20.43 442.79 19.06 440.74 19.06C438.69 19.06 437.39 20.42 437.39 22.78Z" fill="#131415"/>
<path d="M455.58 15.73H453.32V13.44H455.58V15.73ZM455.44 28.09H453.46V17.49H455.44V28.09Z" fill="#131415"/>
<path d="M465.7 20.74C465.26 19.6 464.19 18.95 462.57 18.95C461.04 18.95 460.18 19.52 460.18 20.4C460.18 21.53 461.61 21.7 463.22 21.89C465.28 22.13 467.67 22.38 467.67 24.76C467.67 26.9 465.75 28.24 463.09 28.24C460.75 28.24 458.75 27.21 458.01 25.25L459.82 24.57C460.33 25.99 461.71 26.59 463.17 26.59C464.66 26.59 465.7 25.97 465.7 25.01C465.7 23.88 464.26 23.7 462.65 23.5C460.58 23.24 458.23 22.94 458.23 20.56C458.23 18.49 459.98 17.29 462.66 17.29C465.26 17.29 466.86 18.44 467.45 20.08L465.7 20.74Z" fill="#131415"/>
<path d="M477.03 17.49V19.28C477.61 18.24 478.65 17.29 480.72 17.29C483.32 17.29 484.81 18.78 484.81 21.13V28.08H482.84V21.9C482.84 20.12 481.96 19.12 480.25 19.12C478.16 19.12 477.03 20.6 477.03 22.35V28.09H475.05V17.49H477.03V17.49Z" fill="#131415"/>
<path d="M497.93 22.78C497.93 26.08 495.85 28.25 492.6 28.25C489.36 28.25 487.27 26.08 487.27 22.78C487.27 19.47 489.36 17.29 492.6 17.29C495.85 17.29 497.93 19.47 497.93 22.78ZM489.25 22.78C489.25 25.12 490.56 26.49 492.6 26.49C494.66 26.49 495.96 25.12 495.96 22.78C495.96 20.43 494.65 19.06 492.6 19.06C490.56 19.06 489.25 20.42 489.25 22.78Z" fill="#131415"/>
<path d="M515.76 17.49L512.1 28.09H510.1L507.41 20.31L504.72 28.09H502.72L499.06 17.49H501.15L503.72 25.88L506.39 17.49H508.43L511.1 25.88L513.67 17.49H515.76V17.49Z" fill="#131415"/>
<path d="M534.74 13.78L529.03 28.09H526.75L521.04 13.78H523.25L527.89 25.65L532.54 13.78H534.74Z" fill="#131415"/>
<path d="M546.16 22.78C546.16 26.08 544.08 28.25 540.83 28.25C537.59 28.25 535.5 26.08 535.5 22.78C535.5 19.47 537.59 17.29 540.83 17.29C544.09 17.29 546.16 19.47 546.16 22.78ZM537.48 22.78C537.48 25.12 538.79 26.49 540.83 26.49C542.89 26.49 544.19 25.12 544.19 22.78C544.19 20.43 542.88 19.06 540.83 19.06C538.79 19.06 537.48 20.42 537.48 22.78Z" fill="#131415"/>
<path d="M550.71 17.49V19.28C551.29 18.24 552.33 17.29 554.4 17.29C557 17.29 558.49 18.78 558.49 21.13V28.08H556.52V21.9C556.52 20.12 555.64 19.12 553.93 19.12C551.84 19.12 550.71 20.6 550.71 22.35V28.09H548.73V17.49H550.71V17.49Z" fill="#131415"/>
<path d="M570.64 20.72V28.08H568.69V26.4C567.85 27.64 566.46 28.25 564.72 28.25C562.31 28.25 560.95 27.07 560.95 25.08C560.95 22.31 563.58 22.13 565.79 21.93C567.48 21.78 568.67 21.64 568.67 20.55C568.67 19.64 567.82 19.05 566.26 19.05C564.59 19.05 563.48 19.72 562.97 20.94L561.15 20.32C561.86 18.45 563.64 17.3 566.27 17.3C569.08 17.29 570.64 18.61 570.64 20.72ZM568.68 23.82V22.92C567.84 23.22 566.84 23.34 565.92 23.44C564.26 23.61 562.93 23.69 562.93 25.03C562.93 26.12 563.79 26.5 565.07 26.5C567.09 26.49 568.68 25.52 568.68 23.82Z" fill="#131415"/>
<path d="M583.78 27.45C583.78 30.03 581.78 31.95 578.5 31.95C575.76 31.95 573.87 30.62 573.26 28.68L575.13 28.09C575.6 29.46 576.79 30.2 578.51 30.2C580.62 30.2 581.81 29.12 581.81 27.52V25.49C581.1 26.84 579.86 27.49 578.12 27.49C574.68 27.49 573.11 25.01 573.11 22.38C573.11 19.77 574.67 17.3 578.14 17.3C579.88 17.3 581.1 17.91 581.81 19.24V17.5H583.78V27.45V27.45ZM575.09 22.37C575.09 24.33 576.41 25.71 578.46 25.71C580.53 25.71 581.81 24.31 581.81 22.37C581.81 20.43 580.52 19.06 578.46 19.06C576.4 19.06 575.09 20.42 575.09 22.37Z" fill="#131415"/>
<path d="M596.49 23.47H588.21C588.32 25.2 589.51 26.49 591.63 26.49C593.26 26.49 594.19 25.74 594.76 24.86L596.32 25.78C595.34 27.21 593.85 28.24 591.53 28.24C588.16 28.24 586.24 26.07 586.24 22.83C586.24 19.42 588.38 17.28 591.6 17.28C594.55 17.28 596.49 19.08 596.49 22.05V23.47ZM588.22 21.82H594.52C594.46 19.95 593.37 19.05 591.59 19.05C589.6 19.05 588.47 20.15 588.22 21.82Z" fill="#131415"/>
</svg>
