<svg width="495" height="41" viewBox="0 0 495 41" fill="none" xmlns="http://www.w3.org/2000/svg">
<path d="M18.3 19.93L9.76001 0.99H0.850006L13.64 29.77C13.7 29.89 13.87 29.89 13.93 29.77L18.3 19.93Z" fill="#131415"/>
<path d="M36.92 0.99C36.92 0.99 25.36 27.08 23.91 30.27C20.45 37.9 17.89 39.81 15.28 40.22C15.26 40.22 15.24 40.24 15.24 40.27C15.24 40.3 15.26 40.32 15.29 40.32H23.45C27.04 40.32 29.5 37.9 32.97 30.27C34.18 27.6 45.99 0.99 45.99 0.99H36.92Z" fill="#131415"/>
<path d="M93.07 10.82C87.3 10.82 83.59 14.56 83.59 20.65C83.59 26.75 87.3 30.48 93.07 30.48C98.82 30.48 102.55 26.74 102.55 20.65C102.54 14.56 98.82 10.82 93.07 10.82ZM93.07 27.38C89.39 27.38 86.97 24.98 86.97 20.66C86.97 16.33 89.38 13.94 93.07 13.94C96.74 13.94 99.17 16.34 99.17 20.66C99.16 24.98 96.74 27.38 93.07 27.38Z" fill="#131415"/>
<path d="M122.11 11.26V30.06H118.21L108.91 16.29V30.06H105.58V11.26H109.5L118.8 25.13V11.26H122.11Z" fill="#131415"/>
<path d="M179.68 14.4V11.26H166.17V30.05H179.68V26.91H169.5V21.97H178.89V18.82H169.5V14.4H179.68Z" fill="#131415"/>
<path d="M79.41 11.26L72.67 26.05C72.64 26.13 72.53 26.13 72.49 26.05L65.75 11.26H61.94C61.94 11.26 68.53 25.8 69.04 26.92C70.08 29.21 70.94 30.27 72.57 30.27C74.2 30.27 75.06 29.21 76.1 26.92C76.61 25.79 83.2 11.26 83.2 11.26H79.41V11.26Z" fill="#131415"/>
<path d="M137.61 14.41C136.6 12.1 135.85 11.06 134.28 11.06C132.71 11.06 131.96 12.1 130.95 14.41C130.46 15.53 124.15 30.07 124.15 30.07H127.66L129.6 25.52H138.95L140.89 30.07H144.4C144.42 30.07 138.1 15.53 137.61 14.41ZM130.96 22.36L134.2 14.75C134.23 14.67 134.35 14.67 134.38 14.75L137.62 22.36H130.96Z" fill="#131415"/>
<path d="M153.62 19.86V22.71H159.26C159.01 25.24 156.59 27.35 153.73 27.35C150.35 27.35 147.89 24.88 147.89 20.8C147.89 16.55 150.16 13.94 154.03 13.94C156.34 13.94 158.24 15.04 158.87 16.96H162.32C161.57 13.12 158.16 10.84 154.03 10.84C148.14 10.84 144.51 14.69 144.51 20.88C144.51 26.88 148.49 30.5 153.44 30.5C157.7 30.5 159.31 28.02 159.77 27.23V30.07H162.72V19.87H153.62V19.86Z" fill="#131415"/>
<path d="M197.8 4.93H197.31V35.28H197.8V4.93Z" fill="#131415"/>
<path d="M217.65 14.26H220.17L226.22 28.65H224L222.4 24.8H215.41L213.81 28.65H211.58L217.65 14.26ZM221.6 22.83L218.92 16.35L216.24 22.83H221.6Z" fill="#131415"/>
<path d="M235.49 14.26C238.41 14.26 240.19 16.04 240.19 18.65C240.19 21.29 238.38 23.37 235.16 23.37H230.67V28.66H228.61V14.26H235.49ZM230.67 21.41H235.04C236.87 21.41 238.09 20.4 238.09 18.74C238.09 17.15 236.96 16.22 235.22 16.22H230.67V21.41Z" fill="#131415"/>
<path d="M244.92 14.26V28.65H242.86V14.26H244.92Z" fill="#131415"/>
<path d="M262.34 4.03H261.85V34.38H262.34V4.03Z" fill="#131415"/>
<path d="M286.79 13.42V27.81H284.43L276.71 16.51V27.81H274.65V13.42H277.01L284.74 24.77V13.42H286.79Z" fill="#131415"/>
<path d="M299.88 23.17H291.55C291.66 24.91 292.85 26.21 294.99 26.21C296.63 26.21 297.57 25.46 298.14 24.57L299.71 25.49C298.73 26.92 297.22 27.97 294.89 27.97C291.5 27.97 289.57 25.78 289.57 22.53C289.57 19.1 291.72 16.95 294.96 16.95C297.93 16.95 299.88 18.76 299.88 21.75V23.17ZM291.56 21.51H297.89C297.83 19.63 296.74 18.72 294.94 18.72C292.95 18.72 291.81 19.84 291.56 21.51Z" fill="#131415"/>
<path d="M309.45 27.82L306.45 23.75L303.46 27.82H300.96L305.21 22.37L301.17 17.16H303.65L306.46 20.98L309.28 17.16H311.76L307.71 22.37L311.97 27.82H309.45Z" fill="#131415"/>
<path d="M315.72 17.16V18.92C316.26 17.91 317.28 16.96 319.2 16.96C321.03 16.96 322.02 17.84 322.52 19.37C323.08 18.11 324.24 16.96 326.45 16.96C328.96 16.96 330.35 18.43 330.35 20.67V27.82H328.37V21.5C328.37 19.76 327.54 18.79 325.95 18.79C324.08 18.79 323.03 20.18 323.03 21.89V27.81H321.04V21.5C321.04 19.77 320.23 18.79 318.65 18.79C316.77 18.79 315.71 20.19 315.71 21.89V27.81H313.72V17.16H315.72Z" fill="#131415"/>
<path d="M343.55 22.48C343.55 25.8 341.46 27.98 338.19 27.98C334.93 27.98 332.83 25.8 332.83 22.48C332.83 19.15 334.93 16.96 338.19 16.96C341.46 16.96 343.55 19.14 343.55 22.48ZM334.82 22.48C334.82 24.84 336.13 26.21 338.19 26.21C340.26 26.21 341.57 24.83 341.57 22.48C341.57 20.11 340.25 18.74 338.19 18.74C336.13 18.73 334.82 20.11 334.82 22.48Z" fill="#131415"/>
<path d="M353.12 15.39H350.85V13.08H353.12V15.39ZM352.98 27.82H350.99V17.16H352.98V27.82Z" fill="#131415"/>
<path d="M363.3 20.43C362.86 19.29 361.78 18.63 360.15 18.63C358.61 18.63 357.74 19.2 357.74 20.09C357.74 21.22 359.18 21.39 360.8 21.59C362.87 21.83 365.28 22.08 365.28 24.48C365.28 26.63 363.35 27.98 360.67 27.98C358.31 27.98 356.3 26.95 355.56 24.97L357.38 24.29C357.89 25.72 359.28 26.32 360.75 26.32C362.25 26.32 363.3 25.7 363.3 24.73C363.3 23.6 361.85 23.42 360.23 23.21C358.15 22.95 355.78 22.65 355.78 20.25C355.78 18.17 357.54 16.96 360.24 16.96C362.86 16.96 364.47 18.11 365.06 19.77L363.3 20.43Z" fill="#131415"/>
<path d="M374.7 17.16V18.96C375.28 17.92 376.33 16.96 378.41 16.96C381.03 16.96 382.52 18.46 382.52 20.82V27.82H380.54V21.6C380.54 19.81 379.66 18.8 377.93 18.8C375.83 18.8 374.69 20.29 374.69 22.05V27.82H372.7V17.16H374.7Z" fill="#131415"/>
<path d="M395.72 22.48C395.72 25.8 393.63 27.98 390.36 27.98C387.1 27.98 385 25.8 385 22.48C385 19.15 387.1 16.96 390.36 16.96C393.63 16.96 395.72 19.14 395.72 22.48ZM386.99 22.48C386.99 24.84 388.31 26.21 390.36 26.21C392.43 26.21 393.74 24.83 393.74 22.48C393.74 20.11 392.43 18.74 390.36 18.74C388.3 18.73 386.99 20.11 386.99 22.48Z" fill="#131415"/>
<path d="M413.65 17.16L409.97 27.82H407.96L405.25 19.99L402.54 27.82H400.53L396.85 17.16H398.95L401.54 25.6L404.23 17.16H406.28L408.97 25.6L411.56 17.16H413.65V17.16Z" fill="#131415"/>
<path d="M432.75 13.42L427.01 27.81H424.72L418.98 13.42H421.2L425.87 25.36L430.55 13.42H432.75Z" fill="#131415"/>
<path d="M444.24 22.48C444.24 25.8 442.15 27.98 438.88 27.98C435.62 27.98 433.52 25.8 433.52 22.48C433.52 19.15 435.62 16.96 438.88 16.96C442.15 16.96 444.24 19.14 444.24 22.48ZM435.51 22.48C435.51 24.84 436.82 26.21 438.88 26.21C440.95 26.21 442.26 24.83 442.26 22.48C442.26 20.11 440.95 18.74 438.88 18.74C436.82 18.73 435.51 20.11 435.51 22.48Z" fill="#131415"/>
<path d="M448.81 17.16V18.96C449.39 17.92 450.44 16.96 452.52 16.96C455.14 16.96 456.64 18.46 456.64 20.82V27.82H454.66V21.6C454.66 19.81 453.78 18.8 452.05 18.8C449.95 18.8 448.81 20.29 448.81 22.05V27.82H446.82V17.16H448.81Z" fill="#131415"/>
<path d="M468.87 20.41V27.82H466.91V26.12C466.07 27.37 464.66 27.98 462.92 27.98C460.49 27.98 459.13 26.8 459.13 24.79C459.13 22 461.78 21.82 464 21.62C465.7 21.47 466.9 21.33 466.9 20.23C466.9 19.32 466.05 18.72 464.47 18.72C462.79 18.72 461.67 19.39 461.16 20.62L459.32 20C460.03 18.12 461.83 16.96 464.47 16.96C467.29 16.96 468.87 18.28 468.87 20.41ZM466.89 23.52V22.62C466.05 22.92 465.04 23.04 464.11 23.14C462.44 23.31 461.1 23.39 461.1 24.74C461.1 25.83 461.96 26.22 463.25 26.22C465.29 26.21 466.89 25.24 466.89 23.52Z" fill="#131415"/>
<path d="M482.08 27.17C482.08 29.77 480.07 31.7 476.77 31.7C474.01 31.7 472.11 30.37 471.5 28.41L473.38 27.82C473.85 29.2 475.05 29.94 476.78 29.94C478.9 29.94 480.1 28.86 480.1 27.24V25.2C479.39 26.56 478.14 27.21 476.39 27.21C472.93 27.21 471.35 24.71 471.35 22.07C471.35 19.44 472.92 16.96 476.41 16.96C478.16 16.96 479.39 17.57 480.1 18.91V17.16H482.08V27.17ZM473.34 22.06C473.34 24.03 474.67 25.42 476.73 25.42C478.81 25.42 480.1 24.01 480.1 22.06C480.1 20.11 478.81 18.73 476.73 18.73C474.65 18.73 473.34 20.11 473.34 22.06Z" fill="#131415"/>
<path d="M494.87 23.17H486.54C486.65 24.91 487.85 26.21 489.98 26.21C491.62 26.21 492.56 25.46 493.13 24.57L494.7 25.49C493.72 26.92 492.21 27.97 489.88 27.97C486.49 27.97 484.56 25.78 484.56 22.53C484.56 19.1 486.71 16.95 489.95 16.95C492.92 16.95 494.87 18.76 494.87 21.75V23.17ZM486.55 21.51H492.88C492.82 19.63 491.73 18.72 489.93 18.72C487.94 18.72 486.8 19.84 486.55 21.51Z" fill="#131415"/>
</svg>
