<svg width="235" height="59" viewBox="0 0 235 59" fill="none" xmlns="http://www.w3.org/2000/svg">
<path d="M19.04 20.28L10.21 0.690002H0.990005L14.21 30.45C14.27 30.58 14.45 30.58 14.51 30.45L19.04 20.28Z" fill="#ffffff"/>
<path d="M38.3 0.690002C38.3 0.690002 26.34 27.67 24.84 30.97C21.26 38.86 18.61 40.84 15.91 41.26C15.88 41.26 15.87 41.29 15.87 41.31C15.87 41.34 15.89 41.36 15.92 41.36H24.36C28.08 41.36 30.62 38.86 34.2 30.97C35.45 28.21 47.67 0.690002 47.67 0.690002H38.3V0.690002Z" fill="#ffffff"/>
<path d="M96.36 10.85C90.39 10.85 86.56 14.71 86.56 21.02C86.56 27.32 90.4 31.19 96.36 31.19C102.31 31.19 106.16 27.33 106.16 21.02C106.17 14.72 102.32 10.85 96.36 10.85ZM96.36 27.98C92.55 27.98 90.06 25.5 90.06 21.02C90.06 16.55 92.55 14.07 96.36 14.07C100.16 14.07 102.66 16.55 102.66 21.02C102.67 25.5 100.16 27.98 96.36 27.98Z" fill="#ffffff"/>
<path d="M126.4 11.3V30.74H122.36L112.74 16.49V30.74H109.3V11.3H113.35L122.97 25.64V11.3H126.4Z" fill="#ffffff"/>
<path d="M185.94 14.55V11.3H171.96V30.74H185.94V27.49H175.41V22.38H185.12V19.12H175.41V14.55H185.94Z" fill="#ffffff"/>
<path d="M82.24 11.3L75.27 26.6C75.23 26.68 75.12 26.68 75.08 26.6L68.11 11.3H64.17C64.17 11.3 70.99 26.33 71.52 27.5C72.59 29.87 73.48 30.96 75.17 30.96C76.86 30.96 77.75 29.87 78.82 27.5C79.35 26.33 86.17 11.3 86.17 11.3H82.24Z" fill="#ffffff"/>
<path d="M142.43 14.56C141.39 12.17 140.61 11.1 138.99 11.1C137.37 11.1 136.59 12.18 135.55 14.56C135.04 15.72 128.51 30.76 128.51 30.76H132.14L134.15 26.05H143.82L145.83 30.76H149.46C149.47 30.76 142.94 15.72 142.43 14.56ZM135.55 22.79L138.9 14.92C138.94 14.84 139.05 14.84 139.09 14.92L142.44 22.79H135.55Z" fill="#ffffff"/>
<path d="M158.99 20.19V23.14H164.82C164.56 25.75 162.06 27.94 159.1 27.94C155.6 27.94 153.06 25.38 153.06 21.16C153.06 16.77 155.41 14.07 159.41 14.07C161.8 14.07 163.77 15.21 164.42 17.19H168C167.23 13.22 163.69 10.86 159.43 10.86C153.34 10.86 149.58 14.85 149.58 21.24C149.58 27.45 153.69 31.19 158.82 31.19C163.22 31.19 164.9 28.63 165.36 27.81V30.74H168.41V20.19H158.99Z" fill="#ffffff"/>
<path d="M67.34 44.69H76.85V46.14H72.85V55.33H71.33V46.14H67.33V44.69H67.34Z" fill="#ffffff"/>
<path d="M85.13 51.37C85.13 53.82 83.59 55.43 81.17 55.43C78.76 55.43 77.21 53.82 77.21 51.37C77.21 48.91 78.76 47.29 81.17 47.29C83.59 47.3 85.13 48.91 85.13 51.37ZM78.68 51.37C78.68 53.11 79.65 54.13 81.17 54.13C82.7 54.13 83.67 53.11 83.67 51.37C83.67 49.62 82.7 48.6 81.17 48.6C79.65 48.61 78.68 49.62 78.68 51.37Z" fill="#ffffff"/>
<path d="M91.21 50.47L94.48 55.32H92.71L90.17 51.45L88.52 52.89V55.32H87.05V44.44H88.52V51.02L92.49 47.44H94.61L91.21 50.47Z" fill="#ffffff"/>
<path d="M100.85 44.69C103.04 44.69 104.17 45.68 104.17 47.29C104.17 48.42 103.61 49.35 102.53 49.72C103.77 50.01 104.45 50.94 104.45 52.22C104.45 54.04 103.09 55.33 100.99 55.33H96.22V44.69H100.85ZM97.74 49.14H100.69C101.94 49.14 102.65 48.57 102.65 47.6C102.65 46.54 101.8 46.13 100.83 46.13H97.74V49.14ZM97.74 53.87H100.91C102.16 53.87 102.92 53.17 102.92 52.1C102.92 51.02 102.13 50.42 100.9 50.42H97.74V53.87V53.87Z" fill="#ffffff"/>
<path d="M113.91 51.37C113.91 53.82 112.37 55.43 109.95 55.43C107.54 55.43 105.99 53.82 105.99 51.37C105.99 48.91 107.54 47.29 109.95 47.29C112.37 47.3 113.91 48.91 113.91 51.37ZM107.46 51.37C107.46 53.11 108.43 54.13 109.95 54.13C111.48 54.13 112.45 53.11 112.45 51.37C112.45 49.62 111.48 48.6 109.95 48.6C108.43 48.61 107.46 49.62 107.46 51.37Z" fill="#ffffff"/>
<path d="M120.99 55.32L118.77 52.31L116.56 55.32H114.71L117.85 51.29L114.86 47.44H116.69L118.77 50.27L120.85 47.44H122.68L119.68 51.29L122.82 55.32H120.99Z" fill="#ffffff"/>
<path d="M129.32 46.14H127.64V44.43H129.32V46.14ZM129.22 55.32H127.75V47.45H129.22V55.32Z" fill="#ffffff"/>
<path d="M136.84 49.86C136.51 49.01 135.72 48.53 134.51 48.53C133.38 48.53 132.73 48.95 132.73 49.61C132.73 50.45 133.79 50.57 134.99 50.71C136.52 50.89 138.3 51.07 138.3 52.85C138.3 54.44 136.88 55.44 134.9 55.44C133.16 55.44 131.67 54.68 131.13 53.22L132.47 52.72C132.85 53.77 133.87 54.22 134.96 54.22C136.06 54.22 136.84 53.76 136.84 53.05C136.84 52.21 135.77 52.08 134.57 51.93C133.04 51.74 131.28 51.51 131.28 49.74C131.28 48.2 132.58 47.31 134.57 47.31C136.51 47.31 137.69 48.16 138.13 49.39L136.84 49.86Z" fill="#ffffff"/>
<path d="M145.27 47.44V48.77C145.7 48 146.47 47.29 148.01 47.29C149.95 47.29 151.05 48.39 151.05 50.14V55.31H149.59V50.71C149.59 49.39 148.94 48.64 147.66 48.64C146.11 48.64 145.26 49.74 145.26 51.04V55.3H143.79V47.43H145.27V47.44Z" fill="#ffffff"/>
<path d="M160.8 51.37C160.8 53.82 159.26 55.43 156.84 55.43C154.43 55.43 152.88 53.82 152.88 51.37C152.88 48.91 154.43 47.29 156.84 47.29C159.26 47.3 160.8 48.91 160.8 51.37ZM154.35 51.37C154.35 53.11 155.32 54.13 156.84 54.13C158.37 54.13 159.34 53.11 159.34 51.37C159.34 49.62 158.37 48.6 156.84 48.6C155.32 48.61 154.35 49.62 154.35 51.37Z" fill="#ffffff"/>
<path d="M174.06 47.44L171.34 55.31H169.86L167.86 49.53L165.86 55.31H164.38L161.66 47.44H163.21L165.12 53.68L167.11 47.44H168.62L170.61 53.68L172.52 47.44H174.06Z" fill="#ffffff"/>
<path d="M188.17 44.69L183.93 55.32H182.24L178 44.69H179.64L183.09 53.51L186.55 44.69H188.17Z" fill="#ffffff"/>
<path d="M196.66 51.37C196.66 53.82 195.12 55.43 192.7 55.43C190.29 55.43 188.74 53.82 188.74 51.37C188.74 48.91 190.29 47.29 192.7 47.29C195.12 47.3 196.66 48.91 196.66 51.37ZM190.21 51.37C190.21 53.11 191.18 54.13 192.7 54.13C194.23 54.13 195.2 53.11 195.2 51.37C195.2 49.62 194.23 48.6 192.7 48.6C191.18 48.61 190.21 49.62 190.21 51.37Z" fill="#ffffff"/>
<path d="M200.05 47.44V48.77C200.48 48 201.25 47.29 202.79 47.29C204.73 47.29 205.83 48.39 205.83 50.14V55.31H204.37V50.71C204.37 49.39 203.72 48.64 202.44 48.64C200.89 48.64 200.04 49.74 200.04 51.04V55.3H198.57V47.43H200.05V47.44Z" fill="#ffffff"/>
<path d="M214.86 49.85V55.32H213.41V54.07C212.79 54.99 211.75 55.44 210.46 55.44C208.67 55.44 207.66 54.57 207.66 53.08C207.66 51.02 209.62 50.88 211.26 50.74C212.51 50.63 213.4 50.53 213.4 49.72C213.4 49.05 212.77 48.61 211.61 48.61C210.37 48.61 209.54 49.11 209.16 50.01L207.81 49.55C208.34 48.16 209.66 47.3 211.61 47.3C213.7 47.3 214.86 48.27 214.86 49.85ZM213.4 52.15V51.48C212.78 51.7 212.04 51.79 211.35 51.86C210.12 51.99 209.13 52.05 209.13 53.04C209.13 53.85 209.77 54.13 210.72 54.13C212.22 54.13 213.4 53.41 213.4 52.15Z" fill="#ffffff"/>
<path d="M224.63 54.84C224.63 56.76 223.15 58.18 220.71 58.18C218.67 58.18 217.27 57.19 216.82 55.75L218.21 55.31C218.56 56.33 219.44 56.87 220.72 56.87C222.28 56.87 223.17 56.07 223.17 54.88V53.37C222.64 54.37 221.72 54.85 220.43 54.85C217.87 54.85 216.71 53 216.71 51.05C216.71 49.11 217.87 47.28 220.45 47.28C221.74 47.28 222.65 47.73 223.18 48.72V47.43H224.64V54.84H224.63ZM218.17 51.07C218.17 52.52 219.15 53.55 220.68 53.55C222.21 53.55 223.17 52.51 223.17 51.07C223.17 49.62 222.21 48.61 220.68 48.61C219.15 48.61 218.17 49.62 218.17 51.07Z" fill="#ffffff"/>
<path d="M234.08 51.89H227.93C228.01 53.17 228.89 54.14 230.47 54.14C231.68 54.14 232.38 53.58 232.8 52.93L233.96 53.61C233.23 54.67 232.12 55.44 230.4 55.44C227.89 55.44 226.47 53.82 226.47 51.42C226.47 48.88 228.06 47.3 230.45 47.3C232.64 47.3 234.08 48.63 234.08 50.84V51.89V51.89ZM227.93 50.66H232.61C232.57 49.27 231.76 48.6 230.43 48.6C228.96 48.6 228.12 49.42 227.93 50.66Z" fill="#ffffff"/>
</svg>
