<svg width="589" height="41" viewBox="0 0 589 41" fill="none" xmlns="http://www.w3.org/2000/svg">
<path d="M18.15 19.95L9.46999 0.68H0.399994L13.4 29.95C13.46 30.08 13.64 30.08 13.69 29.95L18.15 19.95Z" fill="#131415"/>
<path d="M37.09 0.68C37.09 0.68 25.33 27.21 23.86 30.46C20.34 38.22 17.73 40.16 15.08 40.58C15.06 40.58 15.04 40.6 15.04 40.63C15.04 40.66 15.06 40.68 15.09 40.68H23.39C27.05 40.68 29.55 38.22 33.07 30.46C34.3 27.75 46.32 0.68 46.32 0.68H37.09Z" fill="#131415"/>
<path d="M94.2 10.68C88.33 10.68 84.56 14.48 84.56 20.68C84.56 26.88 88.33 30.68 94.2 30.68C100.05 30.68 103.84 26.88 103.84 20.68C103.84 14.48 100.05 10.68 94.2 10.68ZM94.2 27.52C90.45 27.52 88 25.08 88 20.68C88 16.28 90.45 13.84 94.2 13.84C97.93 13.84 100.4 16.28 100.4 20.68C100.4 25.08 97.93 27.52 94.2 27.52Z" fill="#131415"/>
<path d="M123.74 11.12V30.24H119.77L110.31 16.23V30.24H106.92V11.12H110.9L120.36 25.22V11.12H123.74Z" fill="#131415"/>
<path d="M182.3 14.32V11.12H168.55V30.24H182.3V27.04H171.94V22.02H181.49V18.82H171.94V14.32H182.3Z" fill="#131415"/>
<path d="M80.31 11.12L73.46 26.16C73.42 26.24 73.31 26.24 73.28 26.16L66.43 11.12H62.56C62.56 11.12 69.26 25.9 69.78 27.05C70.84 29.38 71.71 30.46 73.37 30.46C75.03 30.46 75.91 29.38 76.96 27.05C77.48 25.9 84.18 11.12 84.18 11.12H80.31V11.12Z" fill="#131415"/>
<path d="M139.51 14.33C138.49 11.98 137.72 10.92 136.13 10.92C134.54 10.92 133.77 11.98 132.75 14.33C132.25 15.47 125.83 30.26 125.83 30.26H129.4L131.38 25.63H140.89L142.87 30.26H146.44C146.43 30.26 140 15.47 139.51 14.33ZM132.74 22.42L136.03 14.68C136.06 14.6 136.18 14.6 136.21 14.68L139.5 22.42H132.74Z" fill="#131415"/>
<path d="M155.79 19.87V22.77H161.53C161.28 25.34 158.82 27.49 155.91 27.49C152.47 27.49 149.97 24.98 149.97 20.82C149.97 16.5 152.28 13.85 156.22 13.85C158.57 13.85 160.5 14.97 161.15 16.92H164.65C163.89 13.01 160.42 10.69 156.22 10.69C150.23 10.69 146.53 14.61 146.53 20.9C146.53 27.01 150.58 30.69 155.62 30.69C159.95 30.69 161.59 28.17 162.05 27.36V30.25H165.05V19.87H155.79Z" fill="#131415"/>
<path d="M200.72 4.68H200.22V35.55H200.72V4.68Z" fill="#131415"/>
<path d="M220.92 14.18H223.48L229.64 28.82H227.38L225.76 24.9H218.65L217.03 28.82H214.76L220.92 14.18ZM224.93 22.9L222.2 16.31L219.47 22.9H224.93Z" fill="#131415"/>
<path d="M239.06 14.18C242.03 14.18 243.84 15.99 243.84 18.64C243.84 21.32 242 23.44 238.73 23.44H234.17V28.82H232.08V14.18H239.06ZM234.16 21.45H238.6C240.46 21.45 241.7 20.42 241.7 18.73C241.7 17.12 240.55 16.17 238.78 16.17H234.16V21.45Z" fill="#131415"/>
<path d="M248.65 14.18V28.82H246.56V14.18H248.65Z" fill="#131415"/>
<path d="M266.13 18.5C265.8 16.72 264.47 15.73 262.22 15.73C260.27 15.73 258.91 16.48 258.91 18.01C258.91 19.86 260.9 20.17 263.01 20.51C265.59 20.92 268.48 21.36 268.48 24.55C268.48 27.45 266.1 29.15 262.86 29.15C259.53 29.15 256.94 27.35 256.46 24.4L258.58 24.02C258.94 26.15 260.63 27.27 262.94 27.27C265.02 27.27 266.36 26.36 266.36 24.86C266.36 23.04 264.4 22.71 262.25 22.34C259.66 21.9 256.79 21.42 256.79 18.22C256.79 15.27 259.22 13.85 262.34 13.85C265.71 13.85 267.73 15.51 268.15 18.06L266.13 18.5Z" fill="#131415"/>
<path d="M278.98 28.82V26.95C278.38 28.02 277.32 28.98 275.29 28.98C272.75 28.98 271.21 27.47 271.21 25.05V17.98H273.23V24.27C273.23 26.09 274.12 27.12 275.77 27.12C277.8 27.12 278.98 25.62 278.98 23.82V17.98H280.99V28.82H278.98Z" fill="#131415"/>
<path d="M286.34 17.98V19.84C287.08 18.53 288.25 17.78 290.14 17.78C293.62 17.78 295.23 20.33 295.23 23.29C295.23 26.23 293.64 28.82 290.12 28.82C288.23 28.82 287.09 28.07 286.34 26.75V32.77H284.32V17.98H286.34ZM293.21 23.29C293.21 21.04 291.9 19.58 289.77 19.58C287.64 19.58 286.34 21.04 286.34 23.29C286.34 25.54 287.66 27.03 289.77 27.03C291.9 27.02 293.21 25.53 293.21 23.29Z" fill="#131415"/>
<path d="M299.88 17.98V19.84C300.62 18.53 301.79 17.78 303.68 17.78C307.16 17.78 308.77 20.33 308.77 23.29C308.77 26.23 307.18 28.82 303.66 28.82C301.77 28.82 300.63 28.07 299.88 26.75V32.77H297.86V17.98H299.88ZM306.75 23.29C306.75 21.04 305.44 19.58 303.31 19.58C301.18 19.58 299.88 21.04 299.88 23.29C299.88 25.54 301.2 27.03 303.31 27.03C305.43 27.02 306.75 25.53 306.75 23.29Z" fill="#131415"/>
<path d="M321.58 23.39C321.58 26.77 319.46 28.98 316.13 28.98C312.81 28.98 310.68 26.76 310.68 23.39C310.68 20 312.81 17.77 316.13 17.77C319.46 17.77 321.58 20 321.58 23.39ZM312.7 23.39C312.7 25.79 314.04 27.19 316.13 27.19C318.23 27.19 319.57 25.79 319.57 23.39C319.57 20.98 318.23 19.58 316.13 19.58C314.04 19.58 312.7 20.98 312.7 23.39Z" fill="#131415"/>
<path d="M326.23 17.98V20.06C326.92 18.4 328.28 17.88 329.78 17.88C330.16 17.88 330.55 17.92 330.89 17.98L330.79 19.91C330.39 19.86 330.02 19.83 329.66 19.83C327.29 19.83 326.23 21.13 326.23 23.52V28.83H324.21V17.98H326.23Z" fill="#131415"/>
<path d="M339.28 19.83H336.14V25.46C336.14 26 336.14 27.2 338.01 27.2C338.43 27.2 338.91 27.14 339.42 27.03L339.61 28.71C338.85 28.89 338.11 29 337.42 29C334.93 29 334.12 27.78 334.12 25.84V19.85H331.86V18H334.12V15.27L336.14 14.72V18H339.28V19.83Z" fill="#131415"/>
<path d="M351.87 3.78H351.37V34.65H351.87V3.78Z" fill="#131415"/>
<path d="M376.74 13.33V27.97H374.34L366.49 16.48V27.97H364.4V13.33H366.8L374.66 24.88V13.33H376.74Z" fill="#131415"/>
<path d="M390.05 23.24H381.58C381.69 25.01 382.91 26.33 385.08 26.33C386.74 26.33 387.7 25.56 388.28 24.67L389.87 25.61C388.87 27.07 387.34 28.13 384.97 28.13C381.52 28.13 379.56 25.9 379.56 22.6C379.56 19.11 381.74 16.92 385.04 16.92C388.06 16.92 390.04 18.76 390.04 21.8V23.24H390.05ZM381.58 21.55H388.02C387.96 19.64 386.85 18.71 385.02 18.71C383 18.72 381.84 19.85 381.58 21.55Z" fill="#131415"/>
<path d="M399.78 27.97L396.73 23.83L393.69 27.97H391.15L395.47 22.43L391.36 17.13H393.88L396.74 21.02L399.61 17.13H402.13L398.01 22.43L402.34 27.97H399.78Z" fill="#131415"/>
<path d="M406.16 17.12V18.91C406.71 17.88 407.74 16.92 409.7 16.92C411.56 16.92 412.57 17.82 413.08 19.37C413.65 18.08 414.83 16.92 417.08 16.92C419.63 16.92 421.04 18.41 421.04 20.7V27.97H419.03V21.55C419.03 19.78 418.18 18.79 416.57 18.79C414.67 18.79 413.6 20.2 413.6 21.94V27.96H411.58V21.54C411.58 19.78 410.75 18.78 409.15 18.78C407.24 18.78 406.16 20.2 406.16 21.93V27.95H404.14V17.12H406.16Z" fill="#131415"/>
<path d="M434.47 22.53C434.47 25.91 432.35 28.12 429.02 28.12C425.7 28.12 423.57 25.9 423.57 22.53C423.57 19.14 425.7 16.91 429.02 16.91C432.34 16.92 434.47 19.15 434.47 22.53ZM425.59 22.53C425.59 24.93 426.93 26.33 429.02 26.33C431.12 26.33 432.46 24.93 432.46 22.53C432.46 20.12 431.12 18.72 429.02 18.72C426.92 18.73 425.59 20.13 425.59 22.53Z" fill="#131415"/>
<path d="M444.2 15.33H441.89V12.98H444.2V15.33ZM444.06 27.97H442.04V17.12H444.06V27.97Z" fill="#131415"/>
<path d="M454.55 20.45C454.1 19.29 453.01 18.62 451.34 18.62C449.78 18.62 448.89 19.2 448.89 20.1C448.89 21.25 450.35 21.43 452 21.62C454.1 21.86 456.55 22.12 456.55 24.56C456.55 26.74 454.59 28.12 451.86 28.12C449.46 28.12 447.42 27.07 446.66 25.06L448.51 24.37C449.03 25.82 450.44 26.43 451.94 26.43C453.46 26.43 454.53 25.8 454.53 24.82C454.53 23.67 453.06 23.48 451.41 23.28C449.3 23.01 446.89 22.71 446.89 20.27C446.89 18.16 448.68 16.92 451.42 16.92C454.08 16.92 455.72 18.09 456.32 19.78L454.55 20.45Z" fill="#131415"/>
<path d="M466.15 17.12V18.95C466.74 17.89 467.8 16.92 469.93 16.92C472.59 16.92 474.12 18.44 474.12 20.85V27.97H472.11V21.64C472.11 19.82 471.21 18.79 469.46 18.79C467.33 18.79 466.16 20.3 466.16 22.1V27.97H464.14V17.12H466.15Z" fill="#131415"/>
<path d="M487.53 22.53C487.53 25.91 485.41 28.12 482.08 28.12C478.76 28.12 476.63 25.9 476.63 22.53C476.63 19.14 478.76 16.91 482.08 16.91C485.41 16.92 487.53 19.15 487.53 22.53ZM478.65 22.53C478.65 24.93 479.99 26.33 482.08 26.33C484.18 26.33 485.52 24.93 485.52 22.53C485.52 20.12 484.18 18.72 482.08 18.72C479.99 18.73 478.65 20.13 478.65 22.53Z" fill="#131415"/>
<path d="M505.77 17.12L502.02 27.96H499.98L497.23 20L494.47 27.96H492.43L488.68 17.12H490.81L493.44 25.71L496.18 17.12H498.26L501 25.71L503.63 17.12H505.77Z" fill="#131415"/>
<path d="M525.2 13.33L519.36 27.97H517.03L511.19 13.33H513.45L518.2 25.48L522.96 13.33H525.2Z" fill="#131415"/>
<path d="M536.88 22.53C536.88 25.91 534.76 28.12 531.43 28.12C528.11 28.12 525.98 25.9 525.98 22.53C525.98 19.14 528.11 16.91 531.43 16.91C534.76 16.92 536.88 19.15 536.88 22.53ZM528 22.53C528 24.93 529.34 26.33 531.43 26.33C533.53 26.33 534.87 24.93 534.87 22.53C534.87 20.12 533.53 18.72 531.43 18.72C529.34 18.73 528 20.13 528 22.53Z" fill="#131415"/>
<path d="M541.53 17.12V18.95C542.12 17.89 543.18 16.92 545.31 16.92C547.97 16.92 549.5 18.44 549.5 20.85V27.97H547.49V21.64C547.49 19.82 546.59 18.79 544.84 18.79C542.71 18.79 541.54 20.3 541.54 22.1V27.97H539.52V17.12H541.53Z" fill="#131415"/>
<path d="M561.93 20.43V27.96H559.94V26.23C559.08 27.5 557.65 28.12 555.88 28.12C553.41 28.12 552.02 26.92 552.02 24.87C552.02 22.03 554.72 21.85 556.97 21.64C558.7 21.49 559.92 21.34 559.92 20.23C559.92 19.3 559.05 18.7 557.45 18.7C555.75 18.7 554.6 19.38 554.08 20.63L552.22 20C552.94 18.09 554.77 16.91 557.46 16.91C560.33 16.92 561.93 18.27 561.93 20.43ZM559.92 23.6V22.68C559.06 22.99 558.04 23.11 557.09 23.21C555.4 23.38 554.03 23.47 554.03 24.83C554.03 25.94 554.91 26.33 556.22 26.33C558.3 26.33 559.92 25.34 559.92 23.6Z" fill="#131415"/>
<path d="M575.37 27.31C575.37 29.95 573.33 31.91 569.97 31.91C567.16 31.91 565.23 30.55 564.61 28.56L566.52 27.96C567 29.36 568.21 30.11 569.98 30.11C572.13 30.11 573.36 29.01 573.36 27.36V25.3C572.64 26.68 571.37 27.34 569.58 27.34C566.06 27.34 564.46 24.8 564.46 22.11C564.46 19.44 566.05 16.91 569.6 16.91C571.38 16.91 572.63 17.53 573.36 18.89V17.11H575.37V27.31ZM566.48 22.12C566.48 24.12 567.83 25.54 569.93 25.54C572.04 25.54 573.36 24.11 573.36 22.12C573.36 20.13 572.04 18.73 569.93 18.73C567.82 18.73 566.48 20.13 566.48 22.12Z" fill="#131415"/>
<path d="M588.38 23.24H579.91C580.02 25.01 581.24 26.33 583.41 26.33C585.07 26.33 586.03 25.56 586.61 24.67L588.2 25.61C587.2 27.07 585.67 28.13 583.3 28.13C579.85 28.13 577.89 25.9 577.89 22.6C577.89 19.11 580.07 16.92 583.37 16.92C586.39 16.92 588.37 18.76 588.37 21.8V23.24H588.38ZM579.91 21.55H586.35C586.29 19.64 585.18 18.71 583.35 18.71C581.33 18.72 580.17 19.85 579.91 21.55Z" fill="#131415"/>
</svg>
