<svg width="1384" height="170" viewBox="0 0 1384 170" fill="none" xmlns="http://www.w3.org/2000/svg">
<g clip-path="url(#clip0)">
<path d="M61.78 82.28L31.91 16.01H0.719971L45.45 116.67C45.64 117.11 46.26 117.11 46.46 116.67L61.78 82.28Z" fill="#131415"/>
<path d="M126.91 16.01C126.91 16.01 86.4599 107.27 81.3999 118.43C69.3099 145.12 60.3299 151.8 51.2099 153.23C51.1299 153.24 51.0599 153.32 51.0599 153.4C51.0599 153.5 51.1399 153.57 51.2399 153.57H79.7999C92.3699 153.57 100.98 145.11 113.09 118.42C117.33 109.09 158.65 16 158.65 16H126.91V16.01Z" fill="#131415"/>
<path d="M323.31 50.41C303.13 50.41 290.16 63.48 290.16 84.8C290.16 106.12 303.14 119.19 323.31 119.19C343.44 119.19 356.46 106.12 356.46 84.8C356.47 63.48 343.45 50.41 323.31 50.41ZM323.31 108.32C310.42 108.32 301.99 99.93 301.99 84.79C301.99 69.66 310.43 61.27 323.31 61.27C336.15 61.27 344.63 69.66 344.63 84.79C344.64 99.93 336.15 108.32 323.31 108.32Z" fill="#131415"/>
<path d="M424.92 51.92V117.68H411.26L378.74 69.49V117.68H367.09V51.92H380.79L413.31 100.43V51.92H424.92Z" fill="#131415"/>
<path d="M626.3 62.93V51.92H579.02V117.68H626.3V106.67H590.67V89.38H623.52V78.38H590.67V62.93H626.3Z" fill="#131415"/>
<path d="M275.53 51.92L251.96 103.66C251.84 103.93 251.46 103.93 251.33 103.66L227.76 51.92H214.44C214.44 51.92 237.5 102.77 239.29 106.72C242.93 114.74 245.93 118.43 251.65 118.43C257.37 118.43 260.37 114.73 264.01 106.72C265.8 102.77 288.86 51.92 288.86 51.92H275.53Z" fill="#131415"/>
<path d="M479.14 62.94C475.62 54.87 472.98 51.23 467.5 51.23C462.02 51.23 459.38 54.88 455.86 62.94C454.15 66.86 432.06 117.74 432.06 117.74H444.35L451.15 101.82H483.86L490.66 117.74H502.95C502.94 117.74 480.85 66.86 479.14 62.94ZM455.86 90.77L467.19 64.15C467.31 63.87 467.7 63.87 467.82 64.15L479.15 90.77H455.86Z" fill="#131415"/>
<path d="M535.15 82V91.97H554.88C554.01 100.8 545.55 108.2 535.55 108.2C523.72 108.2 515.13 99.55 515.13 85.27C515.13 85.26 515.13 85.26 515.13 85.25C515.13 70.39 523.07 61.27 536.62 61.27C544.7 61.27 551.35 65.13 553.57 71.83H565.62C563.01 58.39 551.06 50.41 536.62 50.41C516.03 50.41 503.3 63.89 503.3 85.54C503.3 106.54 517.22 119.2 534.56 119.2C549.45 119.2 555.11 110.53 556.69 107.76V117.69H567V82H535.15Z" fill="#131415"/>
<path d="M724.55 0H722.84V169.19H724.55V0Z" fill="#131415"/>
<path d="M841.359 103.472V143.319H836.659L815.926 109.633V143.319H811.98V103.472H816.68L837.413 137.236V103.472H841.359Z" fill="#131415"/>
<path d="M875.37 129.905H854.109C854.244 135.988 857.246 140.328 863.34 140.328C867.837 140.328 870.569 137.967 871.874 134.74L875.011 136.235C873.065 140.632 869.231 143.768 863.149 143.768C854.593 143.768 850.343 137.686 850.343 128.927C850.343 119.539 855.29 113.647 863.43 113.647C870.603 113.647 875.382 118.257 875.382 126.397V129.905H875.37ZM854.165 126.656H871.503V126.105C871.503 120.022 868.253 117.099 863.306 117.099C857.64 117.088 854.615 121.147 854.165 126.656Z" fill="#131415"/>
<path d="M901.107 143.33L892.854 131.187L884.601 143.33H879.935L890.493 128.376L880.486 114.198H885.13L892.854 125.588L900.578 114.198H905.188L895.181 128.376L905.739 143.33H901.107Z" fill="#131415"/>
<path d="M916.06 114.198V119.618C917.702 115.784 920.816 113.647 925.314 113.647C930.013 113.647 932.869 116.009 933.904 120.483C935.568 116.177 938.873 113.647 944.079 113.647C950.386 113.647 953.782 117.346 953.782 123.542V143.33H949.97V125.206C949.97 119.977 947.632 117.2 943.213 117.2C938.019 117.2 934.927 121.091 934.927 126.566V143.319H931.093V125.194C931.093 120 928.867 117.189 924.425 117.189C919.197 117.189 916.06 121.057 916.06 126.555V143.308H912.249V114.187H916.06V114.198Z" fill="#131415"/>
<path d="M988.198 128.702C988.198 138.091 983.139 143.768 975.054 143.768C966.97 143.768 961.933 138.102 961.933 128.702C961.933 119.337 966.959 113.636 975.054 113.636C983.139 113.647 988.198 119.337 988.198 128.702ZM965.745 128.702C965.745 136.179 969.242 140.317 975.054 140.317C980.89 140.317 984.386 136.179 984.386 128.702C984.386 121.259 980.89 117.088 975.054 117.088C969.242 117.088 965.745 121.259 965.745 128.702Z" fill="#131415"/>
<path d="M1015.1 108.981H1010.74V103.371H1015.1V108.981ZM1014.82 143.33H1011.01V114.21H1014.82V143.33Z" fill="#131415"/>
<path d="M1042.31 122.282C1041.29 118.808 1038.7 116.919 1034.45 116.919C1030.09 116.919 1027.64 118.864 1027.64 121.866C1027.64 125.678 1031.59 126.341 1035.89 127.061C1040.84 127.87 1046.28 128.759 1046.28 134.819C1046.28 140.182 1042 143.768 1035.48 143.768C1029.51 143.768 1024.67 140.767 1023.28 135.291L1026.86 134.234C1027.94 138.597 1031.42 140.519 1035.53 140.519C1039.87 140.519 1042.5 138.405 1042.5 135.347C1042.5 131.569 1038.48 130.906 1034.16 130.119C1029.21 129.231 1023.85 128.23 1023.85 122.226C1023.85 116.807 1028.16 113.636 1034.58 113.636C1041 113.636 1044.58 116.773 1045.72 121.248L1042.31 122.282Z" fill="#131415"/>
<path d="M1072.91 114.198V119.73C1074.66 115.896 1077.85 113.647 1082.74 113.647C1089.22 113.647 1092.69 117.571 1092.69 123.766V143.33H1088.88V125.161C1088.88 120.135 1086.58 117.212 1081.88 117.212C1076.23 117.212 1072.91 121.405 1072.91 126.825V143.33H1069.09V114.21H1072.91V114.198Z" fill="#131415"/>
<path d="M1127.12 128.702C1127.12 138.091 1122.06 143.768 1113.98 143.768C1105.89 143.768 1100.86 138.102 1100.86 128.702C1100.86 119.337 1105.88 113.636 1113.98 113.636C1122.06 113.647 1127.12 119.337 1127.12 128.702ZM1104.67 128.702C1104.67 136.179 1108.17 140.317 1113.98 140.317C1119.81 140.317 1123.31 136.179 1123.31 128.702C1123.31 121.259 1119.81 117.088 1113.98 117.088C1108.17 117.088 1104.67 121.259 1104.67 128.702Z" fill="#131415"/>
<path d="M1171.95 114.198L1163.28 143.319H1159.28L1151.83 119.753L1144.39 143.319H1140.37L1131.7 114.198H1135.7L1142.46 138.731L1149.82 114.198H1153.85L1161.21 138.731L1167.97 114.198H1171.95Z" fill="#131415"/>
<path d="M1222.75 103.472L1208.1 143.319H1203.54L1188.93 103.472H1193.12L1205.85 138.518L1218.52 103.472H1222.75Z" fill="#131415"/>
<path d="M1252.45 128.702C1252.45 138.091 1247.39 143.768 1239.31 143.768C1231.22 143.768 1226.19 138.102 1226.19 128.702C1226.19 119.337 1231.21 113.636 1239.31 113.636C1247.39 113.647 1252.45 119.337 1252.45 128.702ZM1230 128.702C1230 136.179 1233.5 140.317 1239.31 140.317C1245.14 140.317 1248.64 136.179 1248.64 128.702C1248.64 121.259 1245.14 117.088 1239.31 117.088C1233.51 117.088 1230 121.259 1230 128.702Z" fill="#131415"/>
<path d="M1264.71 114.198V119.73C1266.46 115.896 1269.65 113.647 1274.55 113.647C1281.02 113.647 1284.5 117.571 1284.5 123.766V143.33H1280.68V125.161C1280.68 120.135 1278.38 117.212 1273.68 117.212C1268.04 117.212 1264.71 121.405 1264.71 126.825V143.33H1260.9V114.21H1264.71V114.198Z" fill="#131415"/>
<path d="M1316.54 122.485V143.33H1312.76V138.012C1310.34 142.318 1306.17 143.768 1302.04 143.768C1296.03 143.768 1292.67 140.632 1292.67 135.46C1292.67 128.286 1299.09 127.544 1304.51 126.847C1309.12 126.24 1312.74 125.678 1312.74 122.035C1312.74 119.089 1310.38 117.088 1305.73 117.088C1301.07 117.088 1298.07 119.145 1296.84 122.755L1293.2 121.675C1294.84 116.728 1299.17 113.647 1305.79 113.647C1312.54 113.647 1316.54 116.841 1316.54 122.485ZM1312.73 131.873V127.623C1310.81 128.927 1307.76 129.433 1304.7 129.872C1300.39 130.479 1296.47 130.985 1296.47 135.347C1296.47 138.821 1298.92 140.317 1302.75 140.317C1308.31 140.328 1312.73 137.214 1312.73 131.873Z" fill="#131415"/>
<path d="M1350.81 142.386C1350.81 149.278 1345.75 154 1337.95 154C1331.28 154 1326.71 150.526 1325.24 145.5L1328.88 144.477C1330.02 148.311 1333.19 150.56 1337.97 150.56C1343.61 150.56 1346.98 147.445 1346.98 142.476V135.134C1345.2 139.575 1341.56 141.362 1337.08 141.362C1328.91 141.362 1324.71 135.448 1324.71 127.466C1324.71 119.606 1328.83 113.659 1337.1 113.659C1341.44 113.659 1345.11 115.266 1346.96 119.775V114.221H1350.8V142.386H1350.81ZM1328.51 127.488C1328.51 133.773 1332.01 137.933 1337.74 137.933C1343.5 137.933 1346.98 133.762 1346.98 127.488C1346.98 121.237 1343.5 117.099 1337.74 117.099C1331.97 117.088 1328.51 121.259 1328.51 127.488Z" fill="#131415"/>
<path d="M1383.99 129.905H1362.73C1362.86 135.988 1365.86 140.328 1371.96 140.328C1376.46 140.328 1379.19 137.967 1380.49 134.74L1383.63 136.235C1381.68 140.632 1377.85 143.768 1371.77 143.768C1363.21 143.768 1358.96 137.686 1358.96 128.927C1358.96 119.539 1363.91 113.647 1372.05 113.647C1379.22 113.647 1384 118.257 1384 126.397V129.905H1383.99ZM1362.78 126.656H1380.12V126.105C1380.12 120.022 1376.87 117.099 1371.92 117.099C1366.26 117.088 1363.22 121.147 1362.78 126.656Z" fill="#131415"/>
<path d="M808.891 66H817.562L823.773 51H850.961L857.172 66H865.805L842.25 9.98438H832.445L808.891 66ZM826.938 43.3438L837.367 18.1094L847.797 43.3438H826.938ZM874.703 9.98438V66H882.711V45.4141H900.172C912.711 45.4141 919.742 37.3281 919.742 27.0547C919.742 16.8984 912.828 9.98438 901.461 9.98438H874.703ZM882.711 17.6016H900.406C907.164 17.6016 911.578 21.2344 911.578 27.4062C911.578 33.8516 906.812 37.7969 899.703 37.7969H882.711V17.6016ZM929.812 9.98438V66H937.82V9.98438H929.812ZM1018.82 25.7656C1016.36 14.8281 1007.1 8.69531 994.562 8.69531C977.375 8.69531 966.594 20.2969 966.594 38.3828C966.594 56.3906 977.297 67.2891 994.094 67.2891C1007.53 67.2891 1016.83 60.2969 1019.21 49.0469L1011.36 47.0156C1009.68 55.0625 1003.43 59.6719 994.328 59.6719C982.375 59.6719 974.758 51.625 974.758 38.1094C974.758 24.9453 981.984 16.3125 994.602 16.3125C1003 16.3125 1009.37 20.1016 1011.09 27.6016L1018.82 25.7656ZM1028.89 8.69531V66H1036.62V43.5391C1036.62 36.6641 1041.08 30.8828 1049.24 30.8828C1055.96 30.8828 1059.4 34.8281 1059.4 41.7812V66H1067.09V38.7734C1067.09 29.5547 1061.27 23.7344 1051.08 23.7344C1042.95 23.7344 1038.89 27.4453 1036.62 31.5078V8.69531H1028.89ZM1097.16 23.7344C1086.89 23.7344 1079.9 28.2656 1077.12 35.5703L1084.23 37.9922C1086.23 33.2266 1090.6 30.6094 1097.12 30.6094C1103.26 30.6094 1106.58 32.9141 1106.58 36.4688C1106.58 40.7266 1101.89 41.2734 1095.29 41.8594C1086.66 42.6406 1076.34 43.3438 1076.34 54.2031C1076.34 62.0156 1081.66 66.625 1091.11 66.625C1097.91 66.625 1103.38 64.2422 1106.66 59.3984V66H1114.27V37.1719C1114.27 28.8906 1108.14 23.7344 1097.16 23.7344ZM1092.4 59.75C1087.4 59.75 1084.04 58.2656 1084.04 54.0078C1084.04 48.7734 1089.27 48.4609 1095.76 47.7969C1099.39 47.4062 1103.3 46.9375 1106.58 45.7656V49.2812C1106.58 55.9609 1100.37 59.75 1092.4 59.75ZM1126.3 24.5156V66H1134.03V43.5391C1134.03 36.6641 1138.48 30.8828 1146.65 30.8828C1153.37 30.8828 1156.8 34.8281 1156.8 41.7812V66H1164.5V38.7734C1164.5 29.5547 1158.68 23.7344 1148.48 23.7344C1140.36 23.7344 1136.3 27.4453 1134.03 31.5078V24.5156H1126.3ZM1215.51 24.5156H1207.81V31.3125C1205.04 26.1172 1200.23 23.7344 1193.44 23.7344C1179.84 23.7344 1173.75 33.3828 1173.75 43.6172C1173.75 53.8906 1179.88 63.6172 1193.36 63.6172C1200.2 63.6172 1205.04 61.0781 1207.81 55.8047V63.7344C1207.81 70.0234 1203.12 74.2422 1194.88 74.2422C1188.12 74.2422 1183.48 71.3516 1181.64 66L1174.34 68.3047C1176.72 75.9219 1184.1 81.1172 1194.84 81.1172C1207.7 81.1172 1215.51 73.6172 1215.51 63.5V24.5156ZM1194.69 30.6484C1202.77 30.6484 1207.81 36 1207.81 43.6172C1207.81 51.2344 1202.77 56.7031 1194.69 56.7031C1186.64 56.7031 1181.48 51.2734 1181.48 43.6172C1181.48 36 1186.6 30.6484 1194.69 30.6484ZM1264.91 42.4062C1264.91 30.7656 1257.34 23.7344 1245.77 23.7344C1233.16 23.7344 1224.8 32.0938 1224.8 45.4531C1224.8 58.1094 1232.3 66.625 1245.5 66.625C1254.56 66.625 1260.42 62.5625 1264.25 56.9766L1258.16 53.3828C1255.93 56.8203 1252.26 59.75 1245.89 59.75C1237.57 59.75 1232.92 54.6719 1232.49 47.9141H1264.91V42.4062ZM1245.7 30.6094C1252.69 30.6094 1256.95 34.1641 1257.18 41.4688H1232.53C1233.51 34.9453 1237.96 30.6094 1245.7 30.6094ZM1274.59 8.69531V66H1282.33V8.69531H1274.59ZM1312.83 23.7344C1300.13 23.7344 1291.97 32.25 1291.97 45.2188C1291.97 58.1484 1300.13 66.625 1312.83 66.625C1325.56 66.625 1333.69 58.1484 1333.69 45.2188C1333.69 32.25 1325.56 23.7344 1312.83 23.7344ZM1312.83 30.6484C1320.88 30.6484 1325.99 36 1325.99 45.2188C1325.99 54.3984 1320.88 59.75 1312.83 59.75C1304.82 59.75 1299.7 54.3984 1299.7 45.2188C1299.7 36 1304.82 30.6484 1312.83 30.6484ZM1382.43 24.5156H1374.73V31.3125C1371.96 26.1172 1367.16 23.7344 1360.36 23.7344C1346.77 23.7344 1340.67 33.3828 1340.67 43.6172C1340.67 53.8906 1346.8 63.6172 1360.28 63.6172C1367.12 63.6172 1371.96 61.0781 1374.73 55.8047V63.7344C1374.73 70.0234 1370.05 74.2422 1361.8 74.2422C1355.05 74.2422 1350.4 71.3516 1348.56 66L1341.26 68.3047C1343.64 75.9219 1351.02 81.1172 1361.77 81.1172C1374.62 81.1172 1382.43 73.6172 1382.43 63.5V24.5156ZM1361.61 30.6484C1369.7 30.6484 1374.73 36 1374.73 43.6172C1374.73 51.2344 1369.7 56.7031 1361.61 56.7031C1353.56 56.7031 1348.41 51.2734 1348.41 43.6172C1348.41 36 1353.52 30.6484 1361.61 30.6484Z" fill="#131415"/>
</g>
<defs>
<clipPath id="clip0">
<rect width="1384" height="170" fill="white"/>
</clipPath>
</defs>
</svg>
