<svg width="433" height="40" viewBox="0 0 433 40" fill="none" xmlns="http://www.w3.org/2000/svg">
<path d="M17.65 19.61L9.15 0.73999H0.270004L13 29.41C13.06 29.53 13.23 29.53 13.29 29.41L17.65 19.61Z" fill="#131415"/>
<path d="M36.2 0.73999C36.2 0.73999 24.68 26.72 23.24 29.9C19.8 37.5 17.24 39.4 14.64 39.81C14.62 39.81 14.6 39.83 14.6 39.86C14.6 39.89 14.62 39.91 14.65 39.91H22.78C26.36 39.91 28.81 37.5 32.26 29.9C33.47 27.24 45.23 0.73999 45.23 0.73999H36.2V0.73999Z" fill="#131415"/>
<path d="M92.12 10.54C86.38 10.54 82.68 14.26 82.68 20.33C82.68 26.4 86.38 30.12 92.12 30.12C97.85 30.12 101.56 26.4 101.56 20.33C101.56 14.26 97.85 10.54 92.12 10.54ZM92.12 27.03C88.45 27.03 86.05 24.64 86.05 20.33C86.05 16.02 88.45 13.63 92.12 13.63C95.78 13.63 98.19 16.02 98.19 20.33C98.19 24.64 95.78 27.03 92.12 27.03Z" fill="#131415"/>
<path d="M121.05 10.97V29.69H117.16L107.9 15.97V29.69H104.58V10.97H108.48L117.74 24.78V10.97H121.05Z" fill="#131415"/>
<path d="M178.39 14.1V10.97H164.93V29.69H178.39V26.56H168.24V21.64H177.6V18.5H168.24V14.1H178.39Z" fill="#131415"/>
<path d="M78.52 10.97L71.81 25.7C71.78 25.78 71.67 25.78 71.63 25.7L64.92 10.97H61.13C61.13 10.97 67.7 25.45 68.2 26.57C69.23 28.85 70.09 29.91 71.72 29.91C73.35 29.91 74.2 28.86 75.24 26.57C75.75 25.45 82.31 10.97 82.31 10.97H78.52V10.97Z" fill="#131415"/>
<path d="M136.49 14.11C135.49 11.81 134.74 10.77 133.18 10.77C131.62 10.77 130.87 11.81 129.87 14.11C129.38 15.23 123.09 29.71 123.09 29.71H126.59L128.53 25.18H137.84L139.78 29.71H143.28C143.26 29.71 136.97 15.22 136.49 14.11ZM129.86 22.03L133.08 14.45C133.11 14.37 133.23 14.37 133.26 14.45L136.48 22.03H129.86Z" fill="#131415"/>
<path d="M152.44 19.53V22.37H158.06C157.81 24.89 155.4 26.99 152.56 26.99C149.19 26.99 146.75 24.53 146.75 20.46C146.75 16.23 149.01 13.63 152.87 13.63C155.17 13.63 157.07 14.73 157.7 16.64H161.13C160.39 12.81 156.98 10.54 152.87 10.54C147.01 10.54 143.38 14.38 143.38 20.54C143.38 26.52 147.34 30.12 152.28 30.12C156.52 30.12 158.13 27.65 158.58 26.86V29.69H161.52V19.53H152.44Z" fill="#131415"/>
<path d="M198.52 3.47998H198.03V33.78H198.52V3.47998Z" fill="#131415"/>
<path d="M224.36 13.16V27.53H222L214.29 16.25V27.53H212.24V13.16H214.59L222.31 24.49V13.16H224.36Z" fill="#131415"/>
<path d="M237.42 22.89H229.1C229.21 24.62 230.4 25.93 232.54 25.93C234.17 25.93 235.12 25.18 235.69 24.3L237.25 25.22C236.27 26.65 234.76 27.69 232.44 27.69C229.05 27.69 227.13 25.51 227.13 22.26C227.13 18.83 229.27 16.69 232.51 16.69C235.48 16.69 237.42 18.49 237.42 21.48V22.89ZM229.11 21.24H235.43C235.37 19.37 234.28 18.45 232.48 18.45C230.51 18.45 229.36 19.57 229.11 21.24Z" fill="#131415"/>
<path d="M246.98 27.53L243.98 23.46L240.99 27.53H238.49L242.73 22.09L238.69 16.89H241.17L243.98 20.71L246.8 16.89H249.27L245.22 22.09L249.47 27.53H246.98Z" fill="#131415"/>
<path d="M253.24 16.89V18.64C253.78 17.63 254.79 16.69 256.72 16.69C258.54 16.69 259.54 17.57 260.04 19.1C260.6 17.84 261.75 16.69 263.97 16.69C266.47 16.69 267.86 18.15 267.86 20.4V27.53H265.89V21.23C265.89 19.5 265.06 18.52 263.48 18.52C261.62 18.52 260.56 19.9 260.56 21.62V27.53H258.58V21.23C258.58 19.51 257.77 18.52 256.2 18.52C254.33 18.52 253.26 19.91 253.26 21.62V27.53H251.28V16.89H253.24Z" fill="#131415"/>
<path d="M281.02 22.2C281.02 25.52 278.94 27.69 275.67 27.69C272.41 27.69 270.32 25.52 270.32 22.2C270.32 18.87 272.41 16.69 275.67 16.69C278.94 16.69 281.02 18.88 281.02 22.2ZM272.3 22.2C272.3 24.55 273.61 25.93 275.67 25.93C277.73 25.93 279.05 24.56 279.05 22.2C279.05 19.84 277.74 18.46 275.67 18.46C273.61 18.46 272.3 19.84 272.3 22.2Z" fill="#131415"/>
<path d="M290.58 15.13H288.32V12.83H290.58V15.13ZM290.44 27.53H288.46V16.89H290.44V27.53Z" fill="#131415"/>
<path d="M300.74 20.16C300.3 19.02 299.23 18.37 297.59 18.37C296.06 18.37 295.18 18.94 295.18 19.82C295.18 20.95 296.61 21.12 298.24 21.31C300.3 21.55 302.71 21.8 302.71 24.2C302.71 26.34 300.79 27.7 298.11 27.7C295.76 27.7 293.75 26.67 293.01 24.69L294.82 24.01C295.33 25.43 296.71 26.03 298.19 26.03C299.68 26.03 300.74 25.41 300.74 24.45C300.74 23.32 299.3 23.14 297.67 22.94C295.6 22.68 293.23 22.38 293.23 19.98C293.23 17.91 294.98 16.69 297.68 16.69C300.3 16.69 301.9 17.84 302.49 19.5L300.74 20.16Z" fill="#131415"/>
<path d="M312.12 16.89V18.68C312.7 17.64 313.74 16.69 315.83 16.69C318.45 16.69 319.94 18.18 319.94 20.55V27.53H317.97V21.32C317.97 19.54 317.09 18.52 315.36 18.52C313.27 18.52 312.12 20 312.12 21.77V27.53H310.14V16.89H312.12Z" fill="#131415"/>
<path d="M333.11 22.2C333.11 25.52 331.03 27.69 327.76 27.69C324.5 27.69 322.41 25.52 322.41 22.2C322.41 18.87 324.5 16.69 327.76 16.69C331.02 16.69 333.11 18.88 333.11 22.2ZM324.39 22.2C324.39 24.55 325.7 25.93 327.76 25.93C329.82 25.93 331.14 24.56 331.14 22.2C331.14 19.84 329.83 18.46 327.76 18.46C325.7 18.46 324.39 19.84 324.39 22.2Z" fill="#131415"/>
<path d="M351.01 16.89L347.33 27.53H345.33L342.62 19.71L339.91 27.53H337.91L334.23 16.89H336.32L338.91 25.32L341.6 16.89H343.64L346.33 25.32L348.92 16.89H351.01Z" fill="#131415"/>
<path d="M370.07 13.16L364.34 27.53H362.06L356.33 13.16H358.54L363.2 25.08L367.87 13.16H370.07V13.16Z" fill="#131415"/>
<path d="M381.55 22.2C381.55 25.52 379.47 27.69 376.2 27.69C372.94 27.69 370.85 25.52 370.85 22.2C370.85 18.87 372.94 16.69 376.2 16.69C379.46 16.69 381.55 18.88 381.55 22.2ZM372.83 22.2C372.83 24.55 374.14 25.93 376.2 25.93C378.26 25.93 379.58 24.56 379.58 22.2C379.58 19.84 378.27 18.46 376.2 18.46C374.14 18.46 372.83 19.84 372.83 22.2Z" fill="#131415"/>
<path d="M386.11 16.89V18.68C386.69 17.64 387.73 16.69 389.82 16.69C392.44 16.69 393.93 18.18 393.93 20.55V27.53H391.96V21.32C391.96 19.54 391.08 18.52 389.35 18.52C387.26 18.52 386.11 20 386.11 21.77V27.53H384.13V16.89H386.11Z" fill="#131415"/>
<path d="M406.13 20.14V27.54H404.18V25.85C403.34 27.09 401.94 27.7 400.19 27.7C397.77 27.7 396.4 26.52 396.4 24.51C396.4 21.72 399.05 21.54 401.26 21.34C402.95 21.19 404.16 21.05 404.16 19.96C404.16 19.05 403.31 18.46 401.73 18.46C400.06 18.46 398.93 19.13 398.42 20.35L396.6 19.73C397.31 17.86 399.11 16.69 401.74 16.69C404.56 16.69 406.13 18.01 406.13 20.14ZM404.16 23.24V22.34C403.32 22.64 402.32 22.76 401.38 22.86C399.72 23.03 398.37 23.11 398.37 24.45C398.37 25.54 399.23 25.92 400.51 25.92C402.56 25.93 404.16 24.96 404.16 23.24Z" fill="#131415"/>
<path d="M419.32 26.89C419.32 29.49 417.32 31.41 414.02 31.41C411.26 31.41 409.37 30.08 408.76 28.12L410.63 27.53C411.1 28.9 412.29 29.64 414.03 29.64C416.14 29.64 417.35 28.56 417.35 26.94V24.91C416.64 26.26 415.4 26.91 413.64 26.91C410.18 26.91 408.61 24.41 408.61 21.78C408.61 19.15 410.17 16.68 413.66 16.68C415.4 16.68 416.64 17.29 417.35 18.62V16.88H419.32V26.89V26.89ZM410.6 21.79C410.6 23.75 411.92 25.15 413.99 25.15C416.06 25.15 417.36 23.75 417.36 21.79C417.36 19.83 416.07 18.46 413.99 18.46C411.91 18.46 410.6 19.84 410.6 21.79Z" fill="#131415"/>
<path d="M432.09 22.89H423.77C423.88 24.62 425.07 25.93 427.21 25.93C428.84 25.93 429.79 25.18 430.36 24.3L431.92 25.22C430.94 26.65 429.43 27.69 427.11 27.69C423.72 27.69 421.8 25.51 421.8 22.26C421.8 18.83 423.94 16.69 427.18 16.69C430.15 16.69 432.09 18.49 432.09 21.48V22.89ZM423.78 21.24H430.1C430.04 19.37 428.95 18.45 427.15 18.45C425.17 18.45 424.03 19.57 423.78 21.24Z" fill="#131415"/>
</svg>
