<svg width="559" height="40" viewBox="0 0 559 40" fill="none" xmlns="http://www.w3.org/2000/svg">
<path d="M18.05 19.5L9.56 0.669983H0.690002L13.4 29.28C13.45 29.4 13.63 29.4 13.69 29.28L18.05 19.5Z" fill="#ffffff"/>
<path d="M36.55 0.669983C36.55 0.669983 25.05 26.6 23.62 29.78C20.18 37.37 17.63 39.26 15.04 39.67C15.02 39.67 15 39.69 15 39.72C15 39.75 15.02 39.77 15.05 39.77H23.17C26.74 39.77 29.19 37.37 32.63 29.78C33.83 27.13 45.58 0.669983 45.58 0.669983H36.55Z" fill="#ffffff"/>
<path d="M92.37 10.45C86.64 10.45 82.95 14.16 82.95 20.22C82.95 26.28 86.64 29.99 92.37 29.99C98.09 29.99 101.79 26.28 101.79 20.22C101.79 14.16 98.09 10.45 92.37 10.45ZM92.37 26.91C88.71 26.91 86.31 24.53 86.31 20.22C86.31 15.91 88.71 13.53 92.37 13.53C96.02 13.53 98.43 15.91 98.43 20.22C98.43 24.53 96.02 26.91 92.37 26.91Z" fill="#ffffff"/>
<path d="M121.24 10.88V29.57H117.36L108.12 15.88V29.57H104.81V10.88H108.7L117.94 24.67V10.88H121.24Z" fill="#ffffff"/>
<path d="M178.47 14V10.88H165.04V29.56H178.47V26.44H168.35V21.52H177.68V18.4H168.35V14H178.47Z" fill="#ffffff"/>
<path d="M78.79 10.88L72.09 25.58C72.06 25.66 71.95 25.66 71.91 25.58L65.21 10.88H61.42C61.42 10.88 67.97 25.33 68.48 26.45C69.51 28.73 70.37 29.78 71.99 29.78C73.61 29.78 74.47 28.73 75.5 26.45C76.01 25.33 82.56 10.88 82.56 10.88H78.79Z" fill="#ffffff"/>
<path d="M136.65 14.01C135.65 11.72 134.9 10.68 133.34 10.68C131.78 10.68 131.03 11.72 130.03 14.01C129.54 15.12 123.27 29.58 123.27 29.58H126.76L128.69 25.06H137.99L139.92 29.58H143.41C143.41 29.58 137.14 15.12 136.65 14.01ZM130.03 21.92L133.25 14.36C133.28 14.28 133.4 14.28 133.43 14.36L136.65 21.92H130.03Z" fill="#ffffff"/>
<path d="M152.57 19.43V22.26H158.18C157.93 24.77 155.53 26.87 152.69 26.87C149.33 26.87 146.89 24.41 146.89 20.35C146.89 16.13 149.15 13.53 153 13.53C155.3 13.53 157.19 14.63 157.82 16.53H161.25C160.51 12.71 157.11 10.44 153.01 10.44C147.16 10.44 143.54 14.27 143.54 20.42C143.54 26.39 147.49 29.99 152.42 29.99C156.65 29.99 158.26 27.53 158.71 26.74V29.56H161.64V19.43H152.57Z" fill="#ffffff"/>
<path d="M196.48 4.58002H195.99V34.76H196.48V4.58002Z" fill="#ffffff"/>
<path d="M219.18 13.87C223.43 13.87 226.19 16.52 226.19 20.97C226.19 25.37 223.51 28.17 219.13 28.17H213.56V13.87H219.18ZM215.61 26.23H218.84C222.66 26.23 224.11 23.95 224.11 21.01C224.11 18.07 222.66 15.81 218.84 15.81H215.61V26.23Z" fill="#ffffff"/>
<path d="M238.5 23.55H230.22C230.33 25.28 231.52 26.57 233.64 26.57C235.27 26.57 236.2 25.82 236.77 24.94L238.33 25.86C237.35 27.29 235.86 28.32 233.54 28.32C230.17 28.32 228.25 26.15 228.25 22.91C228.25 19.5 230.39 17.36 233.61 17.36C236.56 17.36 238.5 19.16 238.5 22.13V23.55ZM230.23 21.91H236.53C236.47 20.04 235.38 19.14 233.6 19.14C231.62 19.13 230.48 20.24 230.23 21.91Z" fill="#ffffff"/>
<path d="M250.57 17.58L246.05 28.18H244.13L239.61 17.58H241.76L245.09 25.85L248.42 17.58H250.57Z" fill="#ffffff"/>
<path d="M261.95 23.55H253.67C253.78 25.28 254.97 26.57 257.09 26.57C258.72 26.57 259.65 25.82 260.22 24.94L261.78 25.86C260.8 27.29 259.31 28.32 256.99 28.32C253.62 28.32 251.7 26.15 251.7 22.91C251.7 19.5 253.84 17.36 257.06 17.36C260.01 17.36 261.95 19.16 261.95 22.13V23.55V23.55ZM253.67 21.91H259.97C259.91 20.04 258.82 19.14 257.04 19.14C255.06 19.13 253.92 20.24 253.67 21.91Z" fill="#ffffff"/>
<path d="M266.48 13.54V28.18H264.5V13.54H266.48Z" fill="#ffffff"/>
<path d="M279.7 22.87C279.7 26.17 277.62 28.34 274.37 28.34C271.13 28.34 269.04 26.17 269.04 22.87C269.04 19.56 271.13 17.38 274.37 17.38C277.63 17.38 279.7 19.55 279.7 22.87ZM271.02 22.87C271.02 25.21 272.33 26.58 274.37 26.58C276.43 26.58 277.73 25.21 277.73 22.87C277.73 20.52 276.42 19.15 274.37 19.15C272.33 19.14 271.02 20.51 271.02 22.87Z" fill="#ffffff"/>
<path d="M284.25 17.58V19.4C284.98 18.12 286.12 17.38 287.96 17.38C291.36 17.38 292.94 19.87 292.94 22.77C292.94 25.64 291.38 28.18 287.94 28.18C286.09 28.18 284.98 27.45 284.25 26.15V32.04H282.27V17.58H284.25ZM290.97 22.77C290.97 20.57 289.69 19.15 287.61 19.15C285.52 19.15 284.26 20.58 284.26 22.77C284.26 24.96 285.55 26.42 287.61 26.42C289.68 26.42 290.97 24.96 290.97 22.77Z" fill="#ffffff"/>
<path d="M305.05 23.55H296.77C296.88 25.28 298.07 26.57 300.19 26.57C301.82 26.57 302.75 25.82 303.32 24.94L304.88 25.86C303.9 27.29 302.41 28.32 300.09 28.32C296.72 28.32 294.8 26.15 294.8 22.91C294.8 19.5 296.94 17.36 300.16 17.36C303.11 17.36 305.05 19.16 305.05 22.13V23.55ZM296.78 21.91H303.08C303.02 20.04 301.93 19.14 300.15 19.14C298.17 19.13 297.03 20.24 296.78 21.91Z" fill="#ffffff"/>
<path d="M309.59 17.58V19.62C310.27 17.99 311.6 17.48 313.06 17.48C313.43 17.48 313.81 17.52 314.15 17.58L314.05 19.47C313.66 19.42 313.3 19.39 312.94 19.39C310.62 19.39 309.59 20.66 309.59 22.99V28.18H307.61V17.58H309.59Z" fill="#ffffff"/>
<path d="M326.94 3.70001H326.45V33.88H326.94V3.70001Z" fill="#ffffff"/>
<path d="M351.24 13.78V28.09H348.9L341.23 16.86V28.09H339.18V13.78H341.52L349.2 25.06V13.78H351.24Z" fill="#ffffff"/>
<path d="M364.25 23.47H355.97C356.08 25.2 357.27 26.49 359.39 26.49C361.02 26.49 361.95 25.74 362.52 24.86L364.08 25.78C363.1 27.21 361.61 28.24 359.29 28.24C355.92 28.24 354 26.07 354 22.83C354 19.42 356.14 17.28 359.36 17.28C362.31 17.28 364.25 19.08 364.25 22.05V23.47ZM355.98 21.82H362.28C362.22 19.95 361.13 19.05 359.35 19.05C357.37 19.05 356.23 20.15 355.98 21.82Z" fill="#ffffff"/>
<path d="M373.77 28.09L370.79 24.04L367.82 28.09H365.34L369.56 22.67L365.54 17.49H368L370.79 21.29L373.59 17.49H376.05L372.02 22.67L376.25 28.09H373.77Z" fill="#ffffff"/>
<path d="M380 17.49V19.24C380.54 18.23 381.55 17.29 383.46 17.29C385.28 17.29 386.26 18.17 386.76 19.68C387.32 18.42 388.47 17.29 390.67 17.29C393.16 17.29 394.54 18.75 394.54 20.98V28.08H392.57V21.8C392.57 20.07 391.74 19.11 390.17 19.11C388.31 19.11 387.27 20.49 387.27 22.19V28.08H385.29V21.8C385.29 20.08 384.48 19.11 382.92 19.11C381.05 19.11 380 20.5 380 22.19V28.08H378.02V17.48H380V17.49Z" fill="#ffffff"/>
<path d="M407.67 22.78C407.67 26.08 405.59 28.25 402.34 28.25C399.1 28.25 397.01 26.08 397.01 22.78C397.01 19.47 399.1 17.29 402.34 17.29C405.59 17.29 407.67 19.47 407.67 22.78ZM398.99 22.78C398.99 25.12 400.3 26.49 402.34 26.49C404.4 26.49 405.7 25.12 405.7 22.78C405.7 20.43 404.39 19.06 402.34 19.06C400.29 19.06 398.99 20.42 398.99 22.78Z" fill="#ffffff"/>
<path d="M417.18 15.73H414.92V13.44H417.18V15.73ZM417.04 28.09H415.06V17.49H417.04V28.09Z" fill="#ffffff"/>
<path d="M427.3 20.74C426.86 19.6 425.79 18.95 424.17 18.95C422.64 18.95 421.78 19.52 421.78 20.4C421.78 21.53 423.21 21.7 424.82 21.89C426.88 22.13 429.27 22.38 429.27 24.76C429.27 26.9 427.35 28.24 424.69 28.24C422.35 28.24 420.35 27.21 419.61 25.25L421.42 24.57C421.93 25.99 423.31 26.59 424.77 26.59C426.26 26.59 427.3 25.97 427.3 25.01C427.3 23.88 425.86 23.7 424.25 23.5C422.18 23.24 419.83 22.94 419.83 20.56C419.83 18.49 421.58 17.29 424.26 17.29C426.86 17.29 428.46 18.44 429.05 20.08L427.3 20.74Z" fill="#ffffff"/>
<path d="M438.63 17.49V19.28C439.21 18.24 440.25 17.29 442.32 17.29C444.92 17.29 446.41 18.78 446.41 21.13V28.08H444.44V21.9C444.44 20.12 443.56 19.12 441.85 19.12C439.76 19.12 438.63 20.6 438.63 22.35V28.09H436.65V17.49C436.65 17.49 438.63 17.49 438.63 17.49Z" fill="#ffffff"/>
<path d="M459.53 22.78C459.53 26.08 457.45 28.25 454.2 28.25C450.96 28.25 448.87 26.08 448.87 22.78C448.87 19.47 450.96 17.29 454.2 17.29C457.45 17.29 459.53 19.47 459.53 22.78ZM450.85 22.78C450.85 25.12 452.16 26.49 454.2 26.49C456.26 26.49 457.56 25.12 457.56 22.78C457.56 20.43 456.25 19.06 454.2 19.06C452.16 19.06 450.85 20.42 450.85 22.78Z" fill="#ffffff"/>
<path d="M477.36 17.49L473.7 28.09H471.7L469.01 20.31L466.32 28.09H464.32L460.66 17.49H462.75L465.32 25.88L467.99 17.49H470.03L472.7 25.88L475.27 17.49C475.27 17.49 477.36 17.49 477.36 17.49Z" fill="#ffffff"/>
<path d="M496.34 13.78L490.63 28.09H488.35L482.64 13.78H484.85L489.49 25.65L494.14 13.78H496.34Z" fill="#ffffff"/>
<path d="M507.76 22.78C507.76 26.08 505.68 28.25 502.43 28.25C499.19 28.25 497.1 26.08 497.1 22.78C497.1 19.47 499.19 17.29 502.43 17.29C505.69 17.29 507.76 19.47 507.76 22.78ZM499.08 22.78C499.08 25.12 500.39 26.49 502.43 26.49C504.49 26.49 505.79 25.12 505.79 22.78C505.79 20.43 504.48 19.06 502.43 19.06C500.39 19.06 499.08 20.42 499.08 22.78Z" fill="#ffffff"/>
<path d="M512.31 17.49V19.28C512.89 18.24 513.93 17.29 516 17.29C518.6 17.29 520.09 18.78 520.09 21.13V28.08H518.12V21.9C518.12 20.12 517.24 19.12 515.53 19.12C513.44 19.12 512.31 20.6 512.31 22.35V28.09H510.33V17.49C510.33 17.49 512.31 17.49 512.31 17.49Z" fill="#ffffff"/>
<path d="M532.24 20.72V28.08H530.29V26.4C529.45 27.64 528.06 28.25 526.32 28.25C523.91 28.25 522.55 27.07 522.55 25.08C522.55 22.31 525.18 22.13 527.39 21.93C529.08 21.78 530.27 21.64 530.27 20.55C530.27 19.64 529.42 19.05 527.86 19.05C526.19 19.05 525.08 19.72 524.57 20.94L522.75 20.32C523.46 18.45 525.24 17.3 527.87 17.3C530.68 17.29 532.24 18.61 532.24 20.72ZM530.28 23.82V22.92C529.44 23.22 528.44 23.34 527.52 23.44C525.86 23.61 524.53 23.69 524.53 25.03C524.53 26.12 525.39 26.5 526.67 26.5C528.69 26.49 530.28 25.52 530.28 23.82Z" fill="#ffffff"/>
<path d="M545.38 27.45C545.38 30.03 543.38 31.95 540.1 31.95C537.36 31.95 535.47 30.62 534.86 28.68L536.73 28.09C537.2 29.46 538.39 30.2 540.11 30.2C542.22 30.2 543.41 29.12 543.41 27.52V25.49C542.7 26.84 541.46 27.49 539.72 27.49C536.28 27.49 534.71 25.01 534.71 22.38C534.71 19.77 536.27 17.3 539.74 17.3C541.48 17.3 542.7 17.91 543.41 19.24V17.5H545.38V27.45V27.45ZM536.69 22.37C536.69 24.33 538.01 25.71 540.06 25.71C542.13 25.71 543.41 24.31 543.41 22.37C543.41 20.43 542.12 19.06 540.06 19.06C538 19.06 536.69 20.42 536.69 22.37Z" fill="#ffffff"/>
<path d="M558.09 23.47H549.81C549.92 25.2 551.11 26.49 553.23 26.49C554.86 26.49 555.79 25.74 556.36 24.86L557.92 25.78C556.94 27.21 555.45 28.24 553.13 28.24C549.76 28.24 547.84 26.07 547.84 22.83C547.84 19.42 549.98 17.28 553.2 17.28C556.15 17.28 558.09 19.08 558.09 22.05V23.47ZM549.82 21.82H556.12C556.06 19.95 554.97 19.05 553.19 19.05C551.2 19.05 550.07 20.15 549.82 21.82Z" fill="#ffffff"/>
</svg>
