<svg width="602" height="41" viewBox="0 0 602 41" fill="none" xmlns="http://www.w3.org/2000/svg">
<path d="M18.4 19.9L9.7 0.600006H0.699997L13.7 29.8C13.8 29.9 13.9 29.9 14 29.8L18.4 19.9Z" fill="#ffffff"/>
<path d="M37.3 0.6C37.3 0.6 25.6 27.1 24.1 30.3C20.6 38.1 18 40 15.3 40.4C15.3 40.4 15.3 40.4 15.4 40.4H23.7C27.3 40.4 29.8 37.9 33.4 30.2C34.6 27.5 46.6 0.5 46.6 0.5L37.3 0.6Z" fill="#ffffff"/>
<path d="M94.2 10.6C88.3 10.6 84.6 14.4 84.6 20.6C84.6 26.8 88.4 30.6 94.2 30.6C100 30.6 103.8 26.8 103.8 20.6C103.8 14.4 100.1 10.6 94.2 10.6ZM94.2 27.4C90.5 27.4 88 25 88 20.6C88 16.2 90.4 13.8 94.2 13.8C97.9 13.8 100.4 16.2 100.4 20.6C100.4 25 98 27.4 94.2 27.4Z" fill="#ffffff"/>
<path d="M123.7 11.1V30.2H119.7L110.3 16.2V30.2H107V11.1H111L120.4 25.2V11.1H123.7Z" fill="#ffffff"/>
<path d="M182.2 14.2V11.1H168.4V30.1H182.2V26.9H171.8V21.9H181.4V18.7H171.8V14.2H182.2Z" fill="#ffffff"/>
<path d="M80.4 11.1L73.6 26.1C73.6 26.2 73.4 26.2 73.4 26.1L66.6 11.1H62.7C62.7 11.1 69.4 25.9 69.9 27C71 29.3 71.8 30.4 73.5 30.4C75.2 30.4 76 29.3 77.1 27C77.6 25.9 84.3 11.1 84.3 11.1H80.4Z" fill="#ffffff"/>
<path d="M139.5 14.2C138.5 11.9 137.7 10.8 136.1 10.8C134.5 10.8 133.7 11.9 132.7 14.2C132.2 15.3 125.8 30.1 125.8 30.1H129.4L131.4 25.5H140.9L142.9 30.1H146.5C146.4 30.2 140 15.4 139.5 14.2ZM132.7 22.3L136 14.6C136 14.5 136.1 14.5 136.2 14.6L139.5 22.3H132.7Z" fill="#ffffff"/>
<path d="M155.7 19.8V22.7H161.4C161.2 25.3 158.7 27.4 155.8 27.4C152.4 27.4 149.9 24.9 149.9 20.8C149.9 16.5 152.2 13.8 156.1 13.8C158.4 13.8 160.4 14.9 161 16.9H164.5C163.7 13 160.3 10.7 156.1 10.7C150.1 10.7 146.4 14.6 146.4 20.9C146.4 27 150.4 30.7 155.5 30.7C159.8 30.7 161.5 28.2 161.9 27.4V30.3H164.9V19.8H155.7Z" fill="#ffffff"/>
<path d="M232.1 11.3L225.4 28H222.8L216.2 11.4H218.8L224.2 25.2L229.6 11.4C229.5 11.3 232.1 11.3 232.1 11.3Z" fill="#ffffff"/>
<path d="M237.1 13.6H234.5V10.9H237.1V13.6ZM236.9 28H234.6V15.6H236.9V28Z" fill="#ffffff"/>
<path d="M250 28V25.8C249.1 27.5 247.7 28.2 245.7 28.2C241.7 28.2 239.9 25.2 239.9 21.8C239.9 18.3 241.7 15.4 245.7 15.4C247.7 15.4 249.2 16.1 250 17.7V10.9H252.3V27.9H250V28ZM250 21.8C250 19.1 248.5 17.5 246.1 17.5C243.7 17.5 242.2 19.1 242.2 21.8C242.2 24.4 243.7 26.1 246.1 26.1C248.5 26.1 250 24.4 250 21.8Z" fill="#ffffff"/>
<path d="M267.2 22.6H257.6C257.7 24.6 259.1 26.1 261.6 26.1C263.5 26.1 264.6 25.2 265.2 24.2L267 25.3C265.9 27 264.1 28.2 261.4 28.2C257.5 28.2 255.3 25.7 255.3 21.9C255.3 17.9 257.8 15.4 261.5 15.4C264.9 15.4 267.2 17.5 267.2 20.9V22.6ZM257.6 20.7H264.9C264.8 18.5 263.6 17.5 261.5 17.5C259.2 17.4 257.9 18.7 257.6 20.7Z" fill="#ffffff"/>
<path d="M281.8 21.8C281.8 25.6 279.4 28.2 275.6 28.2C271.8 28.2 269.4 25.7 269.4 21.8C269.4 17.9 271.8 15.4 275.6 15.4C279.3 15.4 281.8 17.9 281.8 21.8ZM271.7 21.8C271.7 24.5 273.2 26.1 275.6 26.1C278 26.1 279.5 24.5 279.5 21.8C279.5 19.1 278 17.5 275.6 17.5C273.2 17.5 271.7 19 271.7 21.8Z" fill="#ffffff"/>
<path d="M295.7 11.3H298.6L305.6 27.9H303L301.1 23.4H293L291.1 27.9H288.5L295.7 11.3ZM300.3 21.2L297.2 13.7L294.1 21.2H300.3Z" fill="#ffffff"/>
<path d="M316.4 11.3C319.8 11.3 321.8 13.4 321.8 16.4C321.8 19.4 319.7 21.9 316 21.9H310.8V28H308.4V11.3H316.4ZM310.8 19.6H315.8C317.9 19.6 319.3 18.4 319.3 16.5C319.3 14.7 318 13.6 316 13.6H310.7L310.8 19.6Z" fill="#ffffff"/>
<path d="M327.3 11.3V28H324.9V11.3H327.3Z" fill="#ffffff"/>
<path d="M202.7 3.39999H202.2V34.3H202.7V3.39999Z" fill="#ffffff"/>
<path d="M355 12.3H369.1V14.4H363.2V28H361V14.4H355V12.3Z" fill="#ffffff"/>
<path d="M381.3 22.2C381.3 25.8 379 28.2 375.5 28.2C371.9 28.2 369.7 25.8 369.7 22.2C369.7 18.6 372 16.2 375.5 16.2C379 16.1 381.3 18.5 381.3 22.2ZM371.8 22.2C371.8 24.8 373.2 26.3 375.5 26.3C377.8 26.3 379.2 24.8 379.2 22.2C379.2 19.6 377.8 18.1 375.5 18.1C373.2 18.1 371.8 19.6 371.8 22.2Z" fill="#ffffff"/>
<path d="M390.3 20.8L395.1 28H392.5L388.8 22.3L386.4 24.4V28H384.2V11.9H386.4V21.6L392.3 16.3H395.4L390.3 20.8Z" fill="#ffffff"/>
<path d="M404.5 12.3C407.7 12.3 409.4 13.8 409.4 16.1C409.4 17.8 408.6 19.1 407 19.7C408.8 20.1 409.8 21.5 409.8 23.4C409.8 26.1 407.8 28 404.7 28H397.7V12.3H404.5ZM399.9 18.9H404.3C406.1 18.9 407.2 18.1 407.2 16.6C407.2 15 406 14.4 404.5 14.4H399.9V18.9V18.9ZM399.9 25.9H404.6C406.5 25.9 407.6 24.9 407.6 23.3C407.6 21.7 406.4 20.8 404.6 20.8H399.9V25.9Z" fill="#ffffff"/>
<path d="M423.8 22.2C423.8 25.8 421.5 28.2 418 28.2C414.4 28.2 412.2 25.8 412.2 22.2C412.2 18.6 414.5 16.2 418 16.2C421.5 16.1 423.8 18.5 423.8 22.2ZM414.3 22.2C414.3 24.8 415.7 26.3 418 26.3C420.3 26.3 421.7 24.8 421.7 22.2C421.7 19.6 420.3 18.1 418 18.1C415.7 18.1 414.3 19.6 414.3 22.2Z" fill="#ffffff"/>
<path d="M434.3 28L431 23.5L427.7 28H425L429.6 22L425.2 16.3H427.9L431 20.5L434.1 16.3H436.8L432.4 22L437 28H434.3Z" fill="#ffffff"/>
<path d="M446.6 14.4H444.1V11.9H446.6V14.4ZM446.4 28H444.2V16.4H446.4V28Z" fill="#ffffff"/>
<path d="M457.7 19.9C457.2 18.7 456 17.9 454.3 17.9C452.6 17.9 451.7 18.5 451.7 19.5C451.7 20.7 453.3 20.9 455 21.1C457.3 21.4 459.9 21.6 459.9 24.3C459.9 26.6 457.8 28.1 454.9 28.1C452.3 28.1 450.1 27 449.3 24.8L451.3 24.1C451.9 25.7 453.4 26.3 455 26.3C456.6 26.3 457.8 25.6 457.8 24.6C457.8 23.4 456.2 23.2 454.4 22.9C452.1 22.6 449.5 22.3 449.5 19.7C449.5 17.4 451.4 16.1 454.4 16.1C457.3 16.1 459 17.4 459.7 19.2L457.7 19.9Z" fill="#ffffff"/>
<path d="M470.1 16.4V18.4C470.7 17.3 471.9 16.2 474.2 16.2C477.1 16.2 478.7 17.8 478.7 20.4V28H476.5V21.2C476.5 19.2 475.5 18.1 473.6 18.1C471.3 18.1 470.1 19.7 470.1 21.7V28H468V16.4H470.1Z" fill="#ffffff"/>
<path d="M493.1 22.2C493.1 25.8 490.8 28.2 487.3 28.2C483.7 28.2 481.5 25.8 481.5 22.2C481.5 18.6 483.8 16.2 487.3 16.2C490.8 16.1 493.1 18.5 493.1 22.2ZM483.6 22.2C483.6 24.8 485 26.3 487.3 26.3C489.6 26.3 491 24.8 491 22.2C491 19.6 489.6 18.1 487.3 18.1C485 18.1 483.6 19.6 483.6 22.2Z" fill="#ffffff"/>
<path d="M512.7 16.4L508.7 28H506.5L503.5 19.4L500.5 28H498.3L494.3 16.4H496.6L499.4 25.6L502.3 16.4H504.5L507.4 25.6L510.2 16.4H512.7Z" fill="#ffffff"/>
<path d="M533.5 12.3L527.3 28H524.8L518.5 12.3H520.9L526 25.3L531.1 12.3H533.5Z" fill="#ffffff"/>
<path d="M546.1 22.2C546.1 25.8 543.8 28.2 540.3 28.2C536.7 28.2 534.5 25.8 534.5 22.2C534.5 18.6 536.8 16.2 540.3 16.2C543.8 16.1 546.1 18.5 546.1 22.2ZM536.5 22.2C536.5 24.8 537.9 26.3 540.2 26.3C542.5 26.3 543.9 24.8 543.9 22.2C543.9 19.6 542.5 18.1 540.2 18.1C538 18.1 536.5 19.6 536.5 22.2Z" fill="#ffffff"/>
<path d="M551.1 16.4V18.4C551.7 17.3 552.9 16.2 555.2 16.2C558.1 16.2 559.7 17.8 559.7 20.4V28H557.5V21.2C557.5 19.2 556.5 18.1 554.6 18.1C552.3 18.1 551.1 19.7 551.1 21.7V28H548.9V16.4H551.1Z" fill="#ffffff"/>
<path d="M573 19.9V28H570.9V26.1C570 27.5 568.4 28.1 566.5 28.1C563.8 28.1 562.4 26.8 562.4 24.6C562.4 21.6 565.3 21.4 567.7 21.1C569.6 20.9 570.9 20.8 570.9 19.6C570.9 18.6 570 18 568.2 18C566.4 18 565.1 18.7 564.6 20.1L562.6 19.4C563.4 17.4 565.3 16.1 568.2 16.1C571.2 16.1 573 17.6 573 19.9ZM570.8 23.3V22.3C569.9 22.6 568.8 22.8 567.8 22.9C566 23.1 564.5 23.2 564.5 24.6C564.5 25.8 565.4 26.2 566.9 26.2C569.1 26.3 570.8 25.2 570.8 23.3Z" fill="#ffffff"/>
<path d="M587.4 27.3C587.4 30.1 585.2 32.2 581.6 32.2C578.6 32.2 576.5 30.7 575.8 28.6L577.8 28C578.3 29.5 579.6 30.3 581.5 30.3C583.8 30.3 585.1 29.1 585.1 27.3V25.1C584.3 26.6 583 27.3 581 27.3C577.2 27.3 575.5 24.6 575.5 21.7C575.5 18.8 577.2 16.1 581 16.1C582.9 16.1 584.3 16.8 585 18.2V16.3H587.2V27.3H587.4ZM577.9 21.7C577.9 23.8 579.3 25.4 581.6 25.4C583.9 25.4 585.3 23.9 585.3 21.7C585.3 19.5 583.9 18.1 581.6 18.1C579.3 18.1 577.9 19.6 577.9 21.7Z" fill="#ffffff"/>
<path d="M601.4 22.9H592.3C592.4 24.8 593.7 26.2 596.1 26.2C597.9 26.2 598.9 25.4 599.5 24.4L601.2 25.4C600.1 27 598.5 28.1 595.9 28.1C592.2 28.1 590.1 25.7 590.1 22.2C590.1 18.5 592.5 16.1 596 16.1C599.2 16.1 601.4 18.1 601.4 21.3V22.9ZM592.3 21.1H599.2C599.1 19.1 597.9 18.1 596 18.1C593.8 18.1 592.5 19.3 592.3 21.1Z" fill="#ffffff"/>
<path d="M340.9 2.70001H340.4V33.6H340.9V2.70001Z" fill="#ffffff"/>
</svg>
