<svg width="328" height="71" viewBox="0 0 328 71" fill="none" xmlns="http://www.w3.org/2000/svg">
<path d="M18.4 19.9L9.7 0.599998H0.699997L13.7 29.8C13.8 29.9 13.9 29.9 14 29.8L18.4 19.9Z" fill="#ffffff"/>
<path d="M37.3 0.6C37.3 0.6 25.6 27.1 24.1 30.3C20.6 38.1 18 40 15.3 40.4C15.3 40.4 15.3 40.4 15.4 40.4H23.7C27.3 40.4 29.8 37.9 33.4 30.2C34.6 27.5 46.6 0.5 46.6 0.5L37.3 0.6Z" fill="#ffffff"/>
<path d="M94.2 10.6C88.3 10.6 84.6 14.4 84.6 20.6C84.6 26.8 88.4 30.6 94.2 30.6C100 30.6 103.8 26.8 103.8 20.6C103.8 14.4 100.1 10.6 94.2 10.6ZM94.2 27.4C90.5 27.4 88 25 88 20.6C88 16.2 90.4 13.8 94.2 13.8C97.9 13.8 100.4 16.2 100.4 20.6C100.4 25 98 27.4 94.2 27.4Z" fill="#ffffff"/>
<path d="M123.7 11.1V30.2H119.7L110.3 16.2V30.2H107V11.1H111L120.4 25.2V11.1H123.7Z" fill="#ffffff"/>
<path d="M182.2 14.2V11.1H168.4V30.1H182.2V26.9H171.8V21.9H181.4V18.7H171.8V14.2H182.2Z" fill="#ffffff"/>
<path d="M80.4 11.1L73.6 26.1C73.6 26.2 73.4 26.2 73.4 26.1L66.6 11.1H62.7C62.7 11.1 69.4 25.9 69.9 27C71 29.3 71.8 30.4 73.5 30.4C75.2 30.4 76 29.3 77.1 27C77.6 25.9 84.3 11.1 84.3 11.1H80.4Z" fill="#ffffff"/>
<path d="M139.5 14.2C138.5 11.9 137.7 10.8 136.1 10.8C134.5 10.8 133.7 11.9 132.7 14.2C132.2 15.3 125.8 30.1 125.8 30.1H129.4L131.4 25.5H140.9L142.9 30.1H146.5C146.4 30.2 140 15.4 139.5 14.2ZM132.7 22.3L136 14.6C136 14.5 136.1 14.5 136.2 14.6L139.5 22.3H132.7Z" fill="#ffffff"/>
<path d="M155.7 19.8V22.7H161.4C161.2 25.3 158.7 27.4 155.8 27.4C152.4 27.4 149.9 24.9 149.9 20.8C149.9 16.5 152.2 13.8 156.1 13.8C158.4 13.8 160.4 14.9 161 16.9H164.5C163.7 13 160.3 10.7 156.1 10.7C150.1 10.7 146.4 14.6 146.4 20.9C146.4 27 150.4 30.7 155.5 30.7C159.8 30.7 161.5 28.2 161.9 27.4V30.3H164.9V19.8H155.7Z" fill="#ffffff"/>
<path d="M232.1 11.3L225.4 28H222.8L216.2 11.4H218.8L224.2 25.2L229.6 11.4C229.5 11.3 232.1 11.3 232.1 11.3Z" fill="#ffffff"/>
<path d="M237.1 13.6H234.5V10.9H237.1V13.6ZM236.9 28H234.6V15.6H236.9V28Z" fill="#ffffff"/>
<path d="M250 28V25.8C249.1 27.5 247.7 28.2 245.7 28.2C241.7 28.2 239.9 25.2 239.9 21.8C239.9 18.3 241.7 15.4 245.7 15.4C247.7 15.4 249.2 16.1 250 17.7V10.9H252.3V27.9H250V28ZM250 21.8C250 19.1 248.5 17.5 246.1 17.5C243.7 17.5 242.2 19.1 242.2 21.8C242.2 24.4 243.7 26.1 246.1 26.1C248.5 26.1 250 24.4 250 21.8Z" fill="#ffffff"/>
<path d="M267.2 22.6H257.6C257.7 24.6 259.1 26.1 261.6 26.1C263.5 26.1 264.6 25.2 265.2 24.2L267 25.3C265.9 27 264.1 28.2 261.4 28.2C257.5 28.2 255.3 25.7 255.3 21.9C255.3 17.9 257.8 15.4 261.5 15.4C264.9 15.4 267.2 17.5 267.2 20.9V22.6ZM257.6 20.7H264.9C264.8 18.5 263.6 17.5 261.5 17.5C259.2 17.4 257.9 18.7 257.6 20.7Z" fill="#ffffff"/>
<path d="M281.8 21.8C281.8 25.6 279.4 28.2 275.6 28.2C271.8 28.2 269.4 25.7 269.4 21.8C269.4 17.9 271.8 15.4 275.6 15.4C279.3 15.4 281.8 17.9 281.8 21.8ZM271.7 21.8C271.7 24.5 273.2 26.1 275.6 26.1C278 26.1 279.5 24.5 279.5 21.8C279.5 19.1 278 17.5 275.6 17.5C273.2 17.5 271.7 19 271.7 21.8Z" fill="#ffffff"/>
<path d="M295.7 11.3H298.6L305.6 27.9H303L301.1 23.4H293L291.1 27.9H288.5L295.7 11.3ZM300.3 21.2L297.2 13.7L294.1 21.2H300.3Z" fill="#ffffff"/>
<path d="M316.4 11.3C319.8 11.3 321.8 13.4 321.8 16.4C321.8 19.4 319.7 21.9 316 21.9H310.8V28H308.4V11.3H316.4ZM310.8 19.6H315.8C317.9 19.6 319.3 18.4 319.3 16.5C319.3 14.7 318 13.6 316 13.6H310.7L310.8 19.6Z" fill="#ffffff"/>
<path d="M327.3 11.3V28H324.9V11.3H327.3Z" fill="#ffffff"/>
<path d="M202.7 3.4H202.2V34.3H202.7V3.4Z" fill="#ffffff"/>
<path d="M67.1 50.5H81.2V52.6H75.3V66.2H73V52.6H67.1V50.5Z" fill="#ffffff"/>
<path d="M93.4 60.4C93.4 64 91.1 66.4 87.6 66.4C84 66.4 81.8 64 81.8 60.4C81.8 56.8 84.1 54.4 87.6 54.4C91.1 54.3 93.4 56.7 93.4 60.4ZM83.9 60.4C83.9 63 85.3 64.5 87.6 64.5C89.9 64.5 91.3 63 91.3 60.4C91.3 57.8 89.9 56.3 87.6 56.3C85.3 56.3 83.9 57.8 83.9 60.4Z" fill="#ffffff"/>
<path d="M102.4 59L107.2 66.2H104.6L100.9 60.5L98.5 62.6V66.2H96.3V50.1H98.5V59.8L104.4 54.5H107.5L102.4 59Z" fill="#ffffff"/>
<path d="M116.6 50.5C119.8 50.5 121.5 52 121.5 54.3C121.5 56 120.7 57.3 119.1 57.9C120.9 58.3 121.9 59.7 121.9 61.6C121.9 64.3 119.9 66.2 116.8 66.2H109.8V50.5H116.6ZM112 57H116.4C118.2 57 119.3 56.2 119.3 54.7C119.3 53.1 118.1 52.5 116.6 52.5H112V57ZM112 64H116.7C118.6 64 119.7 63 119.7 61.4C119.7 59.8 118.5 58.9 116.7 58.9H112V64Z" fill="#ffffff"/>
<path d="M135.9 60.4C135.9 64 133.6 66.4 130.1 66.4C126.5 66.4 124.3 64 124.3 60.4C124.3 56.8 126.6 54.4 130.1 54.4C133.6 54.3 135.9 56.7 135.9 60.4ZM126.4 60.4C126.4 63 127.8 64.5 130.1 64.5C132.4 64.5 133.8 63 133.8 60.4C133.8 57.8 132.4 56.3 130.1 56.3C127.8 56.3 126.4 57.8 126.4 60.4Z" fill="#ffffff"/>
<path d="M146.4 66.2L143.1 61.7L139.8 66.2H137.1L141.7 60.2L137.3 54.5H140L143.1 58.7L146.2 54.5H148.9L144.5 60.2L149.1 66.2H146.4Z" fill="#ffffff"/>
<path d="M158.7 52.6H156.2V50.1H158.7V52.6ZM158.5 66.2H156.3V54.5H158.5V66.2Z" fill="#ffffff"/>
<path d="M169.8 58.1C169.3 56.9 168.1 56.1 166.4 56.1C164.7 56.1 163.8 56.7 163.8 57.7C163.8 58.9 165.4 59.1 167.1 59.3C169.4 59.6 172 59.8 172 62.5C172 64.8 169.9 66.3 167 66.3C164.4 66.3 162.2 65.2 161.4 63L163.4 62.3C164 63.9 165.5 64.5 167.1 64.5C168.7 64.5 169.9 63.8 169.9 62.8C169.9 61.6 168.3 61.4 166.5 61.1C164.2 60.8 161.6 60.5 161.6 57.9C161.6 55.6 163.5 54.3 166.5 54.3C169.4 54.3 171.1 55.6 171.8 57.4L169.8 58.1Z" fill="#ffffff"/>
<path d="M182.2 54.5V56.5C182.8 55.4 184 54.3 186.3 54.3C189.2 54.3 190.8 55.9 190.8 58.5V66.1H188.6V59.3C188.6 57.3 187.6 56.2 185.7 56.2C183.4 56.2 182.2 57.8 182.2 59.8V66.1H180V54.5H182.2Z" fill="#ffffff"/>
<path d="M205.2 60.4C205.2 64 202.9 66.4 199.4 66.4C195.8 66.4 193.6 64 193.6 60.4C193.6 56.8 195.9 54.4 199.4 54.4C202.9 54.3 205.2 56.7 205.2 60.4ZM195.7 60.4C195.7 63 197.1 64.5 199.4 64.5C201.7 64.5 203.1 63 203.1 60.4C203.1 57.8 201.7 56.3 199.4 56.3C197.1 56.3 195.7 57.8 195.7 60.4Z" fill="#ffffff"/>
<path d="M224.8 54.5L220.8 66.1H218.6L215.6 57.5L212.6 66.1H210.4L206.4 54.5H208.7L211.5 63.7L214.4 54.5H216.6L219.5 63.7L222.3 54.5H224.8V54.5Z" fill="#ffffff"/>
<path d="M245.6 50.5L239.3 66.2H236.8L230.5 50.5H232.9L238 63.5L243.1 50.5H245.6Z" fill="#ffffff"/>
<path d="M258.2 60.4C258.2 64 255.9 66.4 252.4 66.4C248.8 66.4 246.6 64 246.6 60.4C246.6 56.8 248.9 54.4 252.4 54.4C255.9 54.3 258.2 56.7 258.2 60.4ZM248.6 60.4C248.6 63 250 64.5 252.3 64.5C254.6 64.5 256 63 256 60.4C256 57.8 254.6 56.3 252.3 56.3C250.1 56.3 248.6 57.8 248.6 60.4Z" fill="#ffffff"/>
<path d="M263.2 54.5V56.5C263.8 55.4 265 54.3 267.3 54.3C270.2 54.3 271.8 55.9 271.8 58.5V66.1H269.6V59.3C269.6 57.3 268.6 56.2 266.7 56.2C264.4 56.2 263.2 57.8 263.2 59.8V66.1H261V54.5H263.2Z" fill="#ffffff"/>
<path d="M285.1 58.1V66.2H283V64.3C282.1 65.7 280.5 66.3 278.6 66.3C275.9 66.3 274.5 65 274.5 62.8C274.5 59.8 277.4 59.6 279.8 59.3C281.7 59.1 283 59 283 57.8C283 56.8 282.1 56.2 280.3 56.2C278.5 56.2 277.2 56.9 276.7 58.3L274.7 57.6C275.5 55.6 277.4 54.3 280.3 54.3C283.3 54.3 285.1 55.8 285.1 58.1ZM282.9 61.5V60.5C282 60.8 280.9 61 279.9 61.1C278.1 61.3 276.6 61.4 276.6 62.8C276.6 64 277.5 64.4 278.9 64.4C281.2 64.4 282.9 63.4 282.9 61.5Z" fill="#ffffff"/>
<path d="M299.5 65.5C299.5 68.3 297.3 70.4 293.7 70.4C290.7 70.4 288.6 68.9 287.9 66.8L289.9 66.2C290.4 67.7 291.7 68.5 293.6 68.5C295.9 68.5 297.2 67.3 297.2 65.5V63.3C296.4 64.8 295.1 65.5 293.1 65.5C289.3 65.5 287.6 62.8 287.6 59.9C287.6 57 289.3 54.3 293.1 54.3C295 54.3 296.4 55 297.1 56.4V54.5H299.3V65.5H299.5ZM289.9 59.9C289.9 62 291.3 63.6 293.6 63.6C295.9 63.6 297.3 62.1 297.3 59.9C297.3 57.7 295.9 56.3 293.6 56.3C291.3 56.3 289.9 57.8 289.9 59.9Z" fill="#ffffff"/>
<path d="M313.4 61.1H304.3C304.4 63 305.7 64.4 308.1 64.4C309.9 64.4 310.9 63.6 311.5 62.6L313.2 63.6C312.1 65.2 310.5 66.3 307.9 66.3C304.2 66.3 302.1 63.9 302.1 60.4C302.1 56.7 304.5 54.3 308 54.3C311.2 54.3 313.4 56.3 313.4 59.5V61.1ZM304.4 59.3H311.3C311.2 57.3 310 56.3 308.1 56.3C305.9 56.3 304.6 57.5 304.4 59.3Z" fill="#ffffff"/>
</svg>
