<svg width="441" height="40" viewBox="0 0 441 40" fill="none" xmlns="http://www.w3.org/2000/svg">
<path d="M17.7 19.11L9.11 0.0500031H0.139999L13 29C13.06 29.13 13.23 29.13 13.29 29L17.7 19.11Z" fill="#ffffff"/>
<path d="M36.42 0.0500031C36.42 0.0500031 24.79 26.29 23.33 29.5C19.85 37.18 17.27 39.1 14.65 39.51C14.63 39.51 14.61 39.53 14.61 39.56C14.61 39.59 14.63 39.61 14.66 39.61H22.87C26.49 39.61 28.96 37.18 32.44 29.5C33.66 26.82 45.54 0.0500031 45.54 0.0500031H36.42V0.0500031Z" fill="#ffffff"/>
<path d="M92.9 9.94C87.1 9.94 83.37 13.7 83.37 19.83C83.37 25.96 87.1 29.72 92.9 29.72C98.69 29.72 102.43 25.96 102.43 19.83C102.44 13.7 98.69 9.94 92.9 9.94ZM92.9 26.6C89.19 26.6 86.77 24.19 86.77 19.84C86.77 15.49 89.2 13.08 92.9 13.08C96.59 13.08 99.03 15.49 99.03 19.84C99.03 24.18 96.6 26.6 92.9 26.6Z" fill="#ffffff"/>
<path d="M122.12 10.38V29.29H118.19L108.84 15.43V29.29H105.49V10.38H109.43L118.78 24.33V10.38H122.12Z" fill="#ffffff"/>
<path d="M180.03 13.54V10.38H166.43V29.29H180.03V26.12H169.78V21.15H179.23V17.99H169.78V13.54H180.03Z" fill="#ffffff"/>
<path d="M79.16 10.38L72.38 25.26C72.34 25.34 72.24 25.34 72.2 25.26L65.42 10.38H61.6C61.6 10.38 68.23 25 68.75 26.14C69.8 28.45 70.66 29.51 72.3 29.51C73.94 29.51 74.81 28.45 75.85 26.14C76.36 25 83 10.38 83 10.38H79.16V10.38Z" fill="#ffffff"/>
<path d="M137.71 13.55C136.7 11.23 135.94 10.18 134.36 10.18C132.78 10.18 132.03 11.23 131.01 13.55C130.52 14.68 124.17 29.31 124.17 29.31H127.7L129.66 24.73H139.07L141.03 29.31H144.56C144.56 29.3 138.2 14.68 137.71 13.55ZM131.02 21.55L134.28 13.9C134.31 13.82 134.43 13.82 134.46 13.9L137.72 21.55H131.02V21.55Z" fill="#ffffff"/>
<path d="M153.82 19.03V21.9H159.49C159.24 24.44 156.81 26.57 153.93 26.57C150.53 26.57 148.06 24.08 148.06 19.98C148.06 15.71 150.34 13.08 154.24 13.08C156.56 13.08 158.48 14.19 159.11 16.12H162.58C161.83 12.25 158.39 9.95999 154.24 9.95999C148.32 9.95999 144.66 13.84 144.66 20.06C144.66 26.1 148.66 29.74 153.65 29.74C157.93 29.74 159.56 27.25 160.01 26.45V29.3H162.98V19.03H153.82Z" fill="#ffffff"/>
<path d="M200.35 2.82001H199.86V33.43H200.35V2.82001Z" fill="#ffffff"/>
<path d="M212.61 12.6H225.59V14.57H220.14V27.11H218.07V14.57H212.62V12.6H212.61Z" fill="#ffffff"/>
<path d="M236.89 21.72C236.89 25.07 234.79 27.27 231.49 27.27C228.2 27.27 226.09 25.07 226.09 21.72C226.09 18.36 228.21 16.15 231.49 16.15C234.78 16.16 236.89 18.36 236.89 21.72ZM228.08 21.72C228.08 24.1 229.41 25.48 231.48 25.48C233.56 25.48 234.89 24.09 234.89 21.72C234.89 19.33 233.56 17.95 231.48 17.95C229.41 17.95 228.08 19.34 228.08 21.72Z" fill="#ffffff"/>
<path d="M245.17 20.49L249.63 27.11H247.21L243.75 21.83L241.49 23.79V27.11H239.49V12.26H241.49V21.25L246.9 16.36H249.79L245.17 20.49Z" fill="#ffffff"/>
<path d="M258.32 12.6C261.32 12.6 262.85 13.95 262.85 16.14C262.85 17.68 262.08 18.95 260.61 19.45C262.3 19.84 263.23 21.11 263.23 22.86C263.23 25.35 261.37 27.11 258.5 27.11H251.99V12.6H258.32ZM254.08 18.68H258.11C259.81 18.68 260.78 17.9 260.78 16.57C260.78 15.12 259.63 14.57 258.3 14.57H254.08V18.68V18.68ZM254.08 25.13H258.4C260.11 25.13 261.14 24.18 261.14 22.71C261.14 21.23 260.07 20.42 258.39 20.42H254.08V25.13Z" fill="#ffffff"/>
<path d="M276.14 21.72C276.14 25.07 274.04 27.27 270.74 27.27C267.45 27.27 265.34 25.07 265.34 21.72C265.34 18.36 267.46 16.15 270.74 16.15C274.04 16.16 276.14 18.36 276.14 21.72ZM267.34 21.72C267.34 24.1 268.67 25.48 270.74 25.48C272.82 25.48 274.15 24.09 274.15 21.72C274.15 19.33 272.82 17.95 270.74 17.95C268.66 17.95 267.34 19.34 267.34 21.72Z" fill="#ffffff"/>
<path d="M285.81 27.11L282.78 23L279.76 27.11H277.24L281.52 21.61L277.44 16.36H279.94L282.77 20.22L285.61 16.36H288.11L284.02 21.61L288.31 27.11H285.81Z" fill="#ffffff"/>
<path d="M297.17 14.58H294.88V12.25H297.17V14.58ZM297.03 27.11H295.03V16.36H297.03V27.11Z" fill="#ffffff"/>
<path d="M307.43 19.66C306.98 18.51 305.9 17.85 304.25 17.85C302.7 17.85 301.82 18.43 301.82 19.32C301.82 20.46 303.27 20.64 304.91 20.83C306.99 21.07 309.42 21.33 309.42 23.74C309.42 25.91 307.48 27.27 304.77 27.27C302.39 27.27 300.37 26.23 299.62 24.23L301.45 23.54C301.97 24.98 303.36 25.58 304.85 25.58C306.36 25.58 307.42 24.95 307.42 23.98C307.42 22.84 305.96 22.65 304.32 22.45C302.23 22.19 299.84 21.88 299.84 19.46C299.84 17.37 301.61 16.14 304.33 16.14C306.97 16.14 308.59 17.3 309.19 18.97L307.43 19.66Z" fill="#ffffff"/>
<path d="M318.92 16.36V18.17C319.51 17.12 320.56 16.16 322.66 16.16C325.3 16.16 326.81 17.67 326.81 20.06V27.11H324.82V20.84C324.82 19.04 323.93 18.02 322.19 18.02C320.08 18.02 318.92 19.52 318.92 21.3V27.12H316.92V16.36H318.92Z" fill="#ffffff"/>
<path d="M340.12 21.72C340.12 25.07 338.02 27.27 334.72 27.27C331.43 27.27 329.32 25.07 329.32 21.72C329.32 18.36 331.44 16.15 334.72 16.15C338.02 16.16 340.12 18.36 340.12 21.72ZM331.32 21.72C331.32 24.1 332.65 25.48 334.72 25.48C336.8 25.48 338.13 24.09 338.13 21.72C338.13 19.33 336.8 17.95 334.72 17.95C332.64 17.95 331.32 19.34 331.32 21.72Z" fill="#ffffff"/>
<path d="M358.2 16.36L354.49 27.11H352.47L349.74 19.22L347 27.11H344.98L341.27 16.36H343.39L346 24.87L348.71 16.36H350.77L353.48 24.87L356.09 16.36H358.2Z" fill="#ffffff"/>
<path d="M377.46 12.6L371.67 27.11H369.36L363.57 12.6H365.81L370.52 24.64L375.24 12.6H377.46Z" fill="#ffffff"/>
<path d="M389.04 21.72C389.04 25.07 386.94 27.27 383.64 27.27C380.35 27.27 378.24 25.07 378.24 21.72C378.24 18.36 380.36 16.15 383.64 16.15C386.94 16.16 389.04 18.36 389.04 21.72ZM380.24 21.72C380.24 24.1 381.57 25.48 383.64 25.48C385.72 25.48 387.05 24.09 387.05 21.72C387.05 19.33 385.72 17.95 383.64 17.95C381.56 17.95 380.24 19.34 380.24 21.72Z" fill="#ffffff"/>
<path d="M393.65 16.36V18.17C394.24 17.12 395.29 16.16 397.39 16.16C400.03 16.16 401.54 17.67 401.54 20.06V27.11H399.55V20.84C399.55 19.04 398.66 18.02 396.92 18.02C394.81 18.02 393.65 19.52 393.65 21.3V27.12H391.65V16.36H393.65Z" fill="#ffffff"/>
<path d="M413.87 19.64V27.11H411.9V25.4C411.05 26.66 409.63 27.27 407.87 27.27C405.42 27.27 404.04 26.08 404.04 24.05C404.04 21.24 406.71 21.05 408.95 20.85C410.66 20.7 411.87 20.56 411.87 19.45C411.87 18.53 411.01 17.93 409.42 17.93C407.73 17.93 406.6 18.61 406.08 19.84L404.24 19.21C404.96 17.32 406.77 16.14 409.43 16.14C412.28 16.16 413.87 17.49 413.87 19.64ZM411.88 22.78V21.87C411.03 22.17 410.02 22.3 409.08 22.4C407.4 22.57 406.04 22.65 406.04 24.01C406.04 25.11 406.91 25.5 408.21 25.5C410.27 25.49 411.88 24.51 411.88 22.78Z" fill="#ffffff"/>
<path d="M427.2 26.46C427.2 29.08 425.18 31.02 421.85 31.02C419.07 31.02 417.15 29.67 416.54 27.7L418.43 27.1C418.91 28.49 420.11 29.24 421.86 29.24C424 29.24 425.21 28.15 425.21 26.52V24.47C424.49 25.84 423.24 26.49 421.47 26.49C417.98 26.49 416.39 23.97 416.39 21.31C416.39 18.66 417.97 16.16 421.49 16.16C423.25 16.16 424.5 16.78 425.21 18.12V16.36H427.2V26.46V26.46ZM418.38 21.31C418.38 23.29 419.72 24.7 421.8 24.7C423.89 24.7 425.2 23.28 425.2 21.31C425.2 19.34 423.89 17.95 421.8 17.95C419.71 17.95 418.38 19.34 418.38 21.31Z" fill="#ffffff"/>
<path d="M440.09 22.42H431.69C431.8 24.17 433.01 25.49 435.16 25.49C436.81 25.49 437.76 24.73 438.34 23.84L439.92 24.77C438.93 26.22 437.41 27.27 435.06 27.27C431.64 27.27 429.7 25.06 429.7 21.78C429.7 18.32 431.87 16.15 435.13 16.15C438.13 16.15 440.09 17.97 440.09 20.99V22.42ZM431.7 20.75H438.09C438.03 18.86 436.93 17.94 435.11 17.94C433.1 17.94 431.95 19.06 431.7 20.75Z" fill="#ffffff"/>
</svg>
