<svg width="235" height="60" viewBox="0 0 235 60" fill="none" xmlns="http://www.w3.org/2000/svg">
<path d="M19.15 20.59L10.17 0.660034H0.800003L14.25 30.93C14.31 31.06 14.49 31.06 14.55 30.93L19.15 20.59Z" fill="#ffffff"/>
<path d="M38.74 0.660024C38.74 0.660024 26.58 28.1 25.06 31.45C21.42 39.48 18.73 41.48 15.98 41.91C15.95 41.91 15.94 41.94 15.94 41.96C15.94 41.99 15.96 42.01 15.99 42.01H24.58C28.36 42.01 30.95 39.47 34.59 31.44C35.86 28.63 48.29 0.650024 48.29 0.650024H38.74V0.660024Z" fill="#ffffff"/>
<path d="M97.79 11C91.72 11 87.82 14.93 87.82 21.34C87.82 27.75 91.72 31.68 97.79 31.68C103.84 31.68 107.76 27.75 107.76 21.34C107.76 14.93 103.84 11 97.79 11ZM97.79 28.42C93.92 28.42 91.38 25.9 91.38 21.35C91.38 16.8 93.92 14.28 97.79 14.28C101.65 14.28 104.2 16.8 104.2 21.35C104.2 25.9 101.65 28.42 97.79 28.42Z" fill="#ffffff"/>
<path d="M128.34 11.46V31.23H124.23L114.45 16.74V31.23H110.95V11.46H115.07L124.85 26.05V11.46H128.34Z" fill="#ffffff"/>
<path d="M188.89 14.77V11.46H174.68V31.23H188.89V27.92H178.18V22.72H188.06V19.41H178.18V14.77H188.89Z" fill="#ffffff"/>
<path d="M83.42 11.46L76.33 27.02C76.29 27.1 76.18 27.1 76.14 27.02L69.05 11.46H65.04C65.04 11.46 71.97 26.75 72.51 27.94C73.6 30.35 74.51 31.46 76.23 31.46C77.95 31.46 78.85 30.35 79.95 27.94C80.49 26.75 87.42 11.46 87.42 11.46H83.42V11.46Z" fill="#ffffff"/>
<path d="M144.64 14.77C143.58 12.34 142.79 11.25 141.14 11.25C139.49 11.25 138.7 12.35 137.64 14.77C137.13 15.95 130.48 31.25 130.48 31.25H134.17L136.21 26.46H146.05L148.09 31.25H151.78C151.8 31.25 145.16 15.95 144.64 14.77ZM137.64 23.14L141.05 15.14C141.09 15.06 141.2 15.06 141.24 15.14L144.65 23.14H137.64Z" fill="#ffffff"/>
<path d="M161.48 20.5V23.5H167.41C167.15 26.16 164.61 28.38 161.6 28.38C158.04 28.38 155.46 25.78 155.46 21.49C155.46 17.02 157.85 14.28 161.92 14.28C164.35 14.28 166.35 15.44 167.02 17.45H170.64C169.86 13.41 166.26 11.01 161.92 11.01C155.73 11.01 151.9 15.06 151.9 21.57C151.9 27.88 156.08 31.69 161.3 31.69C165.78 31.69 167.48 29.08 167.95 28.25V31.23H171.05V20.5H161.48Z" fill="#ffffff"/>
<path d="M78.59 45.41V56.22H76.82L71.02 47.73V56.22H69.47V45.41H71.24L77.05 53.94V45.41H78.59Z" fill="#ffffff"/>
<path d="M88.43 52.73H82.17C82.25 54.03 83.15 55.01 84.76 55.01C85.99 55.01 86.7 54.44 87.13 53.78L88.31 54.47C87.57 55.55 86.44 56.33 84.69 56.33C82.14 56.33 80.69 54.69 80.69 52.24C80.69 49.66 82.3 48.05 84.74 48.05C86.97 48.05 88.44 49.41 88.44 51.65V52.73H88.43ZM82.18 51.49H86.94C86.89 50.08 86.07 49.39 84.72 49.39C83.22 49.39 82.36 50.23 82.18 51.49Z" fill="#ffffff"/>
<path d="M95.62 56.22L93.37 53.16L91.12 56.22H89.24L92.43 52.13L89.39 48.22H91.25L93.36 51.09L95.48 48.22H97.34L94.29 52.13L97.49 56.22H95.62Z" fill="#ffffff"/>
<path d="M100.34 48.21V49.53C100.75 48.77 101.51 48.06 102.96 48.06C104.33 48.06 105.08 48.72 105.46 49.87C105.88 48.92 106.75 48.06 108.42 48.06C110.31 48.06 111.35 49.16 111.35 50.85V56.22H109.86V51.48C109.86 50.17 109.23 49.44 108.04 49.44C106.64 49.44 105.85 50.48 105.85 51.77V56.22H104.36V51.48C104.36 50.18 103.75 49.44 102.57 49.44C101.16 49.44 100.36 50.49 100.36 51.77V56.22H98.87V48.21H100.34Z" fill="#ffffff"/>
<path d="M121.25 52.21C121.25 54.71 119.68 56.34 117.22 56.34C114.77 56.34 113.19 54.7 113.19 52.21C113.19 49.71 114.77 48.06 117.22 48.06C119.68 48.06 121.25 49.71 121.25 52.21ZM114.69 52.21C114.69 53.98 115.68 55.02 117.22 55.02C118.77 55.02 119.76 53.99 119.76 52.21C119.76 50.43 118.77 49.4 117.22 49.4C115.68 49.4 114.69 50.43 114.69 52.21Z" fill="#ffffff"/>
<path d="M128.45 46.89H126.75V45.16H128.45V46.89ZM128.34 56.22H126.85V48.21H128.34V56.22Z" fill="#ffffff"/>
<path d="M136.1 50.67C135.77 49.81 134.96 49.32 133.73 49.32C132.58 49.32 131.92 49.75 131.92 50.41C131.92 51.26 133 51.39 134.22 51.53C135.77 51.71 137.58 51.9 137.58 53.7C137.58 55.31 136.13 56.33 134.12 56.33C132.35 56.33 130.84 55.55 130.28 54.07L131.64 53.56C132.02 54.63 133.07 55.08 134.17 55.08C135.29 55.08 136.09 54.61 136.09 53.89C136.09 53.04 135 52.9 133.78 52.75C132.22 52.55 130.44 52.33 130.44 50.53C130.44 48.97 131.76 48.06 133.79 48.06C135.76 48.06 136.96 48.93 137.41 50.17L136.1 50.67Z" fill="#ffffff"/>
<path d="M144.67 48.21V49.56C145.11 48.78 145.89 48.06 147.46 48.06C149.43 48.06 150.55 49.18 150.55 50.96V56.22H149.06V51.55C149.06 50.21 148.4 49.45 147.1 49.45C145.52 49.45 144.66 50.57 144.66 51.89V56.23H143.17V48.22H144.67V48.21Z" fill="#ffffff"/>
<path d="M160.47 52.21C160.47 54.71 158.9 56.34 156.44 56.34C153.99 56.34 152.41 54.7 152.41 52.21C152.41 49.71 153.99 48.06 156.44 48.06C158.9 48.06 160.47 49.71 160.47 52.21ZM153.91 52.21C153.91 53.98 154.9 55.02 156.44 55.02C157.99 55.02 158.98 53.99 158.98 52.21C158.98 50.43 157.99 49.4 156.44 49.4C154.89 49.4 153.91 50.43 153.91 52.21Z" fill="#ffffff"/>
<path d="M173.94 48.21L171.17 56.22H169.66L167.62 50.34L165.58 56.22H164.07L161.3 48.21H162.88L164.83 54.55L166.85 48.21H168.39L170.41 54.55L172.36 48.21H173.94V48.21Z" fill="#ffffff"/>
<path d="M188.3 45.41L183.99 56.22H182.27L177.96 45.41H179.63L183.14 54.38L186.65 45.41H188.3Z" fill="#ffffff"/>
<path d="M196.94 52.21C196.94 54.71 195.37 56.34 192.91 56.34C190.46 56.34 188.88 54.7 188.88 52.21C188.88 49.71 190.46 48.06 192.91 48.06C195.37 48.06 196.94 49.71 196.94 52.21ZM190.37 52.21C190.37 53.98 191.36 55.02 192.9 55.02C194.45 55.02 195.44 53.99 195.44 52.21C195.44 50.43 194.45 49.4 192.9 49.4C191.36 49.4 190.37 50.43 190.37 52.21Z" fill="#ffffff"/>
<path d="M200.38 48.21V49.56C200.82 48.78 201.6 48.06 203.17 48.06C205.14 48.06 206.26 49.18 206.26 50.96V56.22H204.77V51.55C204.77 50.21 204.11 49.45 202.81 49.45C201.23 49.45 200.37 50.57 200.37 51.89V56.23H198.88V48.22H200.38V48.21Z" fill="#ffffff"/>
<path d="M215.44 50.66V56.23H213.97V54.96C213.34 55.9 212.28 56.35 210.97 56.35C209.15 56.35 208.12 55.46 208.12 53.95C208.12 51.85 210.11 51.72 211.78 51.57C213.05 51.46 213.96 51.35 213.96 50.53C213.96 49.84 213.32 49.4 212.13 49.4C210.87 49.4 210.03 49.91 209.64 50.82L208.27 50.35C208.81 48.94 210.16 48.07 212.14 48.07C214.26 48.06 215.44 49.06 215.44 50.66ZM213.96 53V52.32C213.33 52.55 212.57 52.64 211.87 52.71C210.62 52.84 209.61 52.9 209.61 53.91C209.61 54.73 210.26 55.02 211.22 55.02C212.76 55.02 213.96 54.28 213.96 53Z" fill="#ffffff"/>
<path d="M225.38 55.7399C225.38 57.6899 223.87 59.1399 221.39 59.1399C219.32 59.1399 217.89 58.1399 217.43 56.6699L218.84 56.2299C219.19 57.2599 220.09 57.8199 221.4 57.8199C222.99 57.8199 223.9 57.0099 223.9 55.7899V54.2599C223.36 55.2799 222.43 55.7699 221.11 55.7699C218.51 55.7699 217.32 53.8899 217.32 51.9099C217.32 49.9299 218.5 48.0699 221.12 48.0699C222.43 48.0699 223.36 48.5299 223.9 49.5299V48.2199H225.39V55.7399H225.38ZM218.81 51.8999C218.81 53.3799 219.81 54.4299 221.36 54.4299C222.92 54.4299 223.89 53.3699 223.89 51.8999C223.89 50.4299 222.92 49.3999 221.36 49.3999C219.8 49.3999 218.81 50.4299 218.81 51.8999Z" fill="#ffffff"/>
<path d="M234.99 52.73H228.73C228.81 54.03 229.71 55.01 231.32 55.01C232.55 55.01 233.26 54.44 233.69 53.78L234.87 54.47C234.13 55.55 233 56.33 231.25 56.33C228.7 56.33 227.25 54.69 227.25 52.24C227.25 49.66 228.86 48.05 231.3 48.05C233.53 48.05 235 49.41 235 51.65V52.73H234.99ZM228.74 51.49H233.5C233.45 50.08 232.63 49.39 231.28 49.39C229.78 49.39 228.92 50.23 228.74 51.49Z" fill="#ffffff"/>
</svg>
