<?xml version="1.0" encoding="utf-8"?>
<!-- Generator: Adobe Illustrator 21.1.0, SVG Export Plug-In . SVG Version: 6.00 Build 0)  -->
<svg version="1.1" id="Layer_1" xmlns="http://www.w3.org/2000/svg" xmlns:xlink="http://www.w3.org/1999/xlink" x="0px" y="0px"
	 viewBox="0 0 16 16" style="enable-background:new 0 0 16 16;" xml:space="preserve">
<g>
	<path d="M9.5,11C9.3,11,9,11.2,9,11.5v3C9,14.8,8.8,15,8.5,15h-7C1.3,15,1,14.8,1,14.5v-12C1,2.2,1.3,2,1.5,2h7
		C8.8,2,9,2.2,9,2.5v3C9,5.8,9.3,6,9.5,6C9.8,6,10,5.8,10,5.5v-3C10,1.7,9.4,1,8.5,1h-7C0.7,1,0,1.7,0,2.5v12C0,15.3,0.7,16,1.5,16
		h7c0.8,0,1.5-0.7,1.5-1.5v-3C10,11.2,9.8,11,9.5,11z"/>
	<path d="M15.9,8.1l-3-3c-0.2-0.2-0.5-0.2-0.7,0c-0.2,0.2-0.2,0.5,0,0.7L14.3,8H4.5C4.3,8,4,8.2,4,8.5S4.3,9,4.5,9h9.8
		l-2.1,2.1c-0.2,0.2-0.2,0.5,0,0.7c0.2,0.2,0.5,0.2,0.7,0l3-3C16.1,8.5,15.9,8.1,15.9,8.1z"/>
</g>
</svg>
