<?xml version="1.0" encoding="utf-8"?>
<!-- Generator: Adobe Illustrator 21.1.0, SVG Export Plug-In . SVG Version: 6.00 Build 0)  -->
<svg version="1.1" id="Layer_1" xmlns="http://www.w3.org/2000/svg" xmlns:xlink="http://www.w3.org/1999/xlink" x="0px" y="0px"
	 viewBox="0 0 16 16" style="enable-background:new 0 0 16 16;" xml:space="preserve">
<g>
	<path d="M3.1,11H1V6h4.5c0.1,0,0.2,0,0.3-0.1L11,2.4v0.7l1-1V1.5c0-0.2-0.1-0.4-0.3-0.4c-0.2-0.1-0.4-0.1-0.5,0L5.3,5
		H0.5C0.2,5,0,5.2,0,5.5v6C0,11.8,0.2,12,0.5,12h1.6L3.1,11z"/>
	<path d="M15.9,1.6c-0.2-0.2-0.5-0.2-0.7,0L1.6,15.1c-0.2,0.2-0.2,0.5,0,0.7c0.2,0.2,0.5,0.2,0.7,0l3.5-3.5l5.4,3.6
		c0.2,0.1,0.4,0.1,0.5,0s0.3-0.3,0.3-0.4V6.2l3.9-3.9C16,2.2,16,1.8,15.9,1.6z M11,14.6l-4.4-2.9L11,7.2V14.6z"/>
</g>
</svg>
