<?xml version="1.0" encoding="utf-8"?>
<!-- Generator: Adobe Illustrator 21.1.0, SVG Export Plug-In . SVG Version: 6.00 Build 0)  -->
<svg version="1.1" id="Layer_1" xmlns="http://www.w3.org/2000/svg" xmlns:xlink="http://www.w3.org/1999/xlink" x="0px" y="0px"
	 viewBox="0 0 16 16" style="enable-background:new 0 0 16 16;" xml:space="preserve">
<path d="M14.5,0h-13C0.7,0,0,0.7,0,1.5v13C0,15.3,0.7,16,1.5,16h13c0.8,0,1.5-0.7,1.5-1.5v-13C16,0.7,15.3,0,14.5,0z
	 M7.5,15h-6C1.2,15,1,14.8,1,14.5v-13C1,1.2,1.2,1,1.5,1h6V15z M15,14.5c0,0.3-0.2,0.5-0.5,0.5h-6V1h6C14.8,1,15,1.2,15,1.5V14.5z"
	/>
</svg>
