<?xml version="1.0" encoding="utf-8"?>
<!-- Generator: Adobe Illustrator 21.1.0, SVG Export Plug-In . SVG Version: 6.00 Build 0)  -->
<svg version="1.1" id="Layer_1" xmlns="http://www.w3.org/2000/svg" xmlns:xlink="http://www.w3.org/1999/xlink" x="0px" y="0px"
	 viewBox="0 0 16 16" style="enable-background:new 0 0 16 16;" xml:space="preserve">
<g>
	<path d="M6,8c0,1.1,0.9,2,2,2s2-0.9,2-2S9.1,6,8,6S6,6.9,6,8z M6,2c0,1.1,0.9,2,2,2s2-0.9,2-2S9.1,0,8,0
		C6.9,0,6,0.9,6,2z M8,16c-1.1,0-2-0.9-2-2s0.9-2,2-2s2,0.9,2,2S9.1,16,8,16z"/>
</g>
</svg>
