<?xml version="1.0" encoding="utf-8"?>
<!-- Generator: Adobe Illustrator 21.1.0, SVG Export Plug-In . SVG Version: 6.00 Build 0)  -->
<svg version="1.1" id="Layer_1" xmlns="http://www.w3.org/2000/svg" xmlns:xlink="http://www.w3.org/1999/xlink" x="0px" y="0px"
	 viewBox="0 0 16 16" style="enable-background:new 0 0 16 16;" xml:space="preserve">
<g>
	<g>
		<path d="M6.7,9.3c0.2,0.2,0.2,0.6,0,0.8L1,15.8c-0.2,0.2-0.6,0.2-0.8,0c-0.2-0.2-0.2-0.6,0-0.8l5.7-5.7
			C6.1,9.1,6.5,9.1,6.7,9.3z"/>
		<path d="M15.8,0.2c0.2,0.2,0.2,0.6,0,0.8l-5.7,5.7c-0.2,0.2-0.6,0.2-0.8,0c-0.2-0.2-0.2-0.6,0-0.8L15,0.2
			C15.2-0.1,15.6-0.1,15.8,0.2z"/>
		<path d="M1.1,9.7c0-0.3,0.3-0.6,0.6-0.6h4.6c0.3,0,0.6,0.3,0.6,0.6v4.6c0,0.3-0.3,0.6-0.6,0.6c-0.3,0-0.6-0.3-0.6-0.6
			v-4h-4C1.4,10.3,1.1,10,1.1,9.7z"/>
		<path d="M9.7,1.1c0.3,0,0.6,0.3,0.6,0.6v4h4c0.3,0,0.6,0.3,0.6,0.6c0,0.3-0.3,0.6-0.6,0.6H9.7c-0.3,0-0.6-0.3-0.6-0.6
			V1.7C9.1,1.4,9.4,1.1,9.7,1.1z"/>
		<path d="M4.2,4.2c0.2-0.2,0.6-0.2,0.8,0l6.9,6.9c0.2,0.2,0.2,0.6,0,0.8c-0.2,0.2-0.6,0.2-0.8,0L4.2,5
			C3.9,4.8,3.9,4.4,4.2,4.2z"/>
	</g>
</g>
</svg>
