<?xml version="1.0" encoding="utf-8"?>
<!-- Generator: Adobe Illustrator 21.1.0, SVG Export Plug-In . SVG Version: 6.00 Build 0)  -->
<svg version="1.1" id="Layer_1" xmlns="http://www.w3.org/2000/svg" xmlns:xlink="http://www.w3.org/1999/xlink" x="0px" y="0px"
	 viewBox="0 0 24 24" style="enable-background:new 0 0 24 24;" xml:space="preserve">
<g>
	<path class="st0" d="M14.2,6h9C23.7,6,24,5.7,24,5.2s-0.3-0.8-0.8-0.8h-9c-0.4,0-0.8,0.3-0.8,0.8S13.8,6,14.2,6z"/>
	<path class="st0" d="M9.8,18h-9C0.3,18,0,18.3,0,18.8s0.3,0.8,0.8,0.8h9c0.4,0,0.8-0.3,0.8-0.8S10.2,18,9.8,18z"/>
	<path class="st0" d="M23.2,18h-3.8v-3.8c0-0.4-0.3-0.8-0.8-0.8h-4.5c-0.4,0-0.8,0.3-0.8,0.8v9c0,0.4,0.3,0.8,0.8,0.8h4.5
		c0.4,0,0.8-0.3,0.8-0.8v-3.8h3.8c0.4,0,0.8-0.3,0.8-0.8S23.7,18,23.2,18z M18,18.8v3.8h-3V15h3V18.8z"/>
	<path class="st0" d="M9.8,0H5.2C4.8,0,4.5,0.3,4.5,0.8v3.8H0.8C0.3,4.5,0,4.8,0,5.2S0.3,6,0.8,6h3.8v3.8c0,0.4,0.3,0.8,0.8,0.8h4.5
		c0.4,0,0.8-0.3,0.8-0.8v-9C10.5,0.3,10.2,0,9.8,0z M9,9H6V5.2V1.5h3V9z"/>
</g>
</svg>
