<?xml version="1.0" encoding="utf-8"?>
<!-- Generator: Adobe Illustrator 21.1.0, SVG Export Plug-In . SVG Version: 6.00 Build 0)  -->
<svg version="1.1" id="Layer_1" xmlns="http://www.w3.org/2000/svg" xmlns:xlink="http://www.w3.org/1999/xlink" x="0px" y="0px"
	 viewBox="0 0 16 16" style="enable-background:new 0 0 16 16;" xml:space="preserve">
<g>
	<path d="M1,2.5C1,2.2,1.2,2,1.5,2h13C14.8,2,15,2.2,15,2.5v2.2L8,8.4L1,4.7V2.5z M0,5C0,5,0,5,0,5v8.5
		C0,14.3,0.7,15,1.5,15h13c0.8,0,1.5-0.7,1.5-1.5V5c0,0,0,0,0,0V2.5C16,1.7,15.3,1,14.5,1h-13C0.7,1,0,1.7,0,2.5V5z M15,5.8v7.7
		c0,0.3-0.2,0.5-0.5,0.5h-13C1.2,14,1,13.8,1,13.5V5.8l6.8,3.6c0.1,0.1,0.3,0.1,0.5,0L15,5.8z"/>
</g>
</svg>
