<?xml version="1.0" encoding="utf-8"?>
<!-- Generator: Adobe Illustrator 21.1.0, SVG Export Plug-In . SVG Version: 6.00 Build 0)  -->
<svg version="1.1" id="Layer_1" xmlns="http://www.w3.org/2000/svg" xmlns:xlink="http://www.w3.org/1999/xlink" x="0px" y="0px"
	 viewBox="0 0 24 24" style="enable-background:new 0 0 24 24;" xml:space="preserve">
<path class="st0" d="M24,11.9l-2.9-3l0.6-4.1l-4-0.7l-2-3.6L12,2.3L8.3,0.5l-2,3.6l-4,0.7l0.6,4.1l-2.9,3l2.9,3L2.3,19l4,0.7l2,3.6
	l3.7-1.8l3.7,1.8l2-3.6l4-0.7l-0.6-4.1L24,11.9z M12,18.2c-0.9,0-1.5-0.6-1.5-1.5c0-0.9,0.6-1.5,1.5-1.5s1.5,0.6,1.5,1.5
	C13.5,17.6,12.9,18.2,12,18.2z M13.5,13h-3V6.2h3V13z"/>
</svg>
