<?xml version="1.0" encoding="utf-8"?>
<!-- Generator: Adobe Illustrator 21.1.0, SVG Export Plug-In . SVG Version: 6.00 Build 0)  -->
<svg version="1.1" id="Layer_1" xmlns="http://www.w3.org/2000/svg" xmlns:xlink="http://www.w3.org/1999/xlink" x="0px" y="0px"
	 viewBox="0 0 16 16" style="enable-background:new 0 0 16 16;" xml:space="preserve">
<g>
	<path d="M13.5,6H12V4c0-2.2-1.8-4-4-4C5.8,0,4,1.8,4,4v2H2.5C1.7,6,1,6.7,1,7.5v7C1,15.3,1.7,16,2.5,16h11
		c0.8,0,1.5-0.7,1.5-1.5v-7C15,6.7,14.3,6,13.5,6z M5,4c0-1.7,1.3-3,3-3s3,1.3,3,3v2H5V4z M14,14.5c0,0.3-0.2,0.5-0.5,0.5h-11
		C2.2,15,2,14.8,2,14.5v-7C2,7.2,2.2,7,2.5,7h2h7h2C13.8,7,14,7.2,14,7.5V14.5z"/>
	<path d="M8,9c-1.1,0-2,0.9-2,2c0,1.1,0.9,2,2,2s2-0.9,2-2C10,9.9,9.1,9,8,9z M8,12c-0.6,0-1-0.4-1-1s0.4-1,1-1
		s1,0.4,1,1S8.6,12,8,12z"/>
</g>
</svg>
