<svg version="1.1" id="Vlt-icon-star" xmlns="http://www.w3.org/2000/svg" xmlns:xlink="http://www.w3.org/1999/xlink" x="0px" y="0px" viewBox="0 0 16 16" style="enable-background:new 0 0 16 16;" xml:space="preserve"><g><path d="M8.4,0.6C8.4,0.5,8.2,0.4,8,0.4c-0.2,0-0.4,0.1-0.4,0.3L5.3,5.1L0.4,5.8C0.2,5.8,0.1,6,0,6.2&#xA;&#x9;&#x9;C0,6.3,0,6.5,0.2,6.7l3.6,3.5L2.9,15c0,0.2,0,0.4,0.2,0.5c0.2,0.1,0.4,0.1,0.5,0L8,13.3l4.4,2.3c0.2,0.1,0.4,0.1,0.5,0&#xA;&#x9;&#x9;c0.2-0.1,0.2-0.3,0.2-0.5l-0.8-4.9l3.6-3.5C16,6.5,16,6.3,16,6.2c-0.1-0.2-0.2-0.3-0.4-0.3l-4.9-0.7L8.4,0.6z M6.1,5.8L8,2l1.9,3.8&#xA;&#x9;&#x9;c0.1,0.1,0.2,0.2,0.4,0.3l4.2,0.6l-3,2.9c-0.1,0.1-0.2,0.3-0.1,0.4l0.7,4.2l-3.7-2c-0.1-0.1-0.3-0.1-0.5,0l-3.7,2l0.7-4.2&#xA;&#x9;&#x9;c0-0.2,0-0.3-0.1-0.4l-3-2.9l4.2-0.6C5.9,6,6.1,5.9,6.1,5.8z"/></g></svg>