<?xml version="1.0" encoding="utf-8"?>
<!-- Generator: Adobe Illustrator 21.1.0, SVG Export Plug-In . SVG Version: 6.00 Build 0)  -->
<svg version="1.1" id="Layer_1" xmlns="http://www.w3.org/2000/svg" xmlns:xlink="http://www.w3.org/1999/xlink" x="0px" y="0px"
	 viewBox="0 0 16 16" style="enable-background:new 0 0 16 16;" xml:space="preserve">
<g>
	<path d="M13.5,0.5h-11c-0.6,0-1,0.4-1,1v13c0,0.6,0.4,1,1,1h11c0.6,0,1-0.4,1-1v-13C14.5,0.9,14.1,0.5,13.5,0.5z
		 M13.5,14.5h-11v-13h11V14.5z"/>
	<path d="M7,13c1.1,0,2-0.9,2-2V4.4l2.2,1.5c0.2,0.2,0.5,0.1,0.7-0.1c0.2-0.2,0.1-0.5-0.1-0.7l-3-2C8.6,3,8.4,3,8.3,3.1
		C8.1,3.1,8,3.3,8,3.5v5.8C7.7,9.1,7.4,9,7,9c-1.1,0-2,0.9-2,2C5,12.1,5.9,13,7,13z M7,10c0.6,0,1,0.4,1,1s-0.4,1-1,1s-1-0.4-1-1
		S6.4,10,7,10z"/>
</g>
</svg>
