<?xml version="1.0" encoding="utf-8"?>
<!-- Generator: Adobe Illustrator 21.1.0, SVG Export Plug-In . SVG Version: 6.00 Build 0)  -->
<svg version="1.1" id="Layer_1" xmlns="http://www.w3.org/2000/svg" xmlns:xlink="http://www.w3.org/1999/xlink" x="0px" y="0px"
	 viewBox="0 0 16 16" style="enable-background:new 0 0 16 16;" xml:space="preserve">
<path d="M4,0C3.3,0,2.7,0.3,2.2,0.7C1.8,1.2,1.5,1.8,1.5,2.5v13c0,0.2,0.1,0.3,0.2,0.4c0.1,0.1,0.3,0.1,0.5,0L8,13.1
	l5.8,2.9c0.2,0.1,0.3,0.1,0.5,0s0.2-0.3,0.2-0.4v-13c0-0.7-0.3-1.3-0.7-1.8C13.3,0.3,12.7,0,12,0H4z M2.9,1.4C3.2,1.2,3.6,1,4,1h8
	c0.4,0,0.8,0.2,1.1,0.4c0.3,0.3,0.4,0.7,0.4,1.1v12.2l-5.3-2.6c-0.1-0.1-0.3-0.1-0.4,0l-5.3,2.6V2.5C2.5,2.1,2.7,1.7,2.9,1.4z"/>
</svg>
