<?xml version="1.0" encoding="utf-8"?>
<!-- Generator: Adobe Illustrator 21.1.0, SVG Export Plug-In . SVG Version: 6.00 Build 0)  -->
<svg version="1.1" id="Layer_1" xmlns="http://www.w3.org/2000/svg" xmlns:xlink="http://www.w3.org/1999/xlink" x="0px" y="0px"
	 viewBox="0 0 16 16" style="enable-background:new 0 0 16 16;" xml:space="preserve">
<g>
	<path d="M8.3,0.1C8.1,0,7.9,0,7.7,0.1L4,3.1V1.5C4,1.2,3.8,1,3.5,1S3,1.2,3,1.5v2.4L0.2,6.1C0,6.3-0.1,6.6,0.1,6.8
		C0.3,7,0.6,7.1,0.8,6.9l3-2.4c0,0,0,0,0,0L8,1.1l7.2,5.8c0.2,0.2,0.5,0.1,0.7-0.1c0.2-0.2,0.1-0.5-0.1-0.7L8.3,0.1z M3,7.5
		C3,7.2,2.8,7,2.5,7S2,7.2,2,7.5v8C2,15.8,2.2,16,2.5,16h4C6.8,16,7,15.8,7,15.5V12h2v3.5C9,15.8,9.2,16,9.5,16h4
		c0.3,0,0.5-0.2,0.5-0.5v-8C14,7.2,13.8,7,13.5,7C13.2,7,13,7.2,13,7.5V15h-3v-3.5c0-0.3-0.2-0.5-0.5-0.5h-3C6.2,11,6,11.2,6,11.5
		V15H3V7.5z M6,5.5C6,5.2,6.2,5,6.5,5h3C9.8,5,10,5.2,10,5.5v3C10,8.8,9.8,9,9.5,9h-3C6.2,9,6,8.8,6,8.5V5.5z M9,6H7v2h2V6z"/>
</g>
</svg>
