<?xml version="1.0" encoding="utf-8"?>
<!-- Generator: Adobe Illustrator 21.1.0, SVG Export Plug-In . SVG Version: 6.00 Build 0)  -->
<svg version="1.1" id="Layer_1" xmlns="http://www.w3.org/2000/svg" xmlns:xlink="http://www.w3.org/1999/xlink" x="0px" y="0px"
	 viewBox="0 0 16 16" style="enable-background:new 0 0 16 16;" xml:space="preserve">
<g>
	<path d="M4.5,5H6v5.5C6,10.8,6.2,11,6.5,11h3c0.3,0,0.5-0.2,0.5-0.5V5h1.5c0.2,0,0.4-0.1,0.5-0.3s0.1-0.4-0.1-0.5
		l-3.5-4C8.2,0,7.8,0,7.6,0.2l-3.5,4C4,4.3,4,4.5,4,4.7C4.1,4.9,4.3,5,4.5,5z M8,1.3L10.4,4H9.5C9.2,4,9,4.2,9,4.5V10H7V4.5
		C7,4.2,6.8,4,6.5,4H5.6L8,1.3z"/>
	<path d="M14.5,6h-2C12.2,6,12,6.2,12,6.5S12.2,7,12.5,7h2C14.8,7,15,7.2,15,7.5v7c0,0.3-0.2,0.5-0.5,0.5h-13
		C1.2,15,1,14.8,1,14.5v-7C1,7.2,1.2,7,1.5,7h2C3.8,7,4,6.8,4,6.5S3.8,6,3.5,6h-2C0.7,6,0,6.7,0,7.5v7C0,15.3,0.7,16,1.5,16h13
		c0.8,0,1.5-0.7,1.5-1.5v-7C16,6.7,15.3,6,14.5,6z"/>
</g>
</svg>
