<?xml version="1.0" encoding="utf-8"?>
<!-- Generator: Adobe Illustrator 21.1.0, SVG Export Plug-In . SVG Version: 6.00 Build 0)  -->
<svg version="1.1" id="Layer_1" xmlns="http://www.w3.org/2000/svg" xmlns:xlink="http://www.w3.org/1999/xlink" x="0px" y="0px"
	 viewBox="0 0 16 16" style="enable-background:new 0 0 16 16;" xml:space="preserve">
<path d="M11,3H5C2.2,3,0,5.2,0,8s2.2,5,5,5h6c2.8,0,5-2.2,5-5C16,5.2,13.8,3,11,3z M5,12c-2.2,0-4-1.8-4-4
	c0-2.2,1.8-4,4-4s4,1.8,4,4C9,10.2,7.2,12,5,12z M11,12H8c1.2-0.9,2-2.4,2-4S9.2,4.9,8,4h3c2.2,0,4,1.8,4,4C15,10.2,13.2,12,11,12z"
	/>
</svg>
