<?xml version="1.0" encoding="utf-8"?>
<!-- Generator: Adobe Illustrator 21.1.0, SVG Export Plug-In . SVG Version: 6.00 Build 0)  -->
<svg version="1.1" id="Layer_1" xmlns="http://www.w3.org/2000/svg" xmlns:xlink="http://www.w3.org/1999/xlink" x="0px" y="0px"
	 viewBox="0 0 24 24" style="enable-background:new 0 0 24 24;" xml:space="preserve">
<g>
	<path d="M23.8,9.2l-6.5-6.5c0,0,0,0,0,0l-2.4-2.4c-0.3-0.3-0.8-0.3-1.1,0c-0.3,0.3-0.3,0.8,0,1.1L15.5,3L3.3,9.8
		L1.3,7.7C1,7.4,0.5,7.4,0.2,7.7c-0.3,0.3-0.3,0.8,0,1.1l12.5,12.5c0,0,0,0,0,0l2.5,2.5c0.3,0.3,0.8,0.3,1.1,0
		c0.3-0.3,0.3-0.8,0-1.1l-2.1-2.1L21,8.5l1.8,1.8c0.3,0.3,0.8,0.3,1.1,0C24.1,10,24.1,9.5,23.8,9.2z M13.1,19.5l-8.7-8.7l12.1-6.7
		l3.3,3.3L13.1,19.5z"/>
	<path d="M5.5,17.5l-5.2,5.2c-0.3,0.3-0.3,0.8,0,1.1c0.3,0.3,0.8,0.3,1.1,0l5.2-5.2c0.3-0.3,0.3-0.8,0-1.1
		C6.2,17.2,5.8,17.2,5.5,17.5z"/>
</g>
</svg>
