<?xml version="1.0" encoding="utf-8"?>
<!-- Generator: Adobe Illustrator 21.1.0, SVG Export Plug-In . SVG Version: 6.00 Build 0)  -->
<svg version="1.1" id="Layer_1" xmlns="http://www.w3.org/2000/svg" xmlns:xlink="http://www.w3.org/1999/xlink" x="0px" y="0px"
	 viewBox="0 0 16 16" style="enable-background:new 0 0 16 16;" xml:space="preserve">
<g>
	<path d="M4.5,0C4.3,0,4.1,0.2,4,0.4l-2,8c0,0.1,0,0.3,0.1,0.4C2.2,8.9,2.3,9,2.5,9h4.4L6,15.4c0,0.2,0.1,0.5,0.3,0.5
		c0.2,0.1,0.5,0,0.6-0.2l7-11c0.1-0.2,0.1-0.3,0-0.5C13.9,4.1,13.7,4,13.5,4H9.1L10,0.6c0-0.1,0-0.3-0.1-0.4C9.8,0.1,9.7,0,9.5,0
		H4.5z M3.1,8l1.8-7h4L8,4.4c0,0.1,0,0.3,0.1,0.4C8.2,4.9,8.3,5,8.5,5h4.1l-5.3,8.3L8,8.6c0-0.1,0-0.3-0.1-0.4C7.8,8.1,7.6,8,7.5,8
		H3.1z"/>
</g>
</svg>
