<?xml version="1.0" encoding="utf-8"?>
<!-- Generator: Adobe Illustrator 21.1.0, SVG Export Plug-In . SVG Version: 6.00 Build 0)  -->
<svg version="1.1" id="Layer_1" xmlns="http://www.w3.org/2000/svg" xmlns:xlink="http://www.w3.org/1999/xlink" x="0px" y="0px"
	 viewBox="0 0 16 16" style="enable-background:new 0 0 16 16;" xml:space="preserve">
<path d="M14.9,5.1l-5-5C9.8,0.1,9.6,0,9.5,0h-8C1.2,0,1,0.2,1,0.5v15C1,15.8,1.2,16,1.5,16h13c0.3,0,0.5-0.2,0.5-0.5
	v-10C15,5.4,14.9,5.2,14.9,5.1z M10,1.7L13.3,5H10V1.7z M14,15H2V1h7v4.5C9,5.8,9.2,6,9.5,6H14V15z"/>
</svg>
