<?xml version="1.0" encoding="utf-8"?>
<!-- Generator: Adobe Illustrator 21.1.0, SVG Export Plug-In . SVG Version: 6.00 Build 0)  -->
<svg version="1.1" id="Layer_1" xmlns="http://www.w3.org/2000/svg" xmlns:xlink="http://www.w3.org/1999/xlink" x="0px" y="0px"
	 viewBox="0 0 16 16" style="enable-background:new 0 0 16 16;" xml:space="preserve">
<g>
	<path d="M13.9,15.1l-3-3c-0.2-0.2-0.5-0.2-0.7,0s-0.2,0.5,0,0.7l3,3c0.2,0.2,0.5,0.2,0.7,0C14,15.7,14,15.3,13.9,15.1z
		"/>
	<path d="M12.1,4.9c0.2,0.2,0.5,0.2,0.7,0c0.2-0.2,0.2-0.5,0-0.7l-4-4c0,0-0.1-0.1-0.2-0.1C8.6,0,8.4,0,8.3,0
		c-0.1,0-0.1,0.1-0.2,0.1c0,0,0,0,0,0l-4,4C4,4.3,4,4.7,4.1,4.9C4.3,5,4.7,5,4.9,4.9L8,1.7v8.6l-4.9,4.9c-0.2,0.2-0.2,0.5,0,0.7
		c0.2,0.2,0.5,0.2,0.7,0l5-5C8.9,10.8,9,10.6,9,10.5V1.7L12.1,4.9z"/>
</g>
</svg>
