<?xml version="1.0" encoding="utf-8"?>
<!-- Generator: Adobe Illustrator 21.1.0, SVG Export Plug-In . SVG Version: 6.00 Build 0)  -->
<svg version="1.1" id="Layer_1" xmlns="http://www.w3.org/2000/svg" xmlns:xlink="http://www.w3.org/1999/xlink" x="0px" y="0px"
	 viewBox="0 0 16 16" style="enable-background:new 0 0 16 16;" xml:space="preserve">
<style type="text/css">
	.st0{fill:#111111;}
</style>
<g>
	<path d="M0,0.5C0,0.2,0.2,0,0.5,0h3C3.8,0,4,0.2,4,0.4l1,8.6h8.2l1.7-5H6.5C6.2,4,6,3.8,6,3.5S6.2,3,6.5,3h9
		c0.2,0,0.3,0.1,0.4,0.2C16,3.3,16,3.5,16,3.7l-2,6c-0.1,0.2-0.3,0.3-0.5,0.3h-9C4.2,10,4,9.8,4,9.6L3.1,1H0.5C0.2,1,0,0.8,0,0.5z
		 M5,13c-0.6,0-1,0.4-1,1s0.4,1,1,1s1-0.4,1-1S5.6,13,5,13z M3,14c0-1.1,0.9-2,2-2s2,0.9,2,2s-0.9,2-2,2S3,15.1,3,14z M12,14
		c0-0.6,0.4-1,1-1s1,0.4,1,1s-0.4,1-1,1S12,14.6,12,14z M13,12c-1.1,0-2,0.9-2,2s0.9,2,2,2s2-0.9,2-2S14.1,12,13,12z"/>
</g>
</svg>
