<?xml version="1.0" encoding="utf-8"?>
<!-- Generator: Adobe Illustrator 21.1.0, SVG Export Plug-In . SVG Version: 6.00 Build 0)  -->
<svg version="1.1" id="Layer_1" xmlns="http://www.w3.org/2000/svg" xmlns:xlink="http://www.w3.org/1999/xlink" x="0px" y="0px"
	 viewBox="0 0 24 24" style="enable-background:new 0 0 24 24;" xml:space="preserve">
<g>
	<path d="M13.5,6.2c-0.3-0.3-0.7-0.3-1,0c-0.3,0.3-0.3,0.7,0,1l2.3,2.3H7.5c-0.4,0-0.7,0.3-0.7,0.7c0,0.4,0.3,0.7,0.7,0.7h7.4
		l-2.3,2.3c-0.3,0.3-0.3,0.7,0,1c0.3,0.3,0.7,0.3,1,0l3.6-3.6c0.1-0.1,0.1-0.1,0.1-0.2c0-0.1,0.1-0.2,0.1-0.3c0-0.2-0.1-0.4-0.2-0.5
		L13.5,6.2z"/>
	<path d="M17.2,0H6.8C4.7,0,3,1.7,3,3.8v15v1.5C3,22.3,4.7,24,6.8,24h10.5c2.1,0,3.8-1.7,3.8-3.8v-1.5v-15C21,1.7,19.3,0,17.2,0z
		 M19.5,20.2c0,1.2-1,2.2-2.2,2.2H6.8c-1.2,0-2.2-1-2.2-2.2v-0.8h15V20.2z M19.5,18h-15V3.8c0-1.2,1-2.2,2.2-2.2h10.5
		c1.2,0,2.2,1,2.2,2.2V18z"/>
</g>
</svg>
