<?xml version="1.0" encoding="utf-8"?>
<!-- Generator: Adobe Illustrator 21.1.0, SVG Export Plug-In . SVG Version: 6.00 Build 0)  -->
<svg version="1.1" id="Layer_1" xmlns="http://www.w3.org/2000/svg" xmlns:xlink="http://www.w3.org/1999/xlink" x="0px" y="0px"
	 viewBox="0 0 16 16" style="enable-background:new 0 0 16 16;" xml:space="preserve">
<g>
	<path d="M9.9,4.1C9.8,4,9.6,4,9.5,4S9.3,4,9.2,4.1l-2,2l0,0l0,0l-7,7c-0.2,0.2-0.2,0.5,0,0.7l2,2
		C2.2,15.9,2.4,16,2.5,16c0.1,0,0.3-0.1,0.4-0.1l6.9-6.9c0,0,0.1,0,0.1-0.1c0,0,0.1-0.1,0.1-0.1l1.9-1.9c0.2-0.2,0.2-0.5,0-0.7
		L9.9,4.1z M2.5,14.8l-1.3-1.3l6.3-6.3l1.3,1.3L2.5,14.8z M9.5,7.8L8.2,6.5l1.3-1.3l1.3,1.3L9.5,7.8z"/>
	<path d="M3.1,3.9C3.3,4,3.7,4,3.9,3.9L5,2.7l1.1,1.1C6.3,4,6.7,4,6.9,3.9C7,3.7,7,3.3,6.9,3.1L5.7,2l1.1-1.1
		C7,0.7,7,0.3,6.9,0.1C6.7,0,6.3,0,6.1,0.1L5,1.3L3.9,0.1C3.7,0,3.3,0,3.1,0.1C3,0.3,3,0.7,3.1,0.9L4.3,2L3.1,3.1
		C3,3.3,3,3.7,3.1,3.9z"/>
	<path d="M14.7,2l1.1-1.1c0.2-0.2,0.2-0.5,0-0.7c-0.2-0.2-0.5-0.2-0.7,0L14,1.3l-1.1-1.1c-0.2-0.2-0.5-0.2-0.7,0
		c-0.2,0.2-0.2,0.5,0,0.7L13.3,2l-1.1,1.1c-0.2,0.2-0.2,0.5,0,0.7c0.2,0.2,0.5,0.2,0.7,0L14,2.7l1.1,1.1c0.2,0.2,0.5,0.2,0.7,0
		c0.2-0.2,0.2-0.5,0-0.7L14.7,2z"/>
	<path d="M15.9,10.1c-0.2-0.2-0.5-0.2-0.7,0L14,11.3l-1.1-1.1c-0.2-0.2-0.5-0.2-0.7,0s-0.2,0.5,0,0.7l1.1,1.1l-1.1,1.1
		c-0.2,0.2-0.2,0.5,0,0.7s0.5,0.2,0.7,0l1.1-1.1l1.1,1.1c0.2,0.2,0.5,0.2,0.7,0s0.2-0.5,0-0.7L14.7,12l1.1-1.1
		C16,10.7,16,10.3,15.9,10.1z"/>
</g>
</svg>
