<?xml version="1.0" encoding="utf-8"?>
<!-- Generator: Adobe Illustrator 21.1.0, SVG Export Plug-In . SVG Version: 6.00 Build 0)  -->
<svg version="1.1" id="Layer_1" xmlns="http://www.w3.org/2000/svg" xmlns:xlink="http://www.w3.org/1999/xlink" x="0px" y="0px"
	 viewBox="0 0 17 17" style="enable-background:new 0 0 17 17;" xml:space="preserve">
<path d="M13,4.8c-2.1,0-3.8,1.7-3.8,3.8c0,1.1,0.5,2.1,1.2,2.8H6.5c0.7-0.7,1.2-1.7,1.2-2.8c0-2.1-1.7-3.8-3.8-3.8
	S0.2,6.4,0.2,8.5s1.7,3.8,3.8,3.8h9c2.1,0,3.8-1.7,3.8-3.8S15.1,4.8,13,4.8z M4,11.3c-1.5,0-2.8-1.2-2.8-2.8S2.5,5.9,4,5.9
	s2.8,1.2,2.8,2.7S5.5,11.3,4,11.3z M13,11.3c-1.5,0-2.8-1.2-2.8-2.8s1.2-2.8,2.8-2.8s2.8,1.2,2.8,2.8S14.5,11.3,13,11.3z"/>
</svg>
