<?xml version="1.0" encoding="utf-8"?>
<!-- Generator: Adobe Illustrator 21.1.0, SVG Export Plug-In . SVG Version: 6.00 Build 0)  -->
<svg version="1.1" id="Layer_1" xmlns="http://www.w3.org/2000/svg" xmlns:xlink="http://www.w3.org/1999/xlink" x="0px" y="0px"
	 viewBox="0 0 24 24" style="enable-background:new 0 0 24 24;" xml:space="preserve">
<g>
	<path d="M0,2.2v1.5h3v18h11.6l6.2-6.2l0,0l0,0l0,0l0.2-0.2V3.8h3V2.2H0z M15,19.2v-3.4h3.4L15,19.2z M19.5,14.2h-6v6
		h-9V3.8h15V14.2z"/>
	<path d="M10.5,13.9c2.5,0,4.5-2,4.5-4.5s-2-4.5-4.5-4.5S6,7,6,9.4S8,13.9,10.5,13.9z M13.5,9.4c0,1.7-1.3,3-3,3
		c-0.6,0-1.2-0.2-1.7-0.6L13.2,8C13.4,8.5,13.5,8.9,13.5,9.4z M10.5,6.4c0.6,0,1.2,0.2,1.6,0.5l-4.4,3.8c-0.2-0.4-0.3-0.8-0.3-1.3
		C7.5,7.8,8.8,6.4,10.5,6.4z"/>
</g>
</svg>
